<svg width="64" height="64" viewBox="0 0 64 64" fill="none" xmlns="http://www.w3.org/2000/svg">
<path d="M32.5 2C15.643 2 2 15.643 2 32.5C2 49.357 15.643 63 32.5 63C49.357 63 63 49.357 63 32.5C63 15.643 49.3351 2 32.5 2ZM60.9885 32.5C60.9885 48.2419 48.2201 61.0104 32.4781 61.0104C16.7362 61.0104 3.98961 48.2419 3.98961 32.5C3.98961 16.7581 16.7362 3.98961 32.5 3.98961C48.2638 3.98961 61.0104 16.7581 61.0104 32.5H60.9885Z" fill="#6F6F6F"/>
<path d="M32.5 14.4186V15.4025C41.9233 15.4025 49.5756 23.0548 49.5756 32.4781H50.5595C50.5595 22.5082 42.4699 14.4186 32.5 14.4186ZM32.5 49.5756C23.0767 49.5756 15.4244 41.9233 15.4244 32.5H14.4405C14.4405 42.4699 22.5301 50.5595 32.5 50.5595" fill="#6F6F6F"/>
<path d="M47.0832 19.6222C47.4986 20.0595 48.0889 20.781 48.4387 21.1964L54.6043 17.3047C54.2982 16.9111 53.7953 16.2989 53.4455 15.8616L49.5319 18.4197L49.2695 18.6384L49.4663 18.3541L51.1935 14.9434L49.9692 13.7409L46.5147 15.4462L46.2305 15.643L46.471 15.3806L49.0509 11.5108C48.5918 11.1172 48.1545 10.7674 47.6079 10.352L43.6943 16.4738C44.1971 16.8455 44.853 17.414 45.2685 17.7857L48.9634 15.8835L49.2039 15.7086L49.029 15.9491L47.1269 19.6222H47.0832Z" fill="#6F6F6F"/>
<path d="M33.0903 11.8606L34.7738 8.12186L34.8832 7.79391V8.14373L35.0362 13.1505C35.6265 13.2161 36.2387 13.2817 36.829 13.391L36.5448 5.97921C35.6921 5.89176 34.8613 5.82616 34.0305 5.78244L32.3688 9.87097L32.3032 10.1771L32.2376 9.87097L30.576 5.78244C29.7452 5.82616 28.8925 5.89176 28.0616 5.97921L27.7774 13.391C28.3896 13.2817 28.9799 13.2161 29.5702 13.1505L29.7452 8.14373V7.79391L29.8326 8.12186L31.5161 11.8606H33.0903Z" fill="#6F6F6F"/>
<path d="M19.4692 17.7857C20.453 16.7581 20.9996 15.5993 20.0158 14.4624C19.491 13.8502 18.5946 13.719 17.8513 14.0251H17.7857L17.8075 13.9814C17.9168 13.6971 17.9824 12.757 17.1953 12.1229C16.8018 11.8168 16.3208 11.6857 15.8398 11.7513C14.9215 11.8387 14.2219 12.4728 12.2978 14.5935C11.7294 15.2276 10.8767 16.2333 10.3738 16.8892L15.643 21.8523C17.3921 19.9283 18.0918 19.2287 19.4692 17.7857ZM12.5821 16.5613C13.6315 15.2713 14.7685 14.1125 15.2713 13.6315C15.4244 13.4785 15.5993 13.3473 15.8179 13.2817C16.1677 13.1943 16.5176 13.4348 16.605 13.7846C16.6925 14.1344 16.452 14.4842 16.2115 14.7466C15.643 15.3806 13.5878 17.5014 13.5878 17.5014L12.5602 16.5394L12.5821 16.5613ZM14.6591 18.5072C14.6591 18.5072 16.6706 16.4082 17.3047 15.7305C17.567 15.4681 17.7201 15.2932 17.9168 15.2057C18.1573 15.0964 18.3978 15.0746 18.6165 15.2057C18.8351 15.3588 18.9444 15.5993 18.8789 15.8616C18.8133 16.1677 18.5728 16.452 18.3541 16.6706C18.0699 16.9548 15.7086 19.491 15.7086 19.491L14.6373 18.4853L14.6591 18.5072Z" fill="#6F6F6F"/>
<path d="M32.5 14.4186V32.4781H14.4186C14.4186 22.4864 22.5082 14.4186 32.4781 14.4186H32.5Z" fill="#0066B1"/>
<path d="M50.5595 32.5C50.5595 42.4918 42.4699 50.5595 32.5 50.5595L32.5 32.5H50.5595Z" fill="#0066B1"/>
</svg>
