<svg width="140" height="140" viewBox="0 0 140 140" fill="none" xmlns="http://www.w3.org/2000/svg">
<path d="M20.7492 48.367C30.7323 48.4051 38.1012 53.1889 39.4464 62.9701H27.8179C26.9515 59.8631 23.9873 58.4446 20.5212 58.4065C15.0335 58.4446 11.0511 63.5748 10.9447 71.4124C11.0511 79.3492 14.3385 85.3883 21.205 85.3312C24.0477 85.3883 29.33 82.677 29.1855 75.7439H20.9771V68.6708H41.0425V90.579L55.8631 49.9642H67.4916L83.2246 93.0892V49.9642H114.234V13H0V62.2858C2.934 53.4899 10.2833 48.409 20.7492 48.367Z" fill="#D6191F"/>
<path d="M95.0849 67.3056H109.45V75.7479H95.0849V94.2302H72.2838L69.5475 86.7003H53.8145L51.0782 94.2302H34.6575L32.1492 89.6667C29.8693 92.3859 25.8522 94.9526 19.3804 94.9145C10.9783 94.9526 3.19162 89.9934 0.227373 80.5395L0 128H114.238V60.0037H95.0849V67.3056Z" fill="#D6191F"/>
<path d="M66.5832 78.9423L61.7916 64.7954L56.7754 78.9423H66.5832Z" fill="#D6191F"/>
<path d="M130.651 15.0534C125.411 15.0231 121.064 18.9781 121.075 24.4086C121.064 29.7557 125.411 33.7106 130.651 33.7639C135.637 33.7106 139.985 29.7557 140 24.4086C140 24.3655 140 24.3223 140 24.2786C139.964 19.1479 135.778 15.0175 130.651 15.0534ZM130.651 32.1667C126.278 32.1555 122.941 28.8428 122.899 24.4086C122.941 19.9174 126.277 16.5783 130.651 16.6506C134.771 16.5783 138.108 19.9174 138.176 24.4086C138.108 28.8428 134.771 32.1549 130.651 32.1667Z" fill="#D6191F"/>
<path d="M134.755 22.1271C134.847 19.9174 133.589 18.9781 131.107 18.9327H127.003V29.6571H128.599V25.0935H130.423L133.387 29.6571H135.211L132.019 25.0935C133.638 24.8122 134.847 23.9715 134.755 22.1271ZM130.423 23.7244H128.599V20.3018H130.879C131.932 20.3629 133.144 20.6101 133.159 21.899C133.14 23.5988 131.909 23.698 130.423 23.7244H130.423Z" fill="#D6191F"/>
</svg>
