<svg width="56" height="56" viewBox="0 0 56 56" fill="none" xmlns="http://www.w3.org/2000/svg">
<path fill-rule="evenodd" clip-rule="evenodd" d="M23.6873 53.131V55.3337C23.6873 55.6918 23.984 56 24.3495 56H31.6206C31.986 56 32.2828 55.6918 32.2828 55.3511V53.1483H23.6873V53.131Z" fill="#004A98"/>
<path fill-rule="evenodd" clip-rule="evenodd" d="M23.6873 53.131V55.3337C23.6873 55.6918 23.984 56 24.3495 56H31.6206C31.986 56 32.2828 55.6918 32.2828 55.3511V53.1483H23.6873V53.131Z" fill="black" fill-opacity="0.2"/>
<path fill-rule="evenodd" clip-rule="evenodd" d="M19.1381 46.7918V50.1752C19.1381 50.5333 19.4526 50.8414 19.8003 50.8414H36.172C36.5374 50.8414 36.8342 50.5333 36.8342 50.1925V46.8092H19.1381V46.7918Z" fill="#99B8D2"/>
<path fill-rule="evenodd" clip-rule="evenodd" d="M19.1381 46.7918V50.1752C19.1381 50.5333 19.4526 50.8414 19.8003 50.8414H36.172C36.5374 50.8414 36.8342 50.5333 36.8342 50.1925V46.8092H19.1381V46.7918Z" fill="black" fill-opacity="0.2"/>
<path fill-rule="evenodd" clip-rule="evenodd" d="M39.9902 20.6191C39.7289 20.6191 39.4853 20.5519 39.2571 20.3804C39.0999 20.261 38.9781 20.1243 38.9094 19.9702L38.874 19.9355C38.8386 19.8509 38.8053 19.7641 38.8053 19.6794V19.6273C38.7699 19.3365 38.8408 19.0457 39.0312 18.7896C39.4321 18.2775 39.5894 17.6459 39.503 16.9949C39.4166 16.3634 39.0667 15.7991 38.544 15.4237C38.0213 15.0308 37.3768 14.8768 36.7124 14.9614C36.0679 15.046 35.492 15.3889 35.1089 15.9011C34.4644 16.7562 34.4644 17.9346 35.0912 18.7701C35.2484 18.9589 35.3348 19.215 35.3348 19.4711C35.3348 20.0527 34.8985 20.5302 34.3403 20.6148H29.1622V23.7572C30.4866 23.4838 31.9174 23.7572 33.0491 24.5776C34.0768 25.3285 34.7412 26.4223 34.914 27.6701C35.0889 28.918 34.7744 30.1637 33.9904 31.1728C33.2241 32.1646 32.1078 32.8309 30.8343 33.0002C30.6084 33.0349 30.3803 33.0522 30.1367 33.0522C29.8045 33.0522 29.4568 33.0175 29.1423 32.9502V44.4849H36.8142V44.1941C36.8142 39.4109 38.6791 34.7472 42.0611 31.073C44.7808 28.1519 46.4375 24.4951 46.856 20.617H39.9902V20.6191Z" fill="#99B8D2"/>
<path fill-rule="evenodd" clip-rule="evenodd" d="M39.9902 20.6191C39.7289 20.6191 39.4853 20.5519 39.2571 20.3804C39.0999 20.261 38.9781 20.1243 38.9094 19.9702L38.874 19.9355C38.8386 19.8509 38.8053 19.7641 38.8053 19.6794V19.6273C38.7699 19.3365 38.8408 19.0457 39.0312 18.7896C39.4321 18.2775 39.5894 17.6459 39.503 16.9949C39.4166 16.3634 39.0667 15.7991 38.544 15.4237C38.0213 15.0308 37.3768 14.8768 36.7124 14.9614C36.0679 15.046 35.492 15.3889 35.1089 15.9011C34.4644 16.7562 34.4644 17.9346 35.0912 18.7701C35.2484 18.9589 35.3348 19.215 35.3348 19.4711C35.3348 20.0527 34.8985 20.5302 34.3403 20.6148H29.1622V23.7572C30.4866 23.4838 31.9174 23.7572 33.0491 24.5776C34.0768 25.3285 34.7412 26.4223 34.914 27.6701C35.0889 28.918 34.7744 30.1637 33.9904 31.1728C33.2241 32.1646 32.1078 32.8309 30.8343 33.0002C30.6084 33.0349 30.3803 33.0522 30.1367 33.0522C29.8045 33.0522 29.4568 33.0175 29.1423 32.9502V44.4849H36.8142V44.1941C36.8142 39.4109 38.6791 34.7472 42.0611 31.073C44.7808 28.1519 46.4375 24.4951 46.856 20.617H39.9902V20.6191Z" fill="black" fill-opacity="0.2"/>
<path fill-rule="evenodd" clip-rule="evenodd" d="M32.3891 18.3144C32.1101 17.0166 32.3891 15.6146 33.2263 14.5057C33.9926 13.4987 35.1089 12.8476 36.3824 12.6783C37.6559 12.5069 38.9271 12.8151 39.957 13.5833C40.9692 14.3342 41.6491 15.428 41.8219 16.6759C41.9082 17.2401 41.8905 17.787 41.7687 18.3339H47V18.2145C46.7918 8.59619 38.8939 0.618509 29.1821 0.0195319V7.72376C29.1821 7.97985 29.1135 8.21857 28.9562 8.4421C28.5731 8.95427 27.8223 9.05627 27.3173 8.68082C26.4447 8.04929 25.2243 8.04929 24.3716 8.68082C23.8489 9.05627 23.5167 9.62052 23.4126 10.2521C23.3263 10.8836 23.4813 11.5325 23.8844 12.0468C24.2875 12.5612 24.8434 12.9019 25.4879 12.9865C26.1324 13.0712 26.7614 12.9192 27.2841 12.5416C27.4413 12.4223 27.6163 12.3376 27.8068 12.3029H28.1589C28.2453 12.3203 28.3161 12.3376 28.4025 12.355H28.4202C28.5952 12.4223 28.768 12.5438 28.892 12.6957L28.9274 12.7304V12.7478L28.9451 12.7652C29.1024 12.9692 29.1711 13.2274 29.1533 13.4661V18.3187L32.3891 18.3144Z" fill="#99B8D2"/>
<path fill-rule="evenodd" clip-rule="evenodd" d="M32.3891 18.3144C32.1101 17.0166 32.3891 15.6146 33.2263 14.5057C33.9926 13.4987 35.1089 12.8476 36.3824 12.6783C37.6559 12.5069 38.9271 12.8151 39.957 13.5833C40.9692 14.3342 41.6491 15.428 41.8219 16.6759C41.9082 17.2401 41.8905 17.787 41.7687 18.3339H47V18.2145C46.7918 8.59619 38.8939 0.618509 29.1821 0.0195319V7.72376C29.1821 7.97985 29.1135 8.21857 28.9562 8.4421C28.5731 8.95427 27.8223 9.05627 27.3173 8.68082C26.4447 8.04929 25.2243 8.04929 24.3716 8.68082C23.8489 9.05627 23.5167 9.62052 23.4126 10.2521C23.3263 10.8836 23.4813 11.5325 23.8844 12.0468C24.2875 12.5612 24.8434 12.9019 25.4879 12.9865C26.1324 13.0712 26.7614 12.9192 27.2841 12.5416C27.4413 12.4223 27.6163 12.3376 27.8068 12.3029H28.1589C28.2453 12.3203 28.3161 12.3376 28.4025 12.355H28.4202C28.5952 12.4223 28.768 12.5438 28.892 12.6957L28.9274 12.7304V12.7478L28.9451 12.7652C29.1024 12.9692 29.1711 13.2274 29.1533 13.4661V18.3187L32.3891 18.3144Z" fill="black" fill-opacity="0.2"/>
<path fill-rule="evenodd" clip-rule="evenodd" d="M26.8256 0C22.5024 0.256084 18.405 1.94668 15.1803 4.83522C7.43966 11.7538 6.89925 23.5598 13.96 31.1446C17.291 34.6973 19.1381 39.259 19.1381 43.9749V44.4871H26.8278V31.1967C26.8278 30.9927 26.881 30.8213 26.9673 30.6498C26.9851 30.6325 26.9851 30.6151 27.0028 30.5977L27.0559 30.5457C27.0559 30.5283 27.0737 30.5283 27.0737 30.5109C27.0914 30.4936 27.1091 30.4762 27.1268 30.4588C27.2486 30.3221 27.3704 30.2375 27.5277 30.168L27.5454 30.1507C27.6318 30.116 27.7204 30.0834 27.8067 30.0834H27.8776C27.9994 30.066 28.1212 30.0834 28.2253 30.1181H28.4025L28.4202 30.1355C28.438 30.1355 28.4557 30.1528 28.4734 30.1528C28.5265 30.1876 28.5775 30.2049 28.6306 30.2375L28.6484 30.2548C29.171 30.6477 29.8155 30.8017 30.48 30.7171C31.1245 30.6325 31.7003 30.2896 32.0835 29.7774C32.4844 29.2652 32.6416 28.6337 32.5552 27.9826C32.4688 27.3511 32.1189 26.7869 31.5962 26.4114C30.7236 25.7799 29.5033 25.7799 28.6329 26.4114C28.4069 26.5829 28.1279 26.6501 27.8665 26.6328H27.8134C27.6916 26.6154 27.5698 26.5807 27.4657 26.5308L27.4302 26.496H27.3948L27.3416 26.444C27.2885 26.4092 27.2553 26.3767 27.2021 26.342L27.1312 26.2725C26.923 26.0685 26.799 25.7777 26.799 25.4695V20.5692H23.6075C23.7293 21.0987 23.7471 21.663 23.6607 22.2272C23.4857 23.4751 22.8058 24.5667 21.7958 25.3198C20.9587 25.934 19.9642 26.2595 18.9188 26.2595C18.6929 26.2595 18.4648 26.2421 18.2212 26.2074C16.9477 26.036 15.8337 25.3697 15.0651 24.3801C13.7916 22.7221 13.7916 20.3999 15.0651 18.7245C15.4483 18.2124 16.1991 18.1104 16.7041 18.4858C17.2268 18.8613 17.3309 19.5796 16.9477 20.0918C16.3032 20.9468 16.3032 22.1426 16.9477 22.9781C17.3309 23.4903 17.9067 23.8158 18.5512 23.9178C19.1957 24.0025 19.8424 23.8506 20.3651 23.4556C20.8878 23.0606 21.2377 22.5159 21.3241 21.8844C21.4105 21.2528 21.2554 20.6039 20.8523 20.0896C20.8346 20.0722 20.8169 20.0375 20.7992 20.0223L20.7638 19.9876C20.6597 19.8162 20.6065 19.6295 20.6065 19.4233C20.6065 19.2345 20.6597 19.0479 20.7283 18.8938L20.746 18.8765C20.8147 18.7397 20.9387 18.603 21.0783 18.501C21.1646 18.4489 21.2355 18.399 21.3219 18.3643L21.3396 18.3469H21.4282C21.4636 18.3469 21.4813 18.3296 21.5146 18.3296C21.6009 18.3122 21.6718 18.3122 21.7582 18.3122H26.7437V15.1871C26.4114 15.2544 26.0814 15.2891 25.7492 15.2891C25.5233 15.2891 25.2952 15.2717 25.0516 15.237C23.7781 15.0656 22.664 14.3993 21.8955 13.4097C21.127 12.4201 20.797 11.1722 20.9897 9.92435C21.1646 8.67648 21.8446 7.58487 22.8545 6.83181C23.9885 6.01147 25.417 5.72066 26.7414 6.01147L26.8256 0Z" fill="#004A98"/>
<path fill-rule="evenodd" clip-rule="evenodd" d="M26.8256 0C22.5024 0.256084 18.405 1.94668 15.1803 4.83522C7.43966 11.7538 6.89925 23.5598 13.96 31.1446C17.291 34.6973 19.1381 39.259 19.1381 43.9749V44.4871H26.8278V31.1967C26.8278 30.9927 26.881 30.8213 26.9673 30.6498C26.9851 30.6325 26.9851 30.6151 27.0028 30.5977L27.0559 30.5457C27.0559 30.5283 27.0737 30.5283 27.0737 30.5109C27.0914 30.4936 27.1091 30.4762 27.1268 30.4588C27.2486 30.3221 27.3704 30.2375 27.5277 30.168L27.5454 30.1507C27.6318 30.116 27.7204 30.0834 27.8067 30.0834H27.8776C27.9994 30.066 28.1212 30.0834 28.2253 30.1181H28.4025L28.4202 30.1355C28.438 30.1355 28.4557 30.1528 28.4734 30.1528C28.5265 30.1876 28.5775 30.2049 28.6306 30.2375L28.6484 30.2548C29.171 30.6477 29.8155 30.8017 30.48 30.7171C31.1245 30.6325 31.7003 30.2896 32.0835 29.7774C32.4844 29.2652 32.6416 28.6337 32.5552 27.9826C32.4688 27.3511 32.1189 26.7869 31.5962 26.4114C30.7236 25.7799 29.5033 25.7799 28.6329 26.4114C28.4069 26.5829 28.1279 26.6501 27.8665 26.6328H27.8134C27.6916 26.6154 27.5698 26.5807 27.4657 26.5308L27.4302 26.496H27.3948L27.3416 26.444C27.2885 26.4092 27.2553 26.3767 27.2021 26.342L27.1312 26.2725C26.923 26.0685 26.799 25.7777 26.799 25.4695V20.5692H23.6075C23.7293 21.0987 23.7471 21.663 23.6607 22.2272C23.4857 23.4751 22.8058 24.5667 21.7958 25.3198C20.9587 25.934 19.9642 26.2595 18.9188 26.2595C18.6929 26.2595 18.4648 26.2421 18.2212 26.2074C16.9477 26.036 15.8337 25.3697 15.0651 24.3801C13.7916 22.7221 13.7916 20.3999 15.0651 18.7245C15.4483 18.2124 16.1991 18.1104 16.7041 18.4858C17.2268 18.8613 17.3309 19.5796 16.9477 20.0918C16.3032 20.9468 16.3032 22.1426 16.9477 22.9781C17.3309 23.4903 17.9067 23.8158 18.5512 23.9178C19.1957 24.0025 19.8424 23.8506 20.3651 23.4556C20.8878 23.0606 21.2377 22.5159 21.3241 21.8844C21.4105 21.2528 21.2554 20.6039 20.8523 20.0896C20.8346 20.0722 20.8169 20.0375 20.7992 20.0223L20.7638 19.9876C20.6597 19.8162 20.6065 19.6295 20.6065 19.4233C20.6065 19.2345 20.6597 19.0479 20.7283 18.8938L20.746 18.8765C20.8147 18.7397 20.9387 18.603 21.0783 18.501C21.1646 18.4489 21.2355 18.399 21.3219 18.3643L21.3396 18.3469H21.4282C21.4636 18.3469 21.4813 18.3296 21.5146 18.3296C21.6009 18.3122 21.6718 18.3122 21.7582 18.3122H26.7437V15.1871C26.4114 15.2544 26.0814 15.2891 25.7492 15.2891C25.5233 15.2891 25.2952 15.2717 25.0516 15.237C23.7781 15.0656 22.664 14.3993 21.8955 13.4097C21.127 12.4201 20.797 11.1722 20.9897 9.92435C21.1646 8.67648 21.8446 7.58487 22.8545 6.83181C23.9885 6.01147 25.417 5.72066 26.7414 6.01147L26.8256 0Z" fill="black" fill-opacity="0.2"/>
</svg>
