<svg width="381" height="181" viewBox="0 0 381 181" fill="none" xmlns="http://www.w3.org/2000/svg">
<path d="M79.2099 96.2831C83.7606 90.2283 87.0378 84.0633 89.0352 77.8009C91.0326 71.5385 91.3364 65.7109 89.9596 60.3181C88.2272 53.5431 84.0903 48.7992 77.5422 46.0866C70.9942 43.374 62.5393 43.3545 52.1776 46.0282C47.614 47.2028 42.4816 49.0264 36.7803 51.4859C31.0726 53.9454 25.5653 57.0734 20.2519 60.8633C14.9385 64.6467 10.3943 69.1634 6.61937 74.4134C0.963378 82.6291 -1.06631 89.839 0.523826 96.0429C1.48696 99.8134 3.82692 103.123 7.55018 105.978C8.91408 106.952 10.4267 107.218 12.0879 106.79C14.2727 106.225 15.9792 104.771 17.2009 102.422C18.0865 100.722 18.3838 99.3202 18.1059 98.2234C17.7504 96.8412 16.5351 95.6536 14.4602 94.6607C13.8849 93.9922 13.4066 92.9215 13.0252 91.4419C12.1719 88.0998 12.8054 84.4527 14.9385 80.494C16.5416 77.6387 19.3728 74.4069 23.4387 70.7857C27.5045 67.1711 32.2491 63.7446 37.6853 60.5128C43.115 57.281 48.6353 54.9383 54.246 53.4912C60.3803 51.9077 65.5839 51.8234 69.8759 53.2381C74.1616 54.6528 76.8183 57.3589 77.846 61.3694C78.848 65.2826 78.1175 70.1498 75.6548 75.9709C71.1041 86.3022 64.6595 95.3291 56.321 103.045C47.9824 110.761 38.4222 116.524 27.6403 120.32C31.2407 104.083 35.0157 90.0336 38.9716 78.1773C39.256 77.2882 39.2754 76.3927 39.0427 75.4906C37.6077 72.2524 35.4875 70.9934 32.6822 71.7137C31.0145 72.142 29.8057 73.3426 29.0429 75.3219C28.2867 78.1124 27.2653 81.6557 25.9855 85.9517C22.8828 96.0105 19.4245 108.529 15.6043 123.5C12.9411 123.987 10.2263 124.376 7.47261 124.681C6.865 124.681 6.25092 124.766 5.63684 124.921C3.54251 125.46 2.82501 126.998 3.4714 129.522C3.74289 130.574 4.22769 131.489 4.93873 132.274C5.6433 133.059 6.48362 133.474 7.46615 133.533C9.36656 133.449 11.3058 133.28 13.2643 133.027C8.58442 152.755 6.88439 166.824 8.17719 175.241C8.61674 176.961 9.42474 178.174 10.5947 178.895C11.7647 179.608 13.1221 179.972 14.6735 179.978C16.2184 179.978 17.731 179.797 19.2048 179.42C20.3941 179.115 21.0987 178.499 21.3185 177.577C21.5382 176.656 21.5447 175.481 21.3314 174.066C20.8078 172.016 20.6398 167.506 20.8337 160.536C20.9694 153.936 22.5143 144.026 25.4619 130.801C38.726 127.381 51.1239 121.384 62.6621 112.812C69.1391 107.834 74.6593 102.318 79.2164 96.2571" fill="#2D66BC"/>
<path d="M380.949 43.5817C380.755 42.8159 380.283 42.2124 379.533 41.7711C378.79 41.3298 378.034 41.2065 377.271 41.4012C376.605 41.5699 376.03 41.9982 375.545 42.6861C373.619 44.6589 371.007 46.3787 367.704 47.8388C364.401 49.2989 361.473 50.3632 358.9 51.0252C358.861 48.2866 358.545 45.7751 357.956 43.4843C357.161 40.3823 355.978 37.9293 354.401 36.1252C352.824 34.3211 351.034 33.1141 349.03 32.5106C347.026 31.907 344.977 31.8746 342.889 32.4132C340.846 32.9389 338.991 33.9642 337.33 35.4828C335.669 37.0078 334.46 38.8703 333.704 41.0702C332.947 43.2767 332.902 45.6648 333.561 48.2411L333.671 48.6695C332.624 48.5332 331.577 48.5981 330.53 48.8706C329.101 49.2405 327.918 50.1556 326.975 51.6157C325.617 54.3543 324.576 56.9696 323.781 59.494C321.409 63.6732 319.082 67.2944 316.794 70.3444C313.769 74.3809 311.067 77.4829 308.682 79.6439C306.296 81.8114 304.506 83.0444 303.323 83.3494C302.463 83.5701 301.907 83.1548 301.636 82.1035C301.125 80.0982 301.371 75.7113 302.373 68.9427L302.495 68.2224C303.388 62.3948 303.381 57.7158 302.476 54.1855C301.771 51.4145 300.537 49.4806 298.792 48.3839C297.04 47.2872 294.997 47.0341 292.67 47.6376C288.721 48.6565 284.467 51.739 279.91 56.8787C275.347 62.0249 271.113 68.0536 267.209 74.9585C269.975 63.0048 273.078 50.7785 276.523 38.2992C279.968 25.8134 283.291 14.8331 286.491 5.35841C286.756 4.42392 286.788 3.55433 286.581 2.74314C286.361 1.88652 285.922 1.19863 285.256 0.679473C284.59 0.166801 283.776 -0.053843 282.806 0.0110522C281.837 0.0824369 280.97 0.218717 280.208 0.413402C278.404 0.880648 277.182 1.56205 276.549 2.46409C275.916 3.36613 275.495 4.27466 275.276 5.19618L274.907 6.13067C273.524 9.84267 271.901 14.6903 270.04 20.6607C267.39 29.3307 264.035 39.0844 259.969 49.9284C255.903 60.7659 250.881 71.2465 244.901 81.3572C238.922 91.4743 231.741 99.742 223.357 106.18C221.094 107.834 219.246 108.84 217.824 109.21C215.568 109.69 214.178 108.931 213.667 106.926C213.144 104.875 213.493 101.63 214.715 97.1981C215.936 92.7592 217.681 88.3983 219.95 84.0957C222.219 79.7997 224.721 76.6393 227.442 74.6081C227.513 74.8936 227.675 75.1337 227.927 75.3219C228.586 75.9189 229.407 76.198 230.39 76.1785C231.372 76.1526 232.452 75.9903 233.648 75.6853C236.498 74.7443 237.513 72.6742 236.699 69.4813C236.136 67.2879 234.837 65.6655 232.794 64.6142C230.752 63.5694 228.567 63.3423 226.24 63.9393C222.245 64.9711 218.069 68.2938 213.706 73.9202C210.054 78.6316 207.145 83.7583 204.967 89.2873C201.799 94.2064 198.781 98.3921 195.917 101.825C192.562 105.842 189.66 108.905 187.21 111.014C184.76 113.123 183.035 114.304 182.039 114.558C181.515 114.694 181.147 114.622 180.921 114.35C180.701 114.077 180.526 113.701 180.404 113.227C179.815 110.936 180.106 106.335 181.283 99.4175C182.104 93.512 182.065 88.8136 181.173 85.3287C180.455 82.5123 179.234 80.5784 177.521 79.5141C175.808 78.4563 173.785 78.2292 171.458 78.8262C168.271 79.6439 164.606 82.1035 160.462 86.1983C156.312 90.2932 152.473 95.3161 148.924 101.267L150.288 96.7957C150.883 94.9592 151.264 93.6159 151.426 92.7657C151.587 91.9091 151.548 91.033 151.316 90.1245C150.863 88.3594 149.81 87.2107 148.148 86.6656C146.494 86.127 144.735 86.0945 142.88 86.5747C141.167 87.016 139.997 87.6844 139.364 88.5865C138.73 89.4885 138.226 90.8773 137.845 92.7528C136.513 98.6387 135.628 102.708 135.188 104.96C135.136 105.206 135.085 105.492 135.033 105.745C134.089 107.198 132.829 109.054 131.232 111.319C129.131 114.304 126.798 117.4 124.219 120.606C118.666 127.433 114.775 131.132 112.545 131.703C112.105 131.768 111.776 131.735 111.569 131.612C111.362 131.489 111.174 131.119 111.019 130.496C110.787 129.587 110.67 128.335 110.664 126.732C110.664 125.129 110.715 123.617 110.832 122.183C110.948 120.755 111.052 119.775 111.142 119.243C111.233 118.711 111.207 118.159 111.058 117.588C110.838 116.732 110.379 115.881 109.688 115.044C108.99 114.207 108.13 113.565 107.102 113.117C106.65 112.929 106.094 112.792 105.441 112.708C104.781 112.624 104.032 112.689 103.172 112.909C100.606 113.571 97.9555 115.784 95.2148 119.541C94.1288 121.041 92.9653 122.741 91.7307 124.636C88.9382 128.971 85.5964 133.539 81.7115 138.361C79.5267 140.911 77.9559 142.307 77.0057 142.547H76.7019C76.5856 142.482 76.4951 142.326 76.4304 142.086C76.2107 141.229 76.3916 139.594 76.9605 137.18C77.5358 134.772 78.5054 132.19 79.8822 129.444C81.1621 126.927 82.8298 124.337 84.8853 121.67C86.9409 119.003 89.2227 116.634 91.7307 114.564C94.2387 112.494 96.7791 111.125 99.3453 110.463C101.103 110.008 102.823 109.995 104.504 110.43C105.318 110.631 106.074 110.638 106.792 110.45C108.595 109.982 110.088 108.685 111.265 106.549C112.441 104.414 112.842 102.604 112.461 101.131C112.079 99.6511 111.039 98.5868 109.326 97.9314C107.613 97.2824 105.609 96.9774 103.321 97.0358C101.032 97.0878 98.8411 97.3928 96.7467 97.9314C92.849 98.9373 89.0546 100.832 85.3572 103.61C78.124 109.398 72.5585 116.667 68.6672 125.427C64.7759 134.188 63.5025 141.191 64.847 146.441C65.5063 149.017 66.7086 150.847 68.4539 151.918C70.1991 152.995 72.287 153.222 74.7046 152.593C78.7445 151.554 83.0689 148.251 87.6778 142.683C91.8018 137.401 95.079 132.89 97.5224 129.159C97.6646 130.905 97.9167 132.495 98.2852 133.922C99.2871 137.835 100.955 140.606 103.301 142.242C105.641 143.877 108.072 144.37 110.593 143.721C115.104 142.56 120.366 137.946 126.358 129.886C128.252 127.394 130.263 124.525 132.37 121.326C131.833 124.85 131.264 128.731 130.663 133.053C130.618 133.468 130.644 133.87 130.741 134.253C131.058 135.493 132.027 136.401 133.643 136.979C135.259 137.55 136.714 137.673 137.993 137.342C138.944 137.096 139.635 136.628 140.062 135.934C140.495 135.24 141.019 134.02 141.639 132.287C142.26 130.554 143.371 127.874 144.981 124.253C146.591 120.632 149.073 115.797 152.44 109.736C156.08 103.357 159.312 98.5803 162.149 95.407C164.987 92.2336 166.758 90.5528 167.469 90.3711C167.754 90.2997 167.954 90.3387 168.07 90.4814C168.187 90.6307 168.277 90.8448 168.348 91.1369C168.665 92.3764 168.568 94.6672 168.051 98.0028C167.049 104.778 167.12 110.404 168.264 114.889C170.591 122.786 174.838 125.934 181.018 124.344C185.103 123.292 189.453 120.022 194.049 114.538C196.402 111.735 199.072 108.211 202.045 103.993C202.09 105.745 202.291 107.393 202.685 108.918C203.629 112.591 205.432 115.343 208.102 117.173C210.771 119.003 214.036 119.418 217.888 118.425C223.118 117.082 228.832 113.039 235.044 106.296C241.249 99.5602 247.299 90.8773 253.195 80.2475C251.036 90.4165 249.853 98.178 249.646 103.519C249.484 104.68 249.542 105.784 249.807 106.835C250.092 107.932 250.874 108.873 252.167 109.658C253.46 110.443 255.03 110.599 256.886 110.125C259.122 109.548 260.589 108.152 261.288 105.939C261.352 105.414 261.999 103.668 263.22 100.709C269.322 85.5494 275.786 73.6866 282.612 65.1074C285.527 61.4538 287.557 59.481 288.701 59.189C288.986 59.1176 289.186 59.163 289.309 59.3382C289.432 59.5134 289.522 59.7406 289.6 60.0261C289.917 61.2656 289.839 63.5499 289.38 66.8726C288.41 73.9916 288.475 79.6699 289.561 83.9205C290.537 87.7428 292.16 90.423 294.428 91.974C296.704 93.525 299.309 93.9209 302.256 93.1616C307.958 91.6885 314.667 85.0237 322.359 73.1933C322.469 73.9007 322.586 74.6016 322.76 75.283C323.898 79.7218 325.979 82.8238 329.017 84.5825C332.049 86.3411 335.236 86.7954 338.558 85.9388C343.025 84.7836 347.149 81.487 350.924 76.0358C354.699 70.5846 357.22 64.2897 358.48 57.1513L361.137 56.5412L363.968 55.7365C366.224 55.0551 368.965 53.8741 372.184 52.2062C375.403 50.5384 378.195 48.3774 380.561 45.7362C380.975 44.9704 381.098 44.2501 380.923 43.5817M345.384 68.5469C342.462 72.9662 339.644 75.5231 336.936 76.2175L336.58 76.3083C335.345 76.6263 334.525 75.9968 334.124 74.4264C333.71 72.804 333.852 70.5002 334.563 67.5215C335.268 64.5428 336.541 61.4927 338.377 58.3713C338.991 57.3979 339.418 56.5023 339.663 55.6716C342.327 57.1707 345.597 57.9819 349.482 58.0987C348.571 62.252 347.207 65.7304 345.391 68.5404M350.09 51.3042C345.882 50.7072 343.419 48.981 342.682 46.1191C342.307 44.6395 342.43 43.4389 343.051 42.5109C343.678 41.5894 344.389 41.0183 345.197 40.8106C347.22 40.5965 348.629 42.0372 349.424 45.1392C349.961 47.2418 350.18 49.2925 350.09 51.3042Z" fill="#2D66BC"/>
<path d="M370.406 111.832C370.316 111.482 370.102 111.202 369.76 111.001C369.417 110.8 369.068 110.742 368.725 110.833C368.422 110.91 368.157 111.105 367.937 111.423C367.058 112.325 365.855 113.117 364.343 113.785C362.83 114.454 361.486 114.94 360.309 115.245C360.29 113.993 360.148 112.838 359.876 111.793C359.514 110.372 358.971 109.243 358.247 108.418C357.523 107.588 356.702 107.036 355.785 106.764C354.867 106.485 353.929 106.472 352.973 106.718C352.035 106.958 351.189 107.432 350.426 108.126C349.663 108.821 349.107 109.677 348.765 110.683C348.416 111.696 348.396 112.792 348.7 113.973L348.752 114.168C348.273 114.11 347.789 114.136 347.31 114.259C346.657 114.428 346.114 114.85 345.681 115.518C344.835 117.231 344.24 118.847 343.871 120.372C342.87 121.832 341.9 123.137 340.969 124.253C339.431 126.096 338.106 127.498 336.981 128.465C335.856 129.432 335.068 129.97 334.609 130.093C334.369 130.152 334.201 130.126 334.098 129.996C333.994 129.873 333.917 129.698 333.865 129.483C333.594 128.432 333.729 126.323 334.266 123.156C334.641 120.45 334.621 118.296 334.221 116.699C333.891 115.408 333.335 114.525 332.547 114.032C331.764 113.552 330.834 113.441 329.767 113.72C328.306 114.097 326.626 115.226 324.725 117.101C322.825 118.977 321.06 121.281 319.438 124.006L320.065 121.956C320.343 121.118 320.511 120.502 320.588 120.106C320.666 119.717 320.646 119.308 320.543 118.893C320.336 118.088 319.851 117.556 319.095 117.309C318.332 117.062 317.531 117.043 316.677 117.264C315.895 117.465 315.359 117.776 315.068 118.185C314.777 118.601 314.551 119.236 314.37 120.093C313.756 122.793 313.355 124.655 313.155 125.694C313.129 125.804 313.109 125.934 313.083 126.05C312.65 126.719 312.075 127.569 311.338 128.607C310.375 129.977 309.302 131.391 308.126 132.864C305.579 135.992 303.795 137.686 302.773 137.952C302.573 137.978 302.424 137.965 302.327 137.913C302.23 137.855 302.146 137.68 302.069 137.401C301.965 136.985 301.907 136.414 301.907 135.681C301.907 134.948 301.933 134.253 301.985 133.598C302.037 132.942 302.088 132.495 302.127 132.248C302.166 132.008 302.159 131.748 302.088 131.489C301.985 131.093 301.778 130.71 301.461 130.327C301.145 129.938 300.75 129.646 300.278 129.438C300.072 129.354 299.813 129.289 299.516 129.25C299.212 129.211 298.869 129.243 298.475 129.347C297.298 129.652 296.083 130.665 294.829 132.384C294.331 133.072 293.801 133.851 293.233 134.72C291.953 136.706 290.421 138.802 288.643 141.015C287.641 142.183 286.924 142.826 286.484 142.936H286.348C286.29 142.904 286.251 142.832 286.226 142.722C286.122 142.333 286.206 141.58 286.465 140.477C286.73 139.373 287.176 138.192 287.803 136.933C288.391 135.778 289.154 134.591 290.098 133.371C291.041 132.151 292.082 131.06 293.233 130.113C294.383 129.165 295.547 128.536 296.723 128.237C297.531 128.03 298.32 128.023 299.089 128.218C299.457 128.309 299.813 128.315 300.136 128.231C300.964 128.017 301.649 127.42 302.185 126.44C302.728 125.46 302.909 124.636 302.735 123.954C302.56 123.273 302.082 122.786 301.3 122.488C300.517 122.189 299.6 122.053 298.546 122.079C297.499 122.105 296.49 122.241 295.534 122.488C293.743 122.948 292.004 123.818 290.311 125.097C287.247 127.543 284.875 130.6 283.116 134.208C278.915 139.983 275.541 143.845 273.02 145.746L272.477 146.2C271.798 146.726 271.371 147.012 271.197 147.057C271.152 147.07 271.126 147.051 271.119 147.005C271.048 146.72 271.113 146.123 271.32 145.208C271.527 144.293 271.766 143.352 272.044 142.378C272.322 141.411 272.548 140.658 272.735 140.12C273 139.328 273.246 138.381 273.472 137.271C273.698 136.168 273.685 135.129 273.446 134.169C273.239 133.358 272.781 132.715 272.076 132.228C271.371 131.748 270.486 131.638 269.419 131.917C268.611 132.125 267.777 132.501 266.905 133.04C266.032 133.578 265.134 134.169 264.203 134.805L262.587 135.856C262.651 135.305 262.619 134.746 262.477 134.201C262.354 133.721 262.16 133.293 261.902 132.916C261.139 131.833 259.949 131.502 258.333 131.91C257.526 132.118 256.75 132.598 256 133.351C255.257 134.104 254.681 135.012 254.294 136.077C253.906 137.148 253.854 138.238 254.138 139.354C254.274 139.88 254.52 140.36 254.875 140.808C255.231 141.255 255.735 141.567 256.388 141.749C256.944 141.904 257.661 141.865 258.476 141.697C255.192 146.161 252.128 149.575 249.297 151.898C248.34 152.683 247.752 153.099 247.532 153.157H247.5L247.48 153.099C247.409 152.813 247.48 152.216 247.681 151.301C247.888 150.386 248.127 149.445 248.398 148.472C248.676 147.505 248.896 146.752 249.064 146.22C249.329 145.428 249.575 144.474 249.807 143.352C250.04 142.229 250.04 141.197 249.801 140.256C249.594 139.445 249.129 138.802 248.418 138.322C247.707 137.842 246.808 137.738 245.742 138.011C244.934 138.218 244.093 138.588 243.221 139.12C242.348 139.652 241.443 140.243 240.525 140.898L238.98 141.93C239.019 141.268 238.967 140.665 238.825 140.113C238.67 139.503 238.392 138.991 237.998 138.582C237.604 138.173 237.093 137.933 236.479 137.874C235.858 137.816 235.276 137.855 234.734 137.991C233.686 138.257 232.807 138.815 232.09 139.646C231.372 140.483 230.875 141.431 230.584 142.482C230.293 143.533 230.267 144.513 230.493 145.409C230.997 147.375 232.368 148.193 234.598 147.849C232.646 151.639 230.138 154.916 227.08 157.674C224.023 160.432 221.489 162.067 219.485 162.586C217.656 163.06 216.537 162.522 216.143 160.964C215.755 159.459 216.04 157.479 216.996 155.046C217.442 154.981 217.895 154.883 218.354 154.767C219.899 154.371 221.366 153.696 222.749 152.761C224.133 151.82 225.27 150.711 226.162 149.432C227.054 148.154 227.604 147.064 227.798 146.161C227.998 145.259 228.024 144.526 227.875 143.955C227.72 143.365 227.494 142.923 227.184 142.625C226.608 142.002 225.846 141.606 224.908 141.431C223.964 141.249 222.982 141.294 221.961 141.56C220.17 142.021 218.548 142.975 217.087 144.429C215.626 145.882 214.372 147.485 213.318 149.25C212.271 151.016 211.495 152.67 210.985 154.221C210.881 154.552 210.823 154.851 210.739 155.169C209.207 154.637 207.63 154.345 205.995 154.319L205.859 153.793C205.335 151.742 204.43 150.198 203.144 149.173C201.722 148.069 199.99 147.369 197.934 147.057C195.878 146.746 193.655 146.622 191.257 146.681C189.272 146.726 187.553 146.681 186.105 146.557C184.657 146.428 183.687 146.129 183.209 145.649C182.724 145.169 182.427 144.721 182.323 144.305C182.168 143.695 182.201 142.904 182.414 141.937C183.203 139.03 185.174 135.765 188.322 132.144C191.47 128.523 195.109 125.609 199.24 123.403C200.248 122.91 201.192 122.553 202.064 122.325C203.26 122.02 204.139 122.001 204.702 122.274C204.838 122.449 204.935 122.656 204.999 122.897C205.277 123.993 204.838 125.888 203.668 128.588C203.209 129.62 203.041 130.36 203.157 130.82C203.28 131.3 203.861 131.761 204.902 132.19C205.646 132.559 206.279 132.676 206.803 132.54C207.805 132.28 208.477 131.086 208.806 128.945C209.143 126.719 209.11 124.83 208.722 123.299C208.328 121.748 207.546 120.56 206.382 119.743C204.346 118.308 201.67 118.023 198.361 118.873C194.405 120.009 190.72 122.046 187.314 124.98C184.289 127.576 181.826 130.392 179.925 133.423C176.933 138.153 175.898 142.32 176.816 145.908C177.068 146.895 177.488 147.68 178.083 148.271C180.1 150.36 184.366 151.035 190.862 150.289C192.892 150.14 194.793 150.373 196.564 150.99C198.335 151.606 199.472 152.846 199.977 154.721C198.567 154.942 197.158 155.234 195.743 155.604C188.031 157.59 181.871 160.893 177.269 165.507C175.633 167.188 174.483 168.907 173.817 170.666C173.151 172.425 173.002 174.014 173.364 175.436C173.681 176.682 174.302 177.727 175.207 178.564C176.306 179.583 177.728 180.303 179.486 180.712C181.238 181.121 183.054 181.095 184.935 180.634L185.394 180.517C186.835 180.147 188.335 179.55 189.919 178.719C193.9 176.5 197.456 173.476 200.571 169.641C203.687 165.805 205.523 161.73 206.066 157.421C207.481 157.298 208.865 157.408 210.229 157.713C210.035 159.238 210.054 160.614 210.358 161.801C210.843 163.703 211.864 165.078 213.415 165.929C214.967 166.772 216.822 166.921 218.981 166.363C220.959 165.851 223.234 164.618 225.787 162.664C228.341 160.711 230.739 158.329 232.982 155.513C235.218 152.696 236.957 149.685 238.179 146.479C239.355 145.805 240.415 145.091 241.359 144.344C242.309 143.598 243.001 143.17 243.434 143.053L243.499 143.034C243.525 143.403 243.324 144.351 242.904 145.882C242.277 148.238 241.934 150.256 241.883 151.95C241.825 153.274 241.902 154.332 242.109 155.143C242.406 156.305 242.93 157.103 243.68 157.538C244.429 157.972 245.354 158.05 246.44 157.771C249.316 157.031 252.749 154.007 256.73 148.718C258.534 146.343 260.098 144.176 261.41 142.229L262.774 140.34C262.923 140.113 262.968 139.873 262.975 139.64C263.518 139.296 264.093 138.906 264.701 138.478C265.948 137.55 266.756 137.037 267.131 136.946C267.112 137.485 266.963 138.238 266.698 139.192C266.536 139.821 266.394 140.405 266.278 140.95C265.47 144.513 265.302 147.226 265.78 149.088C266.375 151.405 267.79 152.275 270.033 151.697C272.91 150.957 276.355 147.933 280.363 142.638C280.479 142.482 280.576 142.346 280.692 142.196C280.647 143.124 280.705 143.975 280.899 144.74C281.203 145.921 281.753 146.759 282.548 147.252C283.349 147.745 284.306 147.849 285.411 147.563C287.26 147.083 289.244 145.571 291.358 143.021C293.246 140.6 294.745 138.536 295.87 136.823C295.935 137.628 296.051 138.348 296.219 139.01C296.678 140.808 297.447 142.073 298.52 142.826C299.593 143.572 300.705 143.799 301.862 143.507C303.93 142.975 306.342 140.86 309.089 137.167C309.955 136.025 310.886 134.694 311.849 133.228C311.603 134.85 311.345 136.635 311.067 138.614C311.047 138.809 311.06 138.991 311.099 139.166C311.248 139.73 311.687 140.152 312.431 140.412C313.168 140.678 313.833 140.73 314.422 140.58C314.861 140.464 315.171 140.256 315.372 139.932C315.566 139.614 315.811 139.055 316.096 138.257C316.38 137.459 316.891 136.233 317.628 134.578C318.365 132.916 319.502 130.697 321.047 127.919C322.715 124.999 324.195 122.806 325.501 121.352C326.8 119.898 327.615 119.126 327.944 119.042C328.073 119.009 328.164 119.029 328.216 119.094C328.267 119.165 328.313 119.262 328.345 119.392C328.487 119.957 328.442 121.008 328.209 122.54C327.75 125.642 327.783 128.224 328.306 130.275C329.373 133.896 331.318 135.337 334.156 134.61C336.031 134.13 338.022 132.631 340.129 130.113C341.157 128.893 342.314 127.368 343.6 125.557C343.645 125.843 343.69 126.122 343.762 126.394C344.285 128.432 345.235 129.847 346.625 130.652C348.015 131.463 349.476 131.67 351.001 131.275C353.05 130.749 354.938 129.23 356.664 126.738C358.396 124.24 359.547 121.352 360.128 118.081L361.344 117.802L362.643 117.432C363.677 117.121 364.931 116.582 366.411 115.817C367.892 115.051 369.171 114.064 370.251 112.851C370.438 112.5 370.49 112.169 370.419 111.864M218.36 151.074C219.802 148.887 220.998 147.453 221.967 146.791C222.387 146.518 222.807 146.33 223.247 146.213C223.868 146.103 224.223 146.213 224.314 146.57C224.398 146.901 224.223 147.343 223.784 147.894C222.361 149.796 220.403 151.119 217.901 151.859L218.36 151.074ZM194.637 167.681C190.636 172.184 186.215 175.059 181.38 176.312C180.527 176.532 179.783 176.623 179.15 176.578C177.857 176.513 177.101 176.046 176.874 175.17C176.474 173.593 177.624 171.341 180.333 168.401C182.744 165.935 185.672 163.891 189.124 162.268C192.575 160.646 195.846 159.433 198.942 158.634L199.796 158.414C198.813 161.834 197.094 164.923 194.637 167.681ZM354.104 123.279C352.766 125.304 351.473 126.479 350.232 126.797L350.07 126.842C349.502 126.991 349.127 126.699 348.939 125.979C348.752 125.233 348.816 124.181 349.14 122.812C349.463 121.443 350.045 120.048 350.891 118.62C351.176 118.172 351.37 117.763 351.48 117.387C352.701 118.075 354.201 118.445 355.978 118.503C355.558 120.405 354.938 122.001 354.104 123.286M352.869 113C352.695 112.325 352.753 111.774 353.037 111.345C353.328 110.923 353.651 110.664 354.02 110.566C354.944 110.469 355.591 111.131 355.959 112.552C356.205 113.519 356.308 114.454 356.263 115.375C354.337 115.103 353.205 114.311 352.869 113Z" fill="#2D66BC"/>
</svg>
