<svg width="312" height="304" viewBox="0 0 312 304" fill="none" xmlns="http://www.w3.org/2000/svg">
<path d="M0 222.367H20.0602C25.6351 222.367 29.96 223.932 32.8477 226.823C35.2943 229.265 36.6111 232.717 36.6111 236.858V236.985C36.6111 244.077 32.7876 248.526 27.2127 250.6L37.9347 266.282H26.6512L17.2527 252.233H9.66582V266.282H0.0133689V222.367H0ZM19.4252 243.689C24.1244 243.689 26.8183 241.18 26.8183 237.48V237.353C26.8183 233.212 23.9373 231.078 19.2314 231.078H9.63907V243.689H19.4252Z" fill="#003595"/>
<path d="M43.3625 244.445V244.318C43.3625 231.834 53.2021 221.611 66.7449 221.611C80.2878 221.611 90.0004 231.713 90.0004 244.198V244.325C90.0004 256.809 80.1608 267.032 66.6246 267.032C53.0885 267.032 43.3692 256.936 43.3692 244.452L43.3625 244.445ZM79.9068 244.445V244.318C79.9068 236.791 74.392 230.516 66.6179 230.516C58.8438 230.516 53.4561 236.664 53.4561 244.191V244.318C53.4561 251.845 58.9708 258.12 66.7449 258.12C74.519 258.12 79.9068 251.972 79.9068 244.445Z" fill="#003595"/>
<path d="M96.6314 244.445V244.318C96.6314 231.834 106.471 221.611 120.014 221.611C133.557 221.611 143.269 231.713 143.269 244.198V244.325C143.269 256.809 133.43 267.032 119.894 267.032C106.357 267.032 96.6381 256.936 96.6381 244.452L96.6314 244.445ZM133.169 244.445V244.318C133.169 236.791 127.654 230.516 119.88 230.516C112.106 230.516 106.718 236.664 106.718 244.191V244.318C106.718 251.845 112.233 258.12 120.007 258.12C127.781 258.12 133.169 251.972 133.169 244.445Z" fill="#003595"/>
<path d="M151.846 222.367H185.255V231.151H161.498V240.498H182.434V249.282H161.498V266.282H151.846V222.367Z" fill="#003595"/>
<path d="M192.955 222.367H226.05V230.964H202.548V239.876H223.23V248.473H202.548V257.692H226.365V266.289H192.955V222.367Z" fill="#003595"/>
<path d="M234.941 222.367H255.001C260.576 222.367 264.901 223.932 267.789 226.823C270.235 229.265 271.552 232.717 271.552 236.858V236.985C271.552 244.077 267.728 248.526 262.154 250.6L272.875 266.282H261.592L252.194 252.233H244.607V266.282H234.954V222.367H234.941ZM254.373 243.689C259.072 243.689 261.766 241.18 261.766 237.48V237.353C261.766 233.212 258.885 231.078 254.179 231.078H244.587V243.689H254.373Z" fill="#003595"/>
<path d="M277.241 259.88L282.942 253.042C286.893 256.307 291.031 258.374 296.044 258.374C299.995 258.374 302.374 256.809 302.374 254.233V254.106C302.374 251.657 300.87 250.406 293.537 248.52C284.7 246.265 278.998 243.816 278.998 235.092V234.965C278.998 226.997 285.389 221.731 294.353 221.731C300.75 221.731 306.198 223.738 310.65 227.311L305.636 234.59C301.753 231.894 297.929 230.262 294.226 230.262C290.523 230.262 288.584 231.954 288.584 234.088V234.216C288.584 237.099 290.462 238.042 298.049 239.989C306.953 242.311 311.967 245.509 311.967 253.163V253.29C311.967 262.007 305.322 266.905 295.857 266.905C289.212 266.905 282.508 264.583 277.241 259.88Z" fill="#003595"/>
<path d="M0 288.013V287.946C0 281.731 4.55883 276.231 11.3503 276.231C15.1672 276.231 17.5268 277.328 19.7862 279.242L18.1351 281.182C16.3904 279.663 14.4519 278.593 11.25 278.593C6.23665 278.593 2.64707 282.834 2.64707 287.879V287.946C2.64707 293.352 6.10965 297.366 11.6043 297.366C14.1912 297.366 16.5843 296.362 18.1351 295.098V289.465H11.25V287.17H20.595V296.195C18.4961 298.068 15.3276 299.661 11.5107 299.661C4.39841 299.661 0 294.482 0 288.013Z" fill="#003595"/>
<path d="M25.341 288.013V287.946C25.341 281.697 30.0269 276.231 36.9186 276.231C43.8104 276.231 48.4294 281.637 48.4294 287.879V287.946C48.4294 294.195 43.7435 299.661 36.8518 299.661C29.96 299.661 25.341 294.255 25.341 288.013ZM45.7756 288.013V287.946C45.7756 282.801 42.0256 278.593 36.8518 278.593C31.6779 278.593 27.9948 282.734 27.9948 287.879V287.946C27.9948 293.091 31.7448 297.299 36.9186 297.299C42.0924 297.299 45.7756 293.158 45.7756 288.013Z" fill="#003595"/>
<path d="M54.051 276.626H56.6045V299.279H54.051V276.626Z" fill="#003595"/>
<path d="M65.6219 276.626L79.88 294.777V276.626H82.3666V299.279H80.3279L65.7155 280.707V299.279H63.2222V276.626H65.6219Z" fill="#003595"/>
<path d="M87.7677 288.013V287.946C87.7677 281.731 92.3266 276.231 99.1181 276.231C102.935 276.231 105.295 277.328 107.554 279.242L105.903 281.182C104.158 279.663 102.22 278.593 99.0178 278.593C94.0044 278.593 90.4148 282.834 90.4148 287.879V287.946C90.4148 293.352 93.8774 297.366 99.3721 297.366C101.959 297.366 104.352 296.362 105.903 295.098V289.465H99.0178V287.17H108.363V296.195C106.264 298.068 103.095 299.661 99.2785 299.661C92.1662 299.661 87.7677 294.482 87.7677 288.013Z" fill="#003595"/>
<path d="M123.817 276.626H131.672C138.784 276.626 143.697 281.51 143.697 287.886V287.953C143.697 294.329 138.784 299.279 131.672 299.279H123.817V276.626ZM131.672 296.911C137.394 296.911 141.05 293.031 141.05 288.013V287.946C141.05 282.928 137.4 278.981 131.672 278.981H126.371V296.904H131.672V296.911Z" fill="#003595"/>
<path d="M149.319 276.626H151.872V299.279H149.319V276.626Z" fill="#003595"/>
<path d="M157.501 288.013V287.946C157.501 281.731 162.06 276.231 168.851 276.231C172.668 276.231 175.027 277.328 177.287 279.242L175.636 281.182C173.891 279.663 171.953 278.593 168.751 278.593C163.737 278.593 160.148 282.834 160.148 287.879V287.946C160.148 293.352 163.61 297.366 169.105 297.366C171.692 297.366 174.085 296.362 175.636 295.098V289.465H168.751V287.17H178.096V296.195C175.997 298.068 172.828 299.661 169.011 299.661C161.899 299.661 157.501 294.482 157.501 288.013Z" fill="#003595"/>
<path d="M184.072 276.626H186.625V299.279H184.072V276.626Z" fill="#003595"/>
<path d="M199.239 278.988H191.639V276.626H209.419V278.988H201.826V299.279H199.239V278.988Z" fill="#003595"/>
<path d="M222.06 276.459L232.374 299.273H229.627L226.973 293.285H214.653L211.966 299.273H209.346L219.66 276.459H222.06ZM225.97 290.99L220.83 279.436L215.656 290.99H225.97Z" fill="#003595"/>
<path d="M236.833 276.626H239.386V296.918H252.127V299.279H236.833V276.626Z" fill="#003595"/>
<path d="M311.967 285.176C311.84 285.042 311.813 284.835 311.82 284.601C311.699 283.617 311.412 282.848 310.857 282.44C310.837 282.426 310.83 282.366 310.81 282.326L310.643 282.045C310.643 281.851 310.643 281.657 310.643 281.463C310.516 281.443 310.382 281.416 310.255 281.396C310.115 280.981 310.021 280.58 309.807 280.259C309.553 279.871 309.473 279.242 309.493 278.626C309.493 278.533 309.493 278.439 309.493 278.339C309.44 278.339 309.386 278.339 309.333 278.339C309.152 278.151 309.166 277.83 309.146 277.529C308.992 277.522 308.832 277.516 308.678 277.502C308.631 277.469 308.584 277.462 308.537 277.475C308.491 276.96 308.437 276.438 308.664 275.997C308.604 275.836 308.45 275.703 308.604 275.462C308.631 275.281 308.658 275.107 308.684 274.926C308.651 274.853 308.651 274.773 308.671 274.686C308.631 274.645 308.584 274.619 308.537 274.612C308.557 274.358 308.537 274.13 308.364 274.043C308.237 273.869 308.116 273.702 307.989 273.528C307.942 273.542 307.902 273.542 307.856 273.528C307.842 273.334 307.775 273.24 307.662 273.22C307.668 273.174 307.668 273.127 307.662 273.073C307.521 273.006 307.381 272.946 307.241 272.879C307.087 272.585 306.886 272.638 306.692 272.692C306.646 272.632 306.599 272.618 306.539 272.645C306.525 272.571 306.519 272.498 306.505 272.424C306.077 272.411 305.65 272.397 305.215 272.384L304.734 272.331C304.734 272.438 304.727 272.538 304.721 272.645C304.607 272.571 304.5 272.498 304.386 272.424C304.5 272.498 304.614 272.571 304.721 272.645C304.721 272.538 304.727 272.438 304.734 272.331C304.714 272.257 304.694 272.183 304.674 272.116C304.64 272.17 304.6 272.17 304.567 272.11C304.086 272.083 303.598 272.07 303.116 272.016C302.989 272.003 302.869 271.889 302.742 271.815V271.836C302.354 271.836 301.98 271.836 301.599 271.842C301.545 271.842 301.492 271.836 301.445 271.829C300.409 271.555 299.366 271.427 298.323 271.521C298.23 271.447 298.136 271.327 298.036 271.314C297.361 271.26 296.686 271.233 296.011 271.2C295.957 271.12 295.904 271.039 295.85 270.959C295.536 270.932 295.228 270.912 294.914 270.885C294.694 270.651 294.446 270.778 294.219 270.718C293.885 270.631 293.531 270.738 293.223 270.397C292.896 270.397 292.568 270.384 292.241 270.377C291.913 270.377 291.585 270.377 291.265 270.377C291.051 270.357 290.837 270.337 290.623 270.31C290.449 270.096 290.282 270.23 290.115 270.344C290.008 270.344 289.901 270.344 289.801 270.344C289.787 270.277 289.774 270.203 289.761 270.129C289.433 270.116 289.099 270.036 288.778 270.103C288.203 270.223 287.635 270.15 287.067 270.109C286.933 270.103 286.793 270.103 286.659 270.136C286.585 270.156 286.512 270.25 286.445 270.317C285.977 270.009 285.483 270.063 285.001 270.116C284.694 270.15 284.353 270.022 284.059 270.35C283.965 270.277 283.858 270.109 283.778 270.136C283.45 270.257 283.136 270.063 282.815 270.109C282.441 270.156 282.053 269.962 281.699 270.317C281.659 270.257 281.626 270.257 281.585 270.317C281.512 270.277 281.425 270.176 281.365 270.21C281.051 270.404 280.73 270.31 280.409 270.317C279.654 270.33 278.905 270.39 278.156 270.451C278.083 270.451 278.016 270.558 277.942 270.618C277.361 270.651 276.779 270.678 276.198 270.725C276.124 270.725 276.057 270.832 275.984 270.885C275.656 270.885 275.335 270.879 275.008 270.885C274.68 270.899 274.359 270.939 274.032 270.972C273.551 271.274 273.049 271.22 272.548 271.247C272.354 271.541 272.1 271.421 271.88 271.528C271.498 271.521 271.111 271.508 270.73 271.501C270.676 271.501 270.623 271.514 270.569 271.521C270.442 271.588 270.315 271.702 270.182 271.722C269.293 271.876 268.404 271.989 267.521 272.143C266.746 272.284 265.964 272.384 265.195 272.685C264.76 272.859 264.299 272.866 263.845 272.946C263.831 273.02 263.811 273.093 263.791 273.167C263.744 273.133 263.698 273.154 263.664 273.22C263.397 273.22 263.123 273.234 262.855 273.234C262.474 273.575 262.047 273.608 261.639 273.749C261.305 273.869 260.977 274.017 260.676 274.318L260.061 274.364C259.941 274.679 259.76 274.672 259.573 274.659C259.152 275.013 258.704 275.308 258.424 276.017C258.403 276.077 258.323 276.071 258.276 276.097C258.223 276.285 258.169 276.465 258.109 276.653C258.096 277.014 258.089 277.375 258.076 277.736C258.029 277.763 257.976 277.797 257.929 277.837C257.942 277.91 257.936 277.971 257.909 278.031C257.909 278.633 257.902 279.228 257.902 279.831C257.902 280.031 257.855 280.178 257.748 280.272C257.682 280.392 257.675 280.486 257.768 280.607C257.916 280.794 257.895 280.995 257.748 281.162C257.648 282.018 257.541 282.875 257.441 283.731C257.501 283.778 257.561 283.825 257.621 283.871C257.601 283.925 257.588 283.985 257.575 284.045C257.815 284.413 257.929 284.868 257.909 285.424C257.909 285.611 257.916 285.805 257.922 285.992C257.922 286.273 257.915 286.561 257.909 286.842C257.929 286.909 257.942 286.989 257.929 287.069C258.123 287.29 258.096 287.652 258.123 287.979C258.083 288.04 258.049 288.14 258.002 288.153C257.641 288.274 257.307 288.582 256.926 288.561C256.866 288.655 256.813 288.749 256.752 288.842C256.779 288.936 256.779 289.023 256.752 289.117C256.645 289.137 256.545 289.15 256.445 289.17C256.365 289.404 256.244 289.438 256.104 289.418C256.071 289.471 256.03 289.478 255.99 289.438C255.89 289.625 255.763 289.699 255.616 289.659C255.496 289.859 255.382 290.06 255.262 290.261C255.215 290.448 255.161 290.635 255.115 290.816L255.034 290.829L254.954 290.809L254.794 291.104C254.794 291.699 254.807 292.295 254.787 292.89C254.76 293.532 254.901 294.041 255.128 294.503C255.289 294.797 255.442 295.091 255.603 295.386C255.589 295.473 255.589 295.56 255.603 295.653C255.476 295.841 255.462 296.021 255.603 296.215C255.723 296.389 255.837 296.583 255.957 296.771C255.937 297.159 256.097 297.567 255.883 297.948C255.797 298.109 255.91 298.37 256.071 298.43C256.271 298.503 256.512 298.39 256.645 298.784C256.645 298.918 256.625 299.092 256.665 299.179C256.859 299.607 257.073 300.015 257.28 300.43C257.434 300.544 257.588 300.664 257.742 300.778C257.869 301.086 258.063 301.066 258.243 301.039C258.53 301.006 258.758 301.159 258.925 301.568C259.079 301.588 259.239 301.601 259.393 301.621C259.506 301.34 259.694 301.34 259.861 301.287C259.954 301.213 260.041 301.093 260.141 301.072C260.382 301.026 260.623 301.032 260.87 301.012C261.077 301.006 261.291 300.999 261.498 300.985C261.645 300.731 261.833 300.698 262.026 300.711C262.053 300.778 262.093 300.812 262.14 300.818C262.22 300.899 262.301 301.026 262.394 301.046C262.541 301.079 262.695 301.046 262.842 301.039L263.156 301.353C263.156 301.447 263.17 301.534 263.176 301.628C263.176 301.869 263.203 302.083 263.35 302.183C263.35 302.223 263.35 302.27 263.35 302.31C263.377 302.926 263.377 302.939 263.671 303.033C263.805 303.073 263.925 303.113 263.998 303.327C264.132 303.327 264.259 303.374 264.326 303.615H264.486C264.573 303.407 264.694 303.334 264.834 303.334C265.155 303.334 265.476 303.347 265.797 303.354C265.91 303.347 266.017 303.334 266.131 303.327C266.211 303.133 266.331 303.066 266.465 303.053C266.699 303.039 266.926 303.013 267.16 302.993C267.314 302.899 267.468 302.805 267.621 302.712C267.862 302.745 268.116 302.725 268.35 302.819C268.684 302.946 268.985 302.658 269.313 302.732C269.513 302.778 269.654 302.484 269.827 302.357C269.948 302.27 270.095 302.297 270.228 302.27C270.188 302.651 270.255 302.819 270.422 302.738C270.583 302.658 270.696 302.484 270.756 302.21C271.131 302.337 271.499 302.544 271.886 302.471C271.94 302.725 272.053 302.772 272.187 302.692C272.307 302.625 272.421 302.531 272.535 302.451C272.642 302.464 272.749 302.511 272.849 302.484C273.096 302.431 273.317 302.524 273.531 302.732C273.551 302.464 273.517 302.163 273.684 301.989C274.224 301.891 274.667 301.951 275.015 302.17C275.135 301.815 275.342 301.922 275.523 301.869C275.623 301.869 275.723 301.869 275.823 301.869C275.83 301.782 275.837 301.695 275.837 301.608C276.164 301.594 276.492 301.574 276.819 301.561C277.087 301.915 277.361 301.882 277.648 301.648C277.889 301.695 278.123 301.681 278.31 301.367C278.597 301.688 278.885 301.648 279.179 301.38C279.634 301.514 280.021 301.133 280.382 300.838C280.743 301.106 281.077 301.22 281.432 301.079C281.592 301.139 281.753 301.26 281.913 301.26C282.2 301.26 282.515 301.461 282.782 301.093H282.849L282.909 301.046C283.277 301.066 283.624 300.731 284.005 300.945C284.065 300.979 284.152 300.865 284.232 300.818L284.286 300.852L284.346 300.825C284.507 301.008 284.649 301.008 284.774 300.825C284.874 300.865 284.974 300.932 285.081 300.939C285.462 300.952 285.85 301.179 286.224 300.845C286.331 300.825 286.432 300.812 286.539 300.791C286.599 301.059 286.732 300.999 286.853 301.026C286.986 300.745 287.207 300.885 287.367 300.745C287.528 300.925 287.695 300.885 287.862 300.758C288.19 300.745 288.511 300.738 288.838 300.725C289.025 300.798 289.212 300.865 289.353 300.537C289.406 300.537 289.453 300.524 289.493 300.47C289.727 300.818 290.008 300.611 290.269 300.644C290.884 300.718 291.505 300.725 292.127 300.731C292.254 300.731 292.374 300.597 292.501 300.531C292.728 300.571 292.956 300.638 293.183 300.651C293.277 300.651 293.363 300.557 293.457 300.51C293.698 300.531 293.952 300.457 294.166 300.597C294.587 300.872 294.995 300.805 295.416 300.745C295.797 300.745 296.178 300.758 296.565 300.765C296.619 300.765 296.672 300.771 296.733 300.778C296.906 300.698 297.08 300.618 297.261 300.544C297.842 300.812 298.437 300.852 299.039 300.778C299.146 300.758 299.253 300.738 299.353 300.718C299.413 300.718 299.473 300.718 299.54 300.725C299.667 300.758 299.794 300.785 299.921 300.838C300.015 300.878 300.108 300.965 300.202 301.032C300.249 300.985 300.309 300.952 300.336 300.885C300.576 300.27 300.87 300.062 301.271 300.423C301.338 300.484 301.425 300.477 301.499 300.504C301.599 300.638 301.699 300.852 301.813 300.878C302.354 301.032 302.896 301.233 303.45 301.012C303.464 300.932 303.464 300.852 303.464 300.771C303.624 300.564 303.785 300.363 303.938 300.156C303.938 300.076 303.958 300.002 303.979 299.935C304.086 299.935 304.192 299.922 304.293 299.915C304.507 299.614 304.727 299.32 304.941 299.019C305.055 298.744 305.162 298.47 305.275 298.189H305.409C305.489 297.607 305.73 297.192 305.93 296.75H306.077C306.104 296.456 306.084 296.135 306.251 295.928C306.158 295.633 306.178 295.366 306.311 295.125C306.352 295.031 306.392 294.944 306.438 294.85C306.652 294.67 306.746 294.349 306.773 293.961C306.88 293.773 306.98 293.579 307.087 293.392C307.247 293.392 307.414 293.385 307.575 293.379C307.575 293.285 307.575 293.191 307.575 293.104C307.628 292.964 307.702 292.837 307.729 292.683C307.782 292.402 307.896 292.268 308.056 292.208C308.237 291.833 308.491 291.974 308.711 291.933C308.725 291.853 308.731 291.773 308.731 291.686C308.999 291.666 309.266 291.606 309.52 291.853C309.56 291.893 309.654 291.759 309.721 291.706C309.868 291.579 310.021 291.458 310.168 291.338C310.242 290.796 310.262 290.247 310.195 289.699C310.202 289.605 310.215 289.518 310.222 289.424C310.222 289.324 310.229 289.224 310.235 289.123C310.275 289.023 310.315 288.923 310.362 288.829C310.416 288.829 310.469 288.829 310.523 288.816C310.583 288.729 310.636 288.648 310.697 288.561C310.763 288.334 310.884 288.28 311.017 288.267C311.024 287.906 311.144 287.718 311.345 287.672C311.345 287.585 311.345 287.504 311.345 287.417C311.505 287.23 311.666 287.043 311.826 286.849C311.826 286.661 311.833 286.474 311.84 286.28C311.893 286.18 311.947 286.079 312 285.986C312 285.711 312 285.437 312 285.163L311.967 285.176ZM280.897 280.707C280.703 281.015 280.589 281.349 280.502 281.69C280.449 281.911 280.282 282.052 280.108 282.165C279.968 282.279 279.687 282.226 279.607 282.085C279.547 281.998 279.52 281.945 279.493 281.858C279.466 281.69 279.44 281.523 279.379 281.383C279.186 280.821 278.905 280.399 278.123 280.459C277.982 280.486 277.869 280.459 277.728 280.433C277.08 280.346 276.472 280.573 275.857 280.627C275.656 280.653 275.462 280.794 275.382 281.021C275.269 281.276 275.155 281.53 275.075 281.777C274.874 282.453 274.821 283.149 274.486 283.798C274.453 284.333 274.119 284.748 274.092 285.283C274.065 285.45 274.005 285.591 273.952 285.758C273.751 286.374 273.477 286.962 273.363 287.611C273.31 287.973 273.143 288.341 272.942 288.648C272.722 288.99 272.862 289.404 272.722 289.772C272.635 289.973 272.555 290.167 272.468 290.388C272.327 290.809 272.133 291.231 272.073 291.706C272.02 292.074 271.96 292.462 271.706 292.77C271.706 293.358 271.345 293.833 271.204 294.369C271.064 294.897 270.863 295.406 270.81 295.968C270.756 296.416 270.556 296.837 270.416 297.286C270.389 297.453 270.362 297.647 270.335 297.848C270.275 298.182 270.362 298.49 270.583 298.771C270.67 298.885 270.723 298.998 270.81 299.112C270.863 299.253 270.757 299.48 270.583 299.48C270.442 299.507 270.335 299.507 270.195 299.507C269.774 299.48 269.379 299.48 268.992 299.621C268.738 299.701 268.43 299.647 268.176 299.674C267.334 299.728 266.552 299.56 265.736 299.48C265.623 299.48 265.543 299.253 265.569 299.139C265.656 298.885 265.85 298.717 266.044 298.604C266.351 298.436 266.579 298.209 266.799 297.988C266.886 297.901 266.993 297.821 266.993 297.734C267.167 297.092 267.642 296.583 267.695 295.914C267.728 295.827 267.755 295.747 267.782 295.687C268.036 295.265 268.203 294.79 268.29 294.315C268.37 293.92 268.544 293.532 268.51 293.138V292.97C268.791 292.469 268.791 291.907 269.018 291.432C269.44 290.535 269.694 289.585 269.834 288.628C269.834 288.575 269.834 288.515 269.861 288.461C270.142 287.953 270.202 287.371 270.396 286.835C270.563 286.327 270.676 285.798 270.87 285.297C270.93 285.096 270.957 284.902 270.957 284.735C270.93 284.146 271.124 283.611 271.238 283.055C271.291 282.828 271.405 282.634 271.432 282.413C271.465 282.132 271.572 281.905 271.773 281.71C272 281.483 272.027 281.235 271.886 280.928C271.465 280.593 270.964 280.56 270.429 280.673C270.315 280.7 270.175 280.787 270.035 280.787C269.393 280.76 268.858 281.095 268.27 281.322C268.016 281.409 267.795 281.577 267.682 281.858C267.568 282.078 267.374 282.306 267.234 282.533C267.147 282.614 267.067 282.674 266.953 282.754C266.813 282.674 266.672 282.587 266.559 282.5C266.391 282.359 266.331 282.165 266.365 281.971C266.392 281.911 266.392 281.858 266.418 281.831C266.619 281.383 266.726 280.908 266.866 280.426C267.067 279.784 267.508 279.529 268.156 279.476C268.658 279.442 269.192 279.416 269.694 279.442C270.255 279.476 270.783 279.362 271.291 279.222C271.518 279.161 271.712 279.135 271.933 279.135H273.978C274.453 279.135 274.901 279.108 275.375 279.108C275.77 279.108 276.191 279.108 276.579 279.222C276.913 279.302 277.22 279.302 277.561 279.222C277.675 279.161 277.815 279.161 277.956 279.135C278.317 279.054 278.658 279.362 279.079 279.222C279.413 279.081 279.834 279.135 280.202 279.108C280.482 279.108 280.676 279.222 280.843 279.389C280.897 279.476 280.984 279.529 280.984 279.616C281.011 279.978 281.064 280.399 280.897 280.734V280.707ZM302.348 273.695C302.207 273.722 302.067 273.722 301.926 273.722C301.619 273.749 301.338 273.889 301.171 274.17C301.031 274.398 300.803 274.565 300.583 274.732C300.356 274.933 300.162 275.181 299.934 275.408C299.794 275.575 299.654 275.803 299.46 275.97C299.012 276.392 298.678 276.92 298.337 277.402C297.668 278.325 297.107 279.335 296.492 280.285C296.265 280.62 296.098 281.015 295.79 281.296C295.737 281.349 295.676 281.436 295.65 281.523C295.483 282.192 294.974 282.727 294.667 283.343C294.413 283.845 294.192 284.38 293.965 284.942C293.905 285.082 293.852 285.223 293.738 285.363C293.203 285.925 292.815 286.594 292.448 287.297C292.107 288.026 291.692 288.755 291.271 289.485C291.104 289.826 290.937 290.187 290.71 290.495C290.456 290.829 290.235 291.197 290.008 291.559C289.781 291.953 289.5 292.342 289.393 292.817C289.333 292.984 289.226 293.158 289.112 293.292C288.831 293.599 288.691 293.967 288.497 294.302C288.049 294.917 287.795 295.62 287.408 296.262C287.047 296.851 286.706 297.44 286.425 298.089C286.398 298.196 286.345 298.309 286.258 298.37C286.004 298.651 285.75 298.958 285.529 299.266C285.442 299.407 285.275 299.52 285.135 299.607C284.827 299.748 284.493 299.634 284.406 299.299C284.299 298.938 284.159 298.57 284.212 298.149C284.239 297.841 284.239 297.56 284.126 297.252C284.072 297.085 284.072 296.911 284.072 296.744C284.045 296.376 284.099 295.988 283.905 295.593C283.845 295.453 283.878 295.285 283.878 295.118C283.878 295.004 283.905 294.891 283.878 294.783C283.651 294.027 283.791 293.238 283.711 292.455C283.684 292.114 283.771 291.78 283.604 291.472C283.604 291.438 283.571 291.412 283.571 291.385C283.571 291.104 283.798 290.823 283.631 290.488C283.491 290.234 283.571 289.9 283.684 289.619C283.745 289.451 283.745 289.197 283.684 289.03C283.544 288.695 283.571 288.327 283.544 287.966C283.491 287.605 283.604 287.237 283.464 286.902C283.35 286.594 283.464 286.226 283.263 285.919C283.236 285.892 283.236 285.865 283.236 285.838C283.323 284.801 282.929 283.818 283.069 282.781C283.096 282.473 283.069 282.165 282.929 281.884C282.842 281.717 282.789 281.523 282.728 281.322C282.762 281.269 282.762 281.209 282.789 281.155C282.929 280.874 282.815 280.62 282.588 280.426C282.421 280.259 282.227 280.085 282.027 279.917C281.973 279.864 281.946 279.804 281.886 279.723C281.773 279.496 281.913 279.248 282.167 279.215C282.561 279.215 282.949 279.188 283.317 279.188H285.162C285.275 279.188 285.389 279.188 285.496 279.128C285.863 278.934 286.198 279.128 286.505 279.269C286.759 279.355 286.839 279.777 286.672 279.998C286.505 280.192 286.305 280.386 286.084 280.64V281.59C286.084 281.898 286.111 282.206 286.111 282.513C286.084 282.848 286.111 283.189 286.251 283.497C286.445 283.945 286.505 284.447 286.365 284.868C286.278 285.317 286.365 285.711 286.478 286.099C286.532 286.354 286.559 286.635 286.559 286.916C286.585 287.277 286.559 287.645 286.699 287.979C286.726 288.093 286.759 288.207 286.726 288.321C286.585 288.689 286.726 289.077 286.726 289.438C286.726 289.833 286.759 290.221 286.759 290.615C286.786 291.003 286.759 291.398 286.786 291.793C286.786 291.88 286.759 291.96 286.786 292.047C286.98 292.776 287.007 293.506 287.093 294.262C287.12 294.288 287.147 294.349 287.18 294.402C287.234 294.375 287.321 294.402 287.321 294.375C287.488 294.148 287.628 293.9 287.769 293.673C288.103 293.251 288.357 292.803 288.584 292.301C288.838 291.739 289.146 291.177 289.567 290.676C289.62 290.589 289.68 290.508 289.734 290.395C290.208 289.552 290.656 288.689 291.104 287.812C291.298 287.478 291.552 287.197 291.639 286.802C291.666 286.661 291.806 286.574 291.92 286.467C292.174 286.24 292.341 285.992 292.428 285.651C292.508 285.343 292.648 285.089 292.849 284.835C293.016 284.634 293.156 284.44 293.237 284.219C293.464 283.631 293.745 283.102 293.965 282.54C294.186 282.005 294.553 281.53 294.834 281.028C294.974 280.801 295.115 280.607 295.255 280.413C295.623 279.938 295.87 279.429 296.178 278.927C296.512 278.419 296.906 277.944 297.267 277.442C297.488 277.188 297.662 276.907 297.802 276.599C298.023 276.151 298.303 275.729 298.671 275.395C298.785 275.281 298.865 275.114 298.979 275C299.119 274.806 299.259 274.579 299.453 274.438C299.841 274.104 300.235 273.823 300.489 273.374C301.051 272.98 301.639 272.672 302.334 272.866C302.535 272.919 302.675 273.12 302.642 273.314C302.642 273.455 302.501 273.655 302.334 273.682L302.348 273.695Z" fill="#003595"/>
<path d="M253.8 78.6624C253.523 76.5508 252.907 74.6032 252.004 72.9324C251.091 71.2411 249.89 69.8163 248.454 68.8015C246.996 67.7662 245.303 67.141 243.425 67.0384L188.122 64.7014C188.132 64.5579 188.153 64.4143 188.153 64.2606C188.153 62.3745 187.106 60.6525 185.372 59.3096L209.724 6.71484C209.939 6.24332 210.073 5.7308 210.134 5.20803C210.196 4.67501 210.175 4.13174 210.083 3.60897C209.991 3.07595 209.826 2.56343 209.601 2.09191C209.365 1.62039 209.067 1.18988 208.708 0.841364C208.605 0.73886 208.492 0.646606 208.38 0.564603C208.267 0.4826 208.154 0.410847 208.041 0.339094C207.928 0.277591 207.815 0.216089 207.692 0.175087C207.579 0.134086 207.456 0.0930843 207.343 0.0623331C207.066 0.000830662 206.779 -0.0196701 206.502 0.0213315C206.224 0.0623331 205.958 0.154587 205.711 0.298092C205.455 0.441598 205.219 0.636355 205.014 0.872115C204.808 1.10787 204.613 1.40514 204.459 1.7434L179.142 56.7983C178.25 56.6548 177.326 56.5728 176.361 56.5728C174.545 56.5728 172.831 56.8495 171.292 57.3313L152.399 32.2588C152.204 32.0026 151.989 31.7668 151.763 31.5618C151.537 31.3568 151.301 31.1826 151.055 31.0288C150.808 30.875 150.552 30.752 150.295 30.6598C150.039 30.5675 149.772 30.506 149.505 30.465C149.269 30.4343 149.033 30.424 148.797 30.4445C148.561 30.465 148.335 30.506 148.109 30.5778C147.884 30.6495 147.668 30.7418 147.463 30.8545C147.258 30.9775 147.063 31.121 146.878 31.2851C146.488 31.6438 146.19 32.0846 145.995 32.5869C145.8 33.0789 145.698 33.6221 145.698 34.1859C145.698 34.7497 145.79 35.3237 145.975 35.8772C146.16 36.4308 146.447 36.974 146.827 37.4558L165.483 61.2572C165.032 61.9543 164.744 62.6923 164.621 63.4713L107.071 59.9759C107.071 59.9759 107.071 59.9759 107.05 59.9759C107.05 59.9759 107.04 59.9759 107.03 59.9759C107.03 59.9759 107.019 59.9759 107.009 59.9759C106.999 59.9759 106.999 59.9759 106.989 59.9759C103.192 59.7812 99.6306 60.3859 96.4698 61.6365C93.2885 62.9075 90.528 64.8346 88.3729 67.2435L67.9921 83.0188C60.552 88.7796 56.9704 98.7122 58.8484 108.358L67.3456 151.881C68.8439 159.559 73.6158 166.027 80.2144 169.337L114.86 186.722C116.851 187.634 119.078 188.208 121.448 188.403C123.788 188.598 126.261 188.413 128.765 187.829L228.842 164.438C230.33 164.089 231.788 163.443 233.142 162.572C234.487 161.711 235.739 160.614 236.847 159.364C237.955 158.113 238.91 156.699 239.679 155.182C240.439 153.665 241.013 152.035 241.332 150.354L253.554 85.2739C253.985 82.9573 254.036 80.7125 253.759 78.6214L253.8 78.6624ZM244.092 83.8901C244.092 83.8901 244.092 83.9414 244.092 83.9619C244.092 83.9926 244.092 84.0131 244.092 84.0439C244.092 84.0746 244.092 84.0951 244.082 84.1259C244.082 84.1566 244.082 84.1771 244.072 84.2079L232.393 151.286C232.332 151.625 232.229 151.953 232.075 152.25C231.921 152.558 231.736 152.834 231.511 153.08C231.285 153.326 231.039 153.542 230.772 153.706C230.505 153.87 230.218 153.993 229.92 154.054L127.657 174.924C127.154 175.026 126.672 175.047 126.22 174.996C125.768 174.944 125.348 174.811 124.978 174.627C124.609 174.432 124.291 174.176 124.044 173.868C123.798 173.561 123.624 173.192 123.531 172.782L104.905 84.2899C104.905 84.2899 104.885 84.2181 104.885 84.1771C104.885 84.1361 104.875 84.1054 104.864 84.0644C104.864 84.0234 104.854 83.9926 104.844 83.9516C104.834 83.9106 104.844 83.8799 104.834 83.8389C104.792 83.4903 104.803 83.1623 104.834 82.8651C104.875 82.5678 104.946 82.291 105.039 82.045C105.131 81.799 105.244 81.5735 105.377 81.3685C105.501 81.1738 105.634 80.9892 105.767 80.8457C105.911 80.6817 106.086 80.5075 106.301 80.3435C106.506 80.1795 106.753 80.0154 107.03 79.8822C107.307 79.7489 107.625 79.6259 107.974 79.5439C108.323 79.4619 108.723 79.4209 109.154 79.4209H109.164L186.736 80.3435L242.04 80.733C242.255 80.733 242.46 80.774 242.635 80.8355C242.809 80.897 242.963 80.979 243.107 81.0815C243.24 81.184 243.363 81.2968 243.466 81.4198C243.569 81.5428 243.651 81.6658 243.723 81.7785C243.784 81.881 243.846 82.0143 243.907 82.1475C243.969 82.291 244.02 82.4448 244.061 82.619C244.102 82.7933 244.133 82.9881 244.143 83.1931C244.154 83.3981 244.154 83.6339 244.133 83.8799L244.092 83.8901Z" fill="#003595"/>
<path d="M172.852 149.359L211.684 116.64L164.58 99.5015L172.852 149.359Z" fill="#003595"/>
</svg>
