<svg width="243" height="714" viewBox="0 0 243 714" fill="none" xmlns="http://www.w3.org/2000/svg">
<g style="mix-blend-mode:multiply">
<path d="M209.539 118.54L217.742 15.6151C183.631 20.2324 162.353 33.245 162.353 33.245L156.749 65.3146L138.556 171.43L133.846 170.59L151.551 68.169C95.9993 96.5447 55.4726 148.595 36.2245 205.934C27.3719 232.043 22.8238 259.495 22.1741 286.948H243V118.54H209.539Z" fill="#003891"/>
<path d="M242.919 293.076H19.9001C19.9001 293.076 -0.241455 293.832 0.00219282 325.818H242.919V293.076Z" fill="#003891"/>
<path d="M204.098 359.566H242.919V353.186L166.738 353.102C166.17 353.102 165.601 353.102 164.952 353.102C164.546 353.102 164.058 353.102 163.652 353.102C163.084 353.102 162.515 353.102 161.947 353.102C161.134 353.102 160.322 353.102 159.51 353.186C158.942 353.186 158.292 353.186 157.723 353.27C157.48 353.27 157.317 353.27 157.074 353.27C156.668 353.27 156.261 353.27 155.855 353.354C155.693 353.354 155.449 353.354 155.287 353.354C154.637 353.354 154.069 353.438 153.419 353.438C152.607 353.522 151.795 353.522 151.064 353.606C150.414 353.606 149.764 353.69 149.114 353.774C148.871 353.774 148.627 353.774 148.384 353.858C147.977 353.858 147.653 353.941 147.247 353.941C147.084 353.941 146.922 353.941 146.759 353.941C146.109 354.025 145.46 354.025 144.729 354.109C143.998 354.193 143.186 354.277 142.455 354.361C141.805 354.445 141.074 354.529 140.424 354.613C140.181 354.613 139.856 354.697 139.612 354.697C139.287 354.697 138.881 354.781 138.556 354.781C138.394 354.781 138.313 354.781 138.15 354.781C137.419 354.865 136.77 354.949 136.039 355.033C135.308 355.117 134.577 355.201 133.846 355.285C133.115 355.369 132.384 355.453 131.734 355.62C131.409 355.704 131.166 355.704 130.841 355.788C130.516 355.872 130.272 355.872 129.948 355.956C129.866 355.956 129.785 355.956 129.704 355.956C128.973 356.04 128.242 356.208 127.511 356.292C126.861 356.376 126.212 356.544 125.562 356.628C124.831 356.796 124.1 356.88 123.369 357.048C123.044 357.132 122.719 357.132 122.394 357.216C122.151 357.3 121.907 357.3 121.664 357.383C121.582 357.383 121.501 357.383 121.501 357.383C120.77 357.551 120.039 357.719 119.227 357.887C118.659 357.971 118.09 358.139 117.522 358.223C116.791 358.391 116.06 358.559 115.247 358.727C114.923 358.811 114.598 358.895 114.273 358.979C114.11 359.062 113.867 359.062 113.704 359.146H113.623C112.892 359.314 112.08 359.566 111.349 359.734C110.862 359.902 110.375 359.986 109.887 360.154C109.075 360.406 108.344 360.574 107.613 360.826C107.288 360.909 107.045 360.993 106.72 361.077C106.639 361.077 106.476 361.161 106.395 361.161H106.314C105.502 361.413 104.771 361.665 104.04 361.917C103.715 362.001 103.309 362.169 102.903 362.253C102.091 362.505 101.278 362.84 100.547 363.176C100.304 363.26 100.06 363.344 99.7353 363.428C94.6187 365.443 90.3142 367.794 87.3092 370.396C76.67 379.547 67.9799 393.819 66.0307 413.044C62.7008 414.471 57.3406 417.157 57.3406 419.256C57.3406 422.278 57.2594 428.407 57.2594 428.407L66.1119 430.757C67.2489 441.755 70.4163 453.844 76.1827 467.193C96.7303 514.709 147.49 511.519 187.53 478.694C226.432 446.96 254.451 383.577 204.098 359.566Z" fill="#003891"/>
<path d="M242.919 0H226.351L217.498 111.068H242.919V0Z" fill="#003891"/>
<path d="M106.639 554.419C107.694 556.35 109.156 557.945 111.024 559.036C111.024 559.036 134.333 574.147 156.343 587.664C165.114 564.157 187.205 547.451 213.031 547.451C223.914 547.451 234.066 550.389 242.919 555.594V589.846C236.422 586.069 228.868 583.886 220.828 583.886C205.478 583.886 191.915 591.777 183.794 603.866C185.337 604.706 186.799 605.461 188.017 606.049C201.255 612.681 226.188 621.58 240.888 621.496C241.538 621.496 242.188 621.496 242.838 621.412V713.843C229.924 715.271 205.884 706.624 191.915 700.999C185.093 698.228 178.921 693.863 173.885 688.322L73.0965 576.33C70.4163 573.392 68.792 569.614 68.4671 565.584L60.7516 469.795L106.639 554.419Z" fill="#003891"/>
</g>
</svg>
