<svg width="56" height="56" viewBox="0 0 56 56" fill="none" xmlns="http://www.w3.org/2000/svg">
<path fill-rule="evenodd" clip-rule="evenodd" d="M13.0555 1V23.223C13.0555 32.1693 19.7375 39.43 27.9871 39.43C36.2368 39.43 42.9188 32.1693 42.9188 23.223V1H13.0555Z" fill="#CDA176"/>
<path d="M27.9871 1H13.0555V12.2801H27.9871V1Z" fill="#E1251B"/>
<path fill-rule="evenodd" clip-rule="evenodd" d="M16.3451 12.2801H13.0555V17.4404L27.9871 38.8854V29.0057L16.3451 12.2801Z" fill="#0A1F8F"/>
<path fill-rule="evenodd" clip-rule="evenodd" d="M28.4754 4.86374C28.4754 4.86374 28.7838 4.9934 28.8095 5.14899C28.8095 5.30457 28.8095 5.27864 28.6039 5.20085C28.6039 5.43423 28.8609 5.4083 28.8609 5.56389C28.8609 5.71947 28.7067 5.69354 28.7067 5.69354C28.7067 5.69354 28.8095 5.95285 28.9894 6.10844C29.1693 6.26403 29.1693 6.34182 28.8095 6.26403C28.7324 6.41961 29.0665 6.65299 29.0665 6.65299C29.0665 6.65299 29.195 6.80858 28.8609 6.75672C28.9637 6.88637 29.0151 6.96417 29.1436 7.01603C29.2721 7.06789 29.0665 7.11975 29.0665 7.11975C28.9637 7.17162 29.2978 7.37907 29.2978 7.37907C29.4263 7.43093 29.2207 7.48279 29.2207 7.48279C29.0665 7.48279 29.4006 7.61245 29.4006 7.61245C29.5034 7.63838 29.6062 7.7421 29.452 7.76803C29.4006 7.89769 29.6062 7.97548 29.6062 7.97548C29.7347 8.00141 29.6833 8.20886 29.6576 8.20886C29.8118 8.2348 29.9917 8.26073 30.1973 8.20886C30.1973 8.33852 30.0688 8.39038 30.0431 8.52004C30.0174 8.64969 30.0174 8.70156 30.0945 8.77935C30.1716 8.85714 30.0174 8.90901 29.9146 8.90901C29.7861 8.90901 29.7604 8.96087 29.7604 8.9868C29.7604 9.01273 29.8632 9.09052 29.7604 9.09052C29.6576 9.09052 29.452 9.16832 29.3235 9.19425C29.2207 9.24611 29.3235 9.29797 29.3749 9.29797C29.4263 9.29797 29.4006 9.34984 29.3749 9.37577C29.3749 9.4017 29.1693 9.45356 29.0922 9.47949C29.0151 9.47949 28.9894 9.58322 29.0408 9.55728C29.0922 9.55728 29.1436 9.60915 29.1436 9.60915C29.1436 9.60915 29.0665 9.68694 28.9637 9.7388C28.8609 9.79066 28.7838 9.92032 28.8609 9.92032C28.938 9.92032 28.9894 9.94625 28.9637 9.97218C28.9637 9.97218 28.8095 10.0759 28.7581 10.1537C28.7067 10.2315 28.7324 10.2574 28.7581 10.2315C28.8095 10.2315 28.938 10.2315 28.8866 10.2834C28.8352 10.3352 28.681 10.5945 28.6296 10.6723C28.6039 10.7501 28.6296 10.8279 28.6296 10.802C28.6553 10.802 28.7581 10.802 28.7581 10.802C28.7581 10.802 28.7581 11.1391 28.7838 11.3465C28.7838 11.5799 28.9123 11.5021 28.9894 11.3725C29.0665 11.2428 29.2207 11.1909 29.2207 11.2687C29.2207 11.3465 29.2207 11.3725 29.2978 11.3206C29.3492 11.2687 29.6319 10.8798 29.6319 11.0354C29.6319 11.1909 29.6319 11.2428 29.6833 11.1909C29.7347 11.1391 30.1716 10.802 30.1202 10.9576C30.0688 11.1132 30.0688 11.2169 30.1202 11.1391C30.1973 11.0613 30.48 11.0094 30.48 11.0094C30.4543 11.165 30.4029 11.1391 30.48 11.165C30.6599 11.2169 30.8398 10.9576 30.8141 11.0613C30.8141 11.1909 30.737 11.2169 30.8655 11.165C30.994 11.1132 31.0968 10.7501 31.0968 10.8798C31.0968 11.0094 31.0454 11.1132 31.1739 11.0094C31.3281 10.9057 31.3538 10.3871 31.3795 10.5686C31.3795 10.7501 31.4566 10.7242 31.4566 10.7242L31.5594 10.2834C31.5594 10.2834 31.8935 10.9835 31.9963 11.5799C32.0991 12.1763 33.3584 13.0839 33.4869 13.1617C33.6154 13.2395 34.4892 13.81 34.4892 13.81C34.4892 13.81 33.7953 14.0174 33.821 14.173C33.4098 14.0693 32.7416 14.0693 32.7416 14.0693C32.7416 14.0693 32.7416 13.9137 32.7416 13.8619C32.7416 13.81 32.7416 13.421 32.4589 13.3951C32.022 13.3432 32.0991 13.7322 32.0734 13.7322C32.0477 13.7322 31.9963 13.8619 32.0734 14.0434C32.1505 14.2249 32.0734 14.2768 32.0734 14.2768C32.0734 14.2768 31.7136 14.5101 31.6622 14.4583C31.6108 14.4064 31.765 14.199 31.8678 13.9656C31.9963 13.7322 31.8678 13.7322 31.8678 13.7841C31.8678 13.81 31.6365 13.9137 31.7136 13.7841C31.7907 13.6544 31.7907 13.1876 31.7907 13.0839C31.7907 12.9802 31.7393 12.7727 31.6108 12.9024C31.4823 13.0321 31.508 12.8246 31.508 12.7209C31.508 12.6431 31.4566 12.3579 31.4566 12.2801C31.4566 12.2023 31.3795 12.3319 31.2767 12.3579C31.1482 12.3838 31.1996 12.1763 31.1482 12.0726C31.0968 11.9689 31.0711 11.8911 31.0454 11.9689C31.0454 12.0467 30.9169 12.0207 30.9169 12.0207C30.9169 12.0207 30.5828 11.7096 30.5314 11.6836C30.48 11.6577 30.4286 11.6836 30.48 11.7355C30.5314 11.8133 30.4286 11.917 30.4286 11.917C30.4286 11.917 29.9917 11.554 29.966 11.5021C29.966 11.4762 29.8118 11.3465 29.8632 11.5799C29.9403 11.7874 29.6576 11.6318 29.5548 11.5799C29.4777 11.5281 29.2464 11.3465 29.3492 11.5021C29.452 11.6577 29.2721 11.7355 29.1693 11.7355C29.0665 11.7355 28.6296 11.6318 28.6296 11.6577C28.6296 11.6577 28.5011 11.6836 28.681 11.8652C28.8609 12.0207 28.8866 12.1504 28.7838 12.1504C28.7067 12.1504 28.6296 12.1504 28.7324 12.2801C28.8352 12.3838 28.8609 12.6172 28.7581 12.5912C28.6553 12.5653 28.6553 12.5912 28.681 12.7209C28.7067 12.8505 29.0151 13.2395 28.8866 13.2395C28.7581 13.2395 28.7067 13.1876 28.7581 13.3173C28.8095 13.447 29.2721 13.7322 29.0922 13.7322C28.938 13.7322 28.9123 13.7322 28.938 13.7581C28.9894 13.7841 29.1179 13.8619 29.195 13.9915C29.2721 14.1212 29.1693 14.1212 29.195 14.1471C29.2464 14.1471 29.4777 14.3286 29.4263 14.3286C29.3749 14.3286 29.0665 14.2768 29.195 14.3805C29.2978 14.4842 29.9146 14.7954 30.0174 14.8732C30.1202 14.951 30.3258 15.1584 30.3258 15.1584L29.8118 15.5992C29.8118 15.5992 29.5034 15.6511 29.4006 15.677C29.2978 15.677 29.3235 15.677 29.2464 15.5992C29.1436 15.4955 29.0151 15.5474 29.0151 15.5474V15.6252C29.0151 15.6252 28.5268 15.8067 28.681 16.1438C28.8095 16.4809 29.5034 16.1438 29.2721 16.3253C29.0922 16.4809 28.7838 17.1551 28.7838 17.4404C28.7581 17.5182 28.7324 17.57 28.681 17.57C28.5268 17.57 28.2955 17.9849 28.2184 18.1146C28.1413 18.2183 28.1156 18.2702 28.2184 18.2961C28.3212 18.2961 28.3726 18.3479 28.2441 18.4776C28.1156 18.5813 28.1413 18.8406 28.1156 18.9962C28.1156 19.1518 28.1927 19.2296 28.167 19.1259C28.167 19.0222 28.3469 18.9184 28.3212 19.1C28.3212 19.2815 28.3212 19.6186 28.3726 19.9038C28.3726 20.215 28.4497 20.1631 28.4497 20.1631C28.4497 20.1631 28.5011 20.0335 28.5782 20.0075C28.6553 20.0075 28.6039 19.9557 28.6553 20.3187C28.7067 20.6818 28.7838 20.5521 28.7838 20.5521C28.7838 20.5521 28.8095 20.3187 28.8866 20.2928C28.938 20.2669 28.938 20.3706 28.9637 20.578C28.9894 20.7855 29.0408 20.8114 29.0922 20.6818C29.1179 20.5521 29.2207 20.5521 29.2721 20.8633C29.3235 21.1485 29.3235 21.0189 29.3235 21.0189C29.3235 21.0189 29.3235 20.8633 29.4006 20.8114C29.5034 20.7595 29.4777 20.9929 29.5034 21.1226C29.5034 21.2782 29.6576 21.1226 29.8632 21.4338C30.0688 21.7449 30.0945 21.6153 30.0945 21.6153C30.0945 21.6153 30.1459 21.3041 30.1459 21.1744C30.1459 21.0448 30.3001 21.3041 30.3515 21.1744C30.4029 21.0707 30.2744 20.6558 30.3515 20.7077C30.4286 20.7595 30.48 20.9151 30.5057 20.7855C30.5057 20.6818 30.5057 20.4743 30.48 20.3187C30.4286 20.1631 30.48 20.0075 30.5828 20.1372C30.6599 20.2669 30.6856 20.1891 30.6856 20.1891C30.6856 20.1891 30.737 20.0075 30.6342 19.7742C30.5571 19.5408 30.6856 19.5926 30.6856 19.5926C30.6856 19.5926 30.8398 19.7482 30.737 19.5149C30.5828 18.9962 30.6856 18.9703 30.737 18.9703C30.8141 18.9703 30.9426 18.9962 30.8655 18.9184C30.7884 18.8406 30.737 18.6332 30.6599 18.5295C30.5828 18.4517 30.6599 18.4257 30.7884 18.4776C30.8912 18.5295 30.8398 18.4517 30.8398 18.4517C30.8398 18.4517 30.6599 18.2442 30.5057 18.1146C30.3772 18.0108 30.5057 17.959 30.5057 17.959C30.5057 17.959 30.3001 17.9331 30.1973 17.8293C30.0945 17.7515 30.2744 17.7256 30.2744 17.7256C30.2744 17.7256 30.3515 17.6737 29.9917 17.4922C29.6319 17.3107 29.2207 17.4144 29.2207 17.4144L29.4777 16.9477C29.4777 16.9477 29.5291 16.8699 29.5805 17.0514C29.6319 17.2329 29.709 17.3107 29.9146 17.3366C30.0945 17.3366 30.1973 17.181 30.2487 17.181C30.3001 17.181 30.3001 17.3107 30.3001 17.3107C30.3001 17.3107 30.4543 17.181 30.4286 17.3107C30.4286 17.8553 30.6342 17.9331 30.6342 17.9331C30.6342 17.9331 30.5314 17.7775 30.737 17.8293C30.9426 17.8812 30.9169 18.322 31.0197 18.2183C30.994 18.1924 31.0454 17.9849 31.1996 18.2183C31.3538 18.4776 31.4566 18.4776 31.4309 18.4517C31.4309 18.4517 31.3024 18.1924 31.5851 18.4517C31.8421 18.7369 31.9449 18.7628 31.8678 18.6332C31.7907 18.5035 31.9706 18.4517 32.0991 18.6591C32.2276 18.9962 32.3561 19.0222 32.3304 18.9703C32.3304 18.9184 32.3561 18.8925 32.4332 18.9184C32.5103 18.9184 32.793 19.3593 32.793 19.2296C32.793 19.1 32.8187 18.9703 32.8187 18.7888C32.8701 18.6851 32.9986 18.8925 32.9729 18.8147C32.8187 17.959 33.1014 18.4257 33.0757 18.2702C33.0757 18.1146 33.05 17.6478 33.1528 17.6478C32.9215 17.207 33.1528 17.0514 33.0757 16.9736C32.9729 16.8958 32.9986 16.818 32.9986 16.818C32.9986 16.818 32.9986 16.7661 32.8187 16.6106C32.6645 16.429 32.9472 16.6106 32.8187 16.4809C32.6902 16.3512 32.8701 16.2994 32.8701 16.2994C32.8701 16.2994 32.793 16.2216 32.6388 16.066C32.4846 15.9104 32.7673 15.9623 32.7673 15.9623C32.7673 15.9623 32.5874 15.7548 32.4332 15.6511C32.3047 15.5474 32.4075 15.5215 32.4075 15.5215C32.4075 15.5215 32.3304 15.4696 32.0477 15.3918C31.765 15.3399 31.9963 15.1325 31.9963 15.1325L31.251 15.1843C31.251 15.1843 31.1739 15.1843 31.2767 15.1066C31.9449 14.562 33.1271 14.6398 33.1271 14.6398C33.1271 14.6398 32.9986 15.4177 32.9472 15.9364C32.8958 16.455 33.4869 17.6478 33.7182 18.2702C33.9495 18.8925 33.821 19.852 33.7696 20.2409C33.7182 20.6299 33.9752 22.834 33.9752 22.834C33.9752 22.834 33.9238 25.1938 34.0009 26.7237C34.078 28.2537 32.8187 28.9019 32.5617 29.0316C32.1505 29.3687 30.3515 30.1726 29.7861 30.6653C29.2207 31.1579 29.2207 31.2617 29.0922 31.7284C28.9123 32.1433 29.4263 31.8581 29.6319 31.5728C29.8375 31.3135 30.8655 30.9764 30.7627 31.132C30.6599 31.2876 29.8375 31.7025 29.4263 31.9618C28.9894 32.2211 28.8095 33.1806 28.9637 33.6473C29.1179 34.0882 29.2721 33.8029 29.4006 33.2843C29.5291 32.7916 29.7861 32.5582 29.7861 32.5582C29.7861 32.5582 29.7861 32.4804 29.7347 33.1546C29.709 33.8289 30.1459 34.3475 30.2487 34.6327C30.3515 34.918 30.6085 34.8402 30.5571 34.6327C30.5057 34.4253 30.5828 33.388 30.6599 33.1806C30.7113 32.9991 30.8912 32.5582 30.9426 32.4026C30.994 32.2471 30.9426 31.9877 30.9426 31.9877C30.9426 31.9877 31.4823 31.7025 31.3795 31.8581C31.2767 33.1546 31.9192 33.9066 32.1762 34.3734C32.4332 34.8402 32.4846 34.2697 32.4589 34.0363C32.4589 33.8029 32.2019 32.273 32.5874 31.4691C32.9729 30.6653 34.0523 30.3541 34.0523 30.3541C34.0523 30.3541 34.2065 30.8208 33.9238 31.5988C33.821 31.8581 33.6668 32.273 33.821 32.6101C33.9752 32.9213 34.1294 34.0622 34.1294 34.4512C34.1294 34.8661 34.335 34.7364 34.335 34.7364C34.335 34.7364 34.592 34.3475 34.6948 33.9326C34.7976 33.5177 34.7976 32.9472 34.7719 32.6101C34.7719 32.273 34.849 32.0915 35.1317 31.8322C35.4144 31.5728 35.3887 31.3654 35.3887 31.3654L35.3373 30.5356C35.3373 30.5356 35.2088 29.8355 35.3373 29.628C35.4915 29.4206 35.6457 29.628 35.6971 29.7577C35.7742 29.8873 35.7485 30.8986 35.7228 31.1839C35.7228 31.4691 35.9798 31.521 36.2882 32.0655C36.5966 32.6101 36.4424 33.8289 36.4424 33.8289C36.4424 33.8289 36.5966 33.8807 36.6223 33.8289C37.1877 32.7397 37.1363 32.1174 37.162 31.8062C37.1877 31.4951 36.9821 31.0802 36.8793 30.7949C36.7765 30.5097 36.5966 30.4319 36.5709 30.2504C36.5709 30.0688 36.5966 29.9132 36.905 29.8614C37.3162 29.9132 37.2391 30.4578 37.162 30.769C37.0849 31.0802 37.162 31.1061 37.2648 31.3135C37.3676 31.495 37.4961 31.8062 37.4961 32.3248C37.4961 32.8175 37.7017 32.5064 37.933 32.0396C38.1643 31.5469 38.1129 31.0283 38.1129 30.7171C38.1129 30.4059 38.0101 30.0429 38.2157 29.9392C38.4213 29.8355 38.8068 30.0429 39.3465 30.1985C39.8862 30.3281 40.0918 30.0688 40.0918 30.0688C40.0918 30.0688 40.5801 29.4724 40.7086 29.2131C40.8371 28.9797 40.4259 28.9797 40.4259 28.9797C40.4259 28.9797 40.76 28.9797 39.3465 28.9797C37.9587 28.9797 37.419 28.4352 36.905 28.0721C36.4167 27.7091 36.4424 27.2942 36.4424 27.2942L36.3139 25.3494L36.2625 23.7416C36.2625 23.7416 36.1597 22.4969 36.2882 22.0302C36.2882 21.6412 36.6737 21.356 36.6994 20.4224C36.7765 19.9816 36.5195 19.074 36.4681 18.9184C36.4167 18.7628 36.4681 18.2961 36.7508 17.7775C37.0078 17.2848 37.1363 16.5587 37.1363 16.5587C37.1363 16.5587 37.3419 15.5215 37.2905 14.7954C38.3956 14.7954 38.4984 15.0547 38.4984 15.0547H38.2157C38.2157 15.0547 38.2928 15.1066 38.2928 15.1843C38.2928 15.2621 38.1643 15.2621 38.1129 15.2881C38.0615 15.2881 37.8816 15.3659 37.8302 15.4177C37.7788 15.4437 37.8302 15.4696 37.8302 15.4955C37.8302 15.4955 37.6503 15.6511 37.4961 15.7808C37.3419 15.8845 37.4447 15.9104 37.4447 15.9104H37.5989C37.5989 15.9104 37.419 16.066 37.3419 16.1179C37.2905 16.1697 37.3933 16.1697 37.3419 16.2994C37.2648 16.429 37.419 16.455 37.419 16.455C37.419 16.455 37.2905 16.5328 37.1877 16.6624C37.0849 16.7921 37.0592 17.0514 37.0592 17.0514C37.0592 17.0514 37.2391 16.9736 37.1877 17.0514C37.162 17.1292 37.0335 17.4663 37.0078 17.5959C37.0078 17.7256 37.1363 17.5441 37.1363 17.5441C37.1363 17.5441 37.1363 17.8034 37.1363 17.959C37.0849 18.1146 37.1363 18.1405 37.162 18.1146H37.2905C37.2905 18.1146 37.2905 18.2702 37.2648 18.5813C37.2648 18.8925 37.3676 18.711 37.3676 18.711L37.4961 18.6073C37.4961 18.6073 37.4961 18.6073 37.4961 18.9703C37.4961 19.3593 37.6503 19.1259 37.676 19.1C37.676 19.074 37.9587 18.6591 37.9587 18.7628C37.9587 18.8666 38.0101 19.0222 38.0358 18.8925C38.0358 18.7369 38.3185 18.3739 38.4213 18.3998C38.5241 18.4257 38.4727 18.5295 38.5498 18.5813C38.6012 18.6073 38.7297 18.2961 38.7297 18.2961C38.7297 18.2961 38.8839 18.0886 38.8582 18.2442C38.8582 18.3998 38.8839 18.3739 38.8839 18.3739C38.8839 18.3739 39.1666 17.9849 39.2437 17.9849C39.3208 17.9849 39.2694 18.1146 39.2694 18.1146C39.2694 18.1146 39.2951 18.1664 39.4236 17.8812C39.5264 17.5959 39.7063 17.7775 39.7063 17.7775L39.8348 17.3885L40.0404 17.5182C40.0404 17.5182 40.0404 17.57 39.8605 17.6478C39.7063 17.7515 39.7834 17.7775 39.7834 17.7775L39.9376 17.8553C39.9376 17.8553 39.9376 17.9331 39.7063 18.1146C39.5007 18.2961 39.4493 18.4257 39.5007 18.3998C39.5521 18.3739 39.732 18.3479 39.6806 18.3998C39.6292 18.4517 39.5264 18.7888 39.5007 18.8925C39.5007 18.9962 39.6035 18.8406 39.6549 18.8147C39.7063 18.8147 39.7063 18.8147 39.6549 18.9703C39.6035 19.1 39.6035 19.1777 39.6549 19.2037C39.7063 19.2037 39.7577 19.2037 39.7834 19.3852C39.7834 19.5667 39.7834 19.5408 39.8605 19.4889C39.9376 19.463 39.9633 19.3593 39.989 19.4371C40.0147 19.5149 40.1432 19.9038 40.2203 19.8779C40.2974 19.852 40.2974 19.7223 40.3745 19.7482C40.4516 19.7482 40.503 20.1113 40.503 20.215C40.503 20.3187 40.5801 20.3446 40.5801 20.2928C40.5801 20.215 40.7086 20.215 40.7086 20.215C40.7086 20.215 40.7343 20.4224 40.7086 20.6818C40.6829 20.9411 40.7086 20.8892 40.76 20.8633C40.8114 20.8373 40.8885 20.7855 40.8885 20.7855C40.8885 20.7855 40.8885 21.0448 40.8885 21.1744C40.8885 21.3041 40.8885 21.3041 41.017 21.2782C41.1455 21.2522 41.5824 20.8373 41.5824 20.8373L41.6595 20.967C41.8908 20.967 41.8394 20.3446 41.9165 20.3446C42.0193 20.3446 42.0193 20.5521 42.045 20.5521C42.1478 20.5521 42.045 20.0075 42.1478 20.0594C42.2506 20.1113 42.2763 20.215 42.302 20.1372C42.302 20.0594 42.2763 19.5408 42.302 19.6186C42.302 19.6964 42.3534 19.7223 42.3791 19.6186C42.3791 19.4889 42.2506 19.2037 42.302 19.1777C42.3534 19.1518 42.4562 19.2815 42.4562 19.2037C42.4562 19.1259 42.3791 18.9184 42.3277 18.8406C42.2763 18.7628 42.1478 18.4776 42.2506 18.5554C42.3534 18.6332 42.302 18.4776 42.2506 18.3739C42.2506 18.2961 42.1478 18.1405 42.0193 18.0108C41.8908 17.9071 41.8394 17.8034 41.8394 17.8034C41.8394 17.8034 41.9679 17.8553 41.8908 17.6737C41.8137 17.4922 41.3511 17.2848 41.017 17.3626C41.017 17.181 40.6829 16.1179 40.7086 16.1438L40.9656 16.2216C40.9656 16.2216 41.274 16.429 41.5053 16.1438C41.5824 15.7808 41.3254 15.7289 41.2226 15.6252C41.1198 15.5215 40.8885 15.5992 40.8114 15.703C40.7343 15.8067 40.4773 15.7808 40.4002 15.703C40.3231 15.6252 39.5778 15.0806 39.5778 15.0806C39.5778 15.0806 39.8605 15.0806 40.1689 15.0806C40.4773 15.0806 40.4002 14.9769 40.3488 14.951C40.2974 14.925 40.1946 14.8213 40.3745 14.8213C40.5544 14.8213 40.8371 14.7176 40.9656 14.6139C41.0941 14.5101 40.9142 14.5361 40.9142 14.5361C40.9142 14.5361 40.5287 14.5361 40.76 14.4583C41.017 14.4064 41.3511 13.9656 41.4539 13.8619C41.5567 13.7322 41.4539 13.7841 41.4539 13.7841H41.3511C41.3511 13.7841 41.531 13.5507 41.6338 13.447C41.7109 13.3432 41.6338 13.3692 41.6338 13.3692C41.6338 13.3692 41.531 13.3951 41.4282 13.421C41.3254 13.421 41.4282 13.2654 41.6081 13.1358C41.7623 13.0061 41.6081 13.0321 41.6081 13.0321C41.6081 13.0321 41.2483 13.1358 41.5053 12.9543C41.7623 12.7468 41.6338 12.7727 41.6338 12.7727C41.6338 12.7727 41.5824 12.7727 41.4796 12.7727C41.3768 12.7727 41.5824 12.5912 41.6852 12.4097C41.7623 12.2541 41.6852 12.2023 41.6852 12.1245C41.6852 12.0207 41.6852 11.917 41.6852 11.917C41.6852 11.917 41.3511 12.1245 41.2483 12.0726C41.1712 12.0207 41.1969 11.9689 41.1198 12.0207C41.0427 12.0726 40.8628 12.3579 40.8371 12.2541C40.8114 12.1504 40.8371 11.9689 40.76 12.0467C40.6829 12.1245 40.3745 12.4875 40.3231 12.4097C40.246 12.3319 40.3231 12.2282 40.2717 12.2282C40.1432 12.1763 39.9119 12.669 39.8605 12.6172C39.8091 12.5653 39.9119 12.4616 39.8605 12.4616C39.732 12.3838 39.475 12.9283 39.3979 12.8765C39.3208 12.8505 39.3208 12.695 39.2951 12.695C39.2437 12.695 39.2437 12.7468 39.218 12.9543C39.1923 13.1617 39.0381 13.2136 39.0124 13.1617C39.0124 13.1099 38.9353 13.058 38.9096 13.1876C38.9096 13.3432 38.961 13.5766 38.9096 13.5248C38.8325 13.4729 38.8068 13.4988 38.8068 13.4988C38.8068 13.4988 38.9096 13.7581 38.8068 13.8619C38.704 13.9656 38.8068 14.2768 38.8068 14.3027C38.8068 14.3027 39.3465 14.7176 39.1152 14.7435C38.8839 14.7435 38.4213 14.562 38.4213 14.562C38.4213 14.562 38.4984 14.4064 38.4984 14.3805C38.4984 14.3545 38.4984 14.3286 38.447 14.2768C38.447 14.173 38.3185 13.7841 37.9844 13.8359C37.6503 13.9137 37.7531 14.4323 37.7531 14.4323C37.7531 14.4323 37.3162 14.3805 37.2134 14.3546C37.162 14.2508 36.8022 14.0174 36.8022 14.0174L36.1083 13.5507C36.1083 13.5507 36.8022 13.1099 37.2134 12.7727C37.6246 12.4616 38.0358 11.8392 38.1129 11.7614C38.1643 11.6836 38.6012 11.0354 38.6783 10.6464C38.7811 10.2574 38.8582 10.4908 38.9096 10.6205C38.961 10.7242 39.0124 10.6205 39.0638 10.6205C39.1152 10.6205 39.218 10.802 39.2694 10.9316C39.3208 11.0613 39.2694 11.0354 39.4493 11.0094C39.6035 10.9835 39.7063 11.0613 39.7577 11.1391C39.8091 11.2169 39.8348 11.165 39.8862 11.1391C39.9119 11.0872 40.0661 11.1391 40.1689 11.2428C40.2717 11.3206 40.2974 11.2947 40.2974 11.2428C40.2974 11.2169 40.4002 11.1909 40.5287 11.3206C40.6829 11.4503 40.6572 11.3725 40.6572 11.3725C40.6572 11.3725 40.6315 11.2428 40.6829 11.2169C40.7343 11.1909 40.7343 11.2687 40.9399 11.4503C41.1455 11.6318 41.1455 11.554 41.1455 11.554C41.1455 11.554 41.1712 11.4762 41.1969 11.4243C41.1969 11.3725 41.3254 11.3206 41.3768 11.5021C41.4282 11.7096 41.5053 11.7874 41.531 11.7355C41.531 11.6836 41.531 11.4503 41.531 11.2428C41.531 11.0354 41.5824 11.0354 41.6081 11.0872C41.6081 11.1391 41.7109 11.165 41.7109 11.0872C41.7109 11.0094 41.6081 10.9057 41.5824 10.8538C41.5567 10.8279 41.4796 10.6723 41.5824 10.6464C41.7109 10.6464 41.6595 10.5945 41.6338 10.5427C41.6081 10.5167 41.3511 10.3352 41.4796 10.2056C41.5824 10.0759 41.531 10.024 41.531 10.024C41.531 10.024 41.3511 9.89439 41.3768 9.76473C41.3768 9.60915 41.3768 9.60915 41.3768 9.60915C41.3768 9.60915 41.2483 9.53135 41.1455 9.42763C41.0427 9.3239 41.1198 9.29797 41.0427 9.27204C40.9656 9.22018 41.0427 9.09052 41.0427 9.09052C41.0427 9.09052 40.8885 9.06459 40.8114 8.9868C40.7343 8.93494 40.8114 8.93494 40.7086 8.83121C40.6058 8.70156 40.1689 8.59783 40.1689 8.59783C40.1689 8.59783 40.2717 8.44224 40.2717 8.33852C40.2717 8.20886 40.2717 8.18293 40.1946 8.07921C40.1175 7.97548 40.246 7.92362 40.246 7.92362C40.246 7.92362 40.4002 7.92362 40.5544 7.92362C40.7086 7.92362 40.5801 7.8199 40.5801 7.8199L40.4773 7.7421C40.4773 7.7421 40.7086 7.63838 40.8885 7.61245C41.0684 7.61245 40.9142 7.50872 40.9142 7.50872C40.9142 7.50872 40.8628 7.50872 40.76 7.45686C40.6829 7.43093 41.1712 7.30127 41.2997 7.19755C41.4025 7.09382 41.3511 7.11975 41.3511 7.11975C41.3511 7.11975 41.1969 7.14569 41.1198 7.11975C41.0427 7.11975 41.1198 7.01603 41.3511 6.91231C41.5824 6.80858 41.4796 6.80858 41.4796 6.80858C41.4796 6.80858 41.4025 6.83451 41.3254 6.80858C41.2226 6.80858 41.4025 6.60113 41.4796 6.54927C41.4796 6.54927 41.8137 6.34182 41.6595 6.34182C41.6595 6.34182 41.5567 6.34182 41.4796 6.34182C41.4025 6.34182 41.7109 6.05658 41.7623 5.95285C41.8137 5.84913 41.788 5.79727 41.7623 5.79727C41.7623 5.79727 41.7109 5.79727 41.6595 5.77133C41.6081 5.77133 41.6595 5.66761 41.7366 5.58982C41.788 5.51202 41.788 5.43423 41.7366 5.46016C41.6852 5.46016 41.6595 5.38237 41.6852 5.3305C41.7109 5.27864 41.8908 5.14899 41.9679 5.12306C42.0193 5.07119 41.9936 5.04526 41.8908 5.04526C41.788 5.04526 41.5567 4.94154 41.4539 4.94154C41.3511 4.94154 41.1969 4.9934 41.1969 4.94154C41.1969 4.91561 41.2226 4.83781 41.1969 4.78595C41.1455 4.73409 40.7343 5.09712 40.6572 5.07119C40.6058 5.04526 40.7343 4.94154 40.6572 4.88967C40.5544 4.83781 40.2203 5.22678 40.1175 5.17492C40.0918 5.17492 40.1175 5.12306 40.0918 5.07119C40.0404 5.01933 39.8091 5.38237 39.732 5.35644C39.6549 5.3305 39.6806 5.27864 39.6292 5.27864C39.475 5.20085 39.4236 5.79727 39.3465 5.79727C39.2694 5.79727 39.2951 5.69354 39.1666 5.66761C39.0381 5.64168 39.0124 6.47148 38.8582 6.47148C38.704 6.47148 38.8068 6.31589 38.6526 6.28996C38.4984 6.28996 38.7554 7.01603 38.6526 7.01603C38.5498 7.01603 38.3956 7.27534 38.3185 7.27534C38.2414 7.27534 38.1386 7.01603 38.1129 7.01603C38.0872 7.01603 38.1129 7.17162 38.0358 7.14569C37.9587 7.14569 37.7274 6.80858 37.676 6.78265C37.6246 6.78265 37.676 6.91231 37.5732 6.91231C37.4704 6.91231 37.1877 6.70486 37.1106 6.73079C37.0335 6.75672 37.1877 6.93824 37.0335 6.93824C36.8793 6.93824 36.5195 6.73079 36.4938 6.73079C36.4681 6.73079 36.5966 6.88637 36.5195 6.93824C36.4681 6.9901 36.134 6.88637 36.0569 6.83451C35.9798 6.78265 35.9798 6.86044 36.0055 6.91231C36.0312 6.93824 36.0569 6.9901 36.0055 7.11975C35.9284 7.24941 35.4144 7.14569 35.3373 7.27534C35.2602 7.37907 35.8256 7.58652 35.7742 7.63838C35.7485 7.69024 35.6714 7.63838 35.6457 7.69024C35.5943 7.76803 35.9541 8.00141 35.9027 8.05328C35.8513 8.10514 35.7742 8.05328 35.7228 8.07921C35.6714 8.13107 36.2368 8.59783 36.2111 8.64969C36.2111 8.67563 35.9798 8.5719 36.0055 8.70156C36.0312 8.85714 36.4167 8.90901 36.4681 8.9868C36.5452 9.06459 36.3653 9.03866 36.391 9.09052C36.4167 9.14239 36.5195 9.14239 36.6223 9.19425C36.7251 9.24611 36.6223 9.3239 36.6737 9.37577C36.7508 9.42763 36.905 9.37577 36.9307 9.42763C36.9307 9.50542 36.7508 9.50542 36.8279 9.55728C36.905 9.60915 37.1363 9.66101 37.2134 9.68694C37.3162 9.71287 37.2905 9.79067 37.2905 9.79067C37.2905 9.79067 37.7274 9.7388 37.7531 9.79067C37.8559 9.94625 38.0358 9.89439 38.0615 9.86846L38.4727 9.66101C38.4727 9.66101 38.5241 10.2834 38.0358 10.9576C37.9073 11.2169 37.5218 11.943 37.5218 11.7096C37.5218 11.4503 37.2134 11.3984 37.1363 11.3725C37.0592 11.3725 36.9307 11.3984 36.8022 11.6058C36.6737 11.7874 36.8536 11.943 36.9564 12.0467C36.8279 12.7987 35.5686 13.1876 35.5686 13.1876C35.5686 13.1876 34.335 12.695 34.0266 12.5394C33.7439 12.4097 33.7439 12.1245 33.7439 12.1245C33.7439 12.1245 33.9752 11.943 33.8981 11.7874C33.821 11.4762 33.6411 11.3465 33.4355 11.3465C33.4355 11.3465 33.1528 11.5021 33.1785 11.943C32.7673 11.6058 32.3047 10.413 32.3047 10.413C32.3047 10.413 31.9192 9.27204 31.9706 9.22018C32.022 9.19425 32.0991 9.29797 32.1762 9.3239C32.2533 9.37577 32.3304 9.47949 32.3047 9.4017C32.279 9.29797 32.4075 9.19425 32.4589 9.16832C32.5103 9.16832 32.7673 9.29797 32.8187 9.27204C32.8444 9.24611 32.8187 9.06459 32.8187 9.14239C32.8444 9.19425 33.1528 9.19425 33.1528 9.14239C33.1528 9.09052 33.1271 9.03866 33.1528 8.9868C33.1528 8.96087 33.6925 8.9868 33.6668 8.93494C33.6411 8.85714 33.4612 8.80528 33.5897 8.80528C33.7182 8.80528 33.9238 8.80528 33.8467 8.72749C33.8467 8.67562 33.7696 8.62376 33.7953 8.62376C33.8467 8.52004 34.2579 8.54597 34.2065 8.41631C34.2065 8.39038 34.1294 8.41631 34.1037 8.33852C34.1037 8.26073 34.4635 8.10514 34.4635 8.07921C34.4635 8.05328 34.4635 8.02735 34.4635 7.94955C34.4635 7.87176 34.6177 7.8199 34.6177 7.76803C34.6177 7.71617 34.5406 7.71617 34.592 7.66431C34.6177 7.61245 34.7205 7.63838 34.8233 7.58652C34.9261 7.53465 34.9518 7.48279 34.9004 7.48279C34.849 7.48279 34.7462 7.37907 34.6434 7.27534C34.5663 7.17162 34.3864 7.22348 34.335 7.22348C34.2836 7.22348 34.335 7.14569 34.2836 7.06789C34.2322 6.9901 33.8724 7.14569 33.821 7.09382C33.7696 7.04196 33.8981 6.9901 33.821 6.91231C33.7696 6.83451 33.3584 7.01603 33.3327 6.9901C33.2813 6.96417 33.3584 6.93824 33.307 6.86044C33.2299 6.78265 33.0243 7.06789 32.9472 7.01603C32.8701 6.96417 32.9215 6.88637 32.8444 6.83451C32.7673 6.78265 32.4846 7.17162 32.4075 7.22348C32.3304 7.27534 32.4075 7.06789 32.3304 7.01603C32.2533 6.96417 32.0734 7.3272 32.0734 7.3272C32.0734 7.3272 32.0734 7.04196 31.8421 6.91231C31.7136 6.83451 31.6365 6.80858 31.5851 6.80858C31.5851 6.67893 31.6365 6.52334 31.6365 6.31589C31.5594 6.41961 31.5337 6.39368 31.508 6.36775C31.508 6.36775 31.4566 5.84913 31.3795 5.77133C31.3795 5.84913 31.3795 5.87506 31.3024 5.97878C31.251 6.08251 31.0968 5.43423 30.9683 5.35644C30.9426 5.46016 30.8655 5.53795 30.8655 5.53795C30.8655 5.53795 30.737 5.30457 30.6599 5.17492C30.6599 5.17492 30.6599 5.22678 30.6085 5.30457C30.5828 5.3305 30.3515 4.96747 30.223 4.86374C30.0945 4.78595 30.223 4.9934 30.1459 4.9934C30.0431 4.9934 29.7347 4.60443 29.7347 4.60443C29.7347 4.60443 29.7347 4.78595 29.709 4.81188C29.6576 4.81188 29.4006 4.5785 29.1693 4.5785C29.1693 4.63036 29.2464 4.70816 29.2464 4.70816C29.2464 4.70816 29.2464 4.68223 28.5525 4.65629C28.4497 4.65629 28.3983 4.70816 28.424 4.73409L28.4754 4.86374ZM35.4401 17.2329C35.4401 17.2329 35.1831 17.2329 35.106 16.8699C35.0289 16.5068 35.4401 15.5474 35.4401 15.5474C35.4401 15.5474 35.877 16.4809 35.7742 16.8699C35.6971 17.2329 35.5172 17.2329 35.4401 17.2329ZM36.2368 15.0806C36.2368 15.0806 36.4424 15.5215 36.4424 15.8326C36.4424 16.1697 36.4424 16.6106 36.5709 16.6106C36.6994 16.6106 36.6994 15.9104 36.6223 15.703C36.5709 15.4955 36.4424 15.0547 36.4424 15.0547C36.4424 15.0547 36.3139 15.0028 36.2111 15.0547L36.2368 15.0806ZM35.0032 14.3805L35.5686 14.6139C35.5686 14.6139 35.877 14.5101 36.0055 14.5361C36.1083 14.5361 35.4401 14.2249 35.4401 14.2249C35.4401 14.2249 35.3116 14.3286 35.0289 14.3805H35.0032ZM34.3093 14.925C34.3093 14.925 33.9752 15.5215 34.1037 16.2475C34.2322 16.9736 34.0009 15.7548 34.849 15.0806C34.9261 15.0028 34.3607 14.8472 34.3093 14.925ZM39.3722 15.4696C39.3722 15.4696 39.4493 15.5992 39.475 15.6511C39.5264 15.7289 39.5521 15.7548 39.6292 15.7548C39.732 15.7548 39.6806 15.7548 39.5778 15.6252C39.475 15.4955 39.2694 15.3659 39.3465 15.4696H39.3722ZM40.3231 17.1033C40.3231 17.1033 40.4259 17.1033 40.4773 17.181C40.5287 17.2848 40.6829 17.3626 40.6315 17.207C40.5801 17.0773 40.5544 17.0255 40.503 16.9995C40.4259 16.9736 40.2203 16.9995 40.3231 17.1033ZM30.2487 16.6106C30.2487 16.6106 30.223 16.5328 30.2487 16.3772C30.3001 16.2475 30.1716 15.9364 30.5057 15.7289C30.8141 15.4955 30.7884 15.5992 30.8141 15.6511C30.8141 15.677 30.8141 15.703 30.737 15.7548C30.6599 15.8067 30.5828 15.9882 30.5314 16.066C30.5057 16.1438 30.3258 16.429 30.3001 16.4809C30.3001 16.5068 30.3001 16.5587 30.3515 16.5328C30.4286 16.5068 30.4543 16.5328 30.4029 16.6106C30.3515 16.6884 30.3515 16.7921 30.1973 16.6365L30.2487 16.6106Z" fill="#231F20"/>
<path fill-rule="evenodd" clip-rule="evenodd" d="M30.3001 8.39038C30.3001 8.39038 30.1459 8.44224 30.1459 8.59783C30.1459 8.77935 30.2487 8.80528 30.2744 8.80528C30.3258 8.80528 30.4543 8.72749 30.4286 8.54597C30.4286 8.36445 30.2744 8.39038 30.2744 8.39038H30.3001ZM30.5571 8.39038C30.5571 8.39038 30.6085 8.59783 30.5571 8.67563C30.5057 8.75342 30.48 8.90901 30.5571 8.88307C30.6342 8.85714 30.7627 8.77935 30.737 8.5719C30.737 8.36445 30.5057 8.31259 30.5314 8.41631L30.5571 8.39038ZM30.737 8.07921C30.737 8.07921 30.737 7.97548 30.7884 8.00141C30.8398 8.00141 30.8655 8.07921 30.8655 8.157C30.8655 8.20886 30.9426 8.31259 30.9683 8.39038C31.0197 8.46818 31.0454 8.62376 30.9683 8.5719C30.8912 8.52004 30.737 8.36445 30.6856 8.33852C30.6342 8.28666 30.5314 8.33852 30.5571 8.26073L30.737 8.07921ZM31.251 7.79396C31.251 7.79396 31.251 7.87176 31.2767 7.92362C31.3024 8.00141 31.3281 8.07921 31.3538 8.00141C31.3795 7.94955 31.4566 7.8199 31.3795 7.79396C31.3281 7.7421 31.251 7.71617 31.2253 7.79396H31.251ZM31.508 7.56058C31.508 7.56058 31.6108 7.61245 31.7136 7.63838C31.8421 7.66431 31.9449 7.69024 31.9449 7.7421C31.9449 7.79397 31.8164 7.92362 31.5594 7.79396C31.4052 7.71617 31.4052 7.48279 31.508 7.56058ZM31.7136 7.17162C31.7136 7.17162 31.8421 7.17162 31.8935 7.22348C31.9449 7.30127 32.022 7.405 31.9706 7.50872C31.9192 7.61245 31.765 7.53465 31.7393 7.50872C31.7393 7.48279 31.5337 7.43093 31.5594 7.35314C31.6108 7.27534 31.6365 7.14569 31.6879 7.17162H31.7136ZM29.1436 15.7808C29.1436 15.7808 29.2721 15.7808 29.3235 15.8586C29.3749 15.9364 29.3749 16.1179 29.3235 16.1697C29.2464 16.2216 28.9637 16.2475 28.9637 16.0401C28.9637 15.8586 29.1436 15.7548 29.1436 15.7548V15.7808ZM29.2464 15.6511C29.2464 15.6511 29.5034 15.6511 29.5548 15.7548C29.6062 15.8586 29.6062 16.066 29.5548 16.1438C29.4777 16.1957 29.5034 16.1438 29.452 15.9882C29.4263 15.8326 29.2978 15.7289 29.2207 15.703C29.1179 15.703 29.2464 15.6511 29.2464 15.6511ZM32.3304 13.7841C32.3304 13.7841 32.536 13.8878 32.6131 13.8619C32.6902 13.8619 32.7159 13.7841 32.6645 13.7063C32.6131 13.6285 32.6131 13.5248 32.536 13.4988C32.4589 13.4988 32.3304 13.6025 32.3304 13.6025C32.3304 13.6025 32.2276 13.7063 32.3304 13.7581V13.7841ZM32.2019 13.81C32.2019 13.81 32.3304 13.8878 32.4075 13.9397C32.5103 13.9656 32.6645 13.9397 32.6902 13.9397C32.8444 14.0434 32.6388 14.1471 32.4332 14.0952C32.279 14.0952 32.1248 14.0174 32.1762 13.81H32.2019ZM29.8375 16.8699C29.8375 16.8699 30.0688 16.8439 30.1973 16.8699C30.3258 16.9217 30.3515 16.7143 30.0945 16.6624C29.8375 16.6106 29.6576 16.818 29.8118 16.8439L29.8375 16.8699ZM29.8632 16.9736C29.8632 16.9736 30.1716 16.9477 30.223 16.9736C30.3001 17.0255 30.3258 17.2588 30.1202 17.2588C29.9146 17.2588 29.8889 17.2588 29.8632 16.9736ZM33.3841 11.917C33.3841 11.917 33.3327 11.7355 33.4869 11.6577C33.6154 11.5799 33.7696 11.7355 33.7953 11.7874C33.821 11.8652 33.7953 11.9689 33.7182 11.943C33.6411 11.943 33.3841 12.0207 33.3841 11.917ZM33.3584 12.0207C33.3584 12.0207 33.564 12.0726 33.6925 12.0207C33.7953 11.9948 33.8724 11.9689 33.8724 11.9689C33.8724 11.9689 33.9752 12.0207 33.8724 12.0985C33.7953 12.1763 33.7182 12.2282 33.6154 12.2282C33.5383 12.2282 33.2299 12.1763 33.3327 11.9948L33.3584 12.0207ZM39.7577 8.36445C39.7577 8.36445 39.6549 8.59783 39.9119 8.70156C40.1432 8.80528 40.3488 8.52004 40.2717 8.36445C40.2203 8.20886 40.1175 8.157 39.9633 8.20886C39.8091 8.26073 39.7577 8.36445 39.7577 8.36445ZM38.704 7.94955C38.704 7.94955 38.704 8.00141 38.8582 7.84583C38.9867 7.71617 39.0638 7.63838 39.0638 7.56058C39.0895 7.43093 39.2437 7.87176 39.0381 8.00141C38.9096 8.10514 38.6269 8.05328 38.704 7.92362V7.94955ZM38.4984 7.43093C38.7297 7.22348 38.961 7.53465 38.961 7.53465C38.961 7.53465 38.9353 7.66431 38.8325 7.7421C38.7297 7.8199 38.6526 7.87176 38.6526 7.87176C38.6526 7.87176 38.2928 7.63838 38.5241 7.43093H38.4984ZM36.9564 11.943C36.9564 11.943 37.0592 11.9689 37.2134 11.9948C37.3676 11.9948 37.4961 12.0207 37.4961 12.0207C37.4961 12.0207 37.4961 12.1763 37.2391 12.1504C37.0078 12.0985 36.9564 12.0985 36.9564 11.9689V11.943ZM37.0078 11.7096C37.0078 11.7096 37.0592 11.6577 37.1363 11.6577C37.2134 11.6577 37.3676 11.6577 37.4447 11.8133C37.5475 11.9689 37.3419 11.943 37.2391 11.943C37.1363 11.943 36.905 11.917 36.9821 11.7355L37.0078 11.7096ZM29.3749 33.4399C29.3749 33.4399 29.2207 32.662 30.2744 31.9359C30.7627 31.5988 31.4052 31.4173 31.6108 31.2357C31.8164 31.0542 32.4332 30.5875 32.4846 30.4578C32.536 30.3281 32.4589 30.2244 32.279 30.4059C32.0991 30.5875 31.508 31.0024 31.1739 31.0283C30.8398 31.0283 29.709 31.5728 29.6319 31.8062C29.5548 32.0137 29.5805 31.2357 30.2487 30.8727C31.1225 30.2244 32.022 29.9392 32.2533 29.8095C32.4589 29.6799 33.6668 29.0575 34.0009 28.5908C34.335 28.124 34.4892 27.8647 34.5406 27.1645C34.592 26.4644 34.5663 24.338 34.5663 24.338L34.5149 22.2376C34.5149 22.2376 34.335 20.9411 34.335 20.7595C34.335 20.578 34.335 19.1777 34.4121 18.8147C34.4892 18.4517 33.821 17.1551 33.7953 17.1292C33.7953 17.1292 33.4869 16.3253 33.4612 16.0141C33.3841 15.3918 33.6668 14.7954 33.6668 14.7954L34.1551 14.8991C34.1551 14.8991 33.8467 15.6511 33.9238 16.0141C34.0009 16.4031 34.1294 16.9217 34.1294 16.9217C34.1294 16.9217 34.335 17.0255 34.3093 16.818C34.3093 16.6365 34.3607 16.2735 34.6177 15.7289C34.8747 15.1843 35.2602 14.925 35.8513 14.7435C36.4424 14.5879 37.1877 14.6398 37.1877 14.6398C37.1877 14.6398 38.0358 14.5879 39.1152 15.0028C39.2437 15.0028 39.4493 14.9769 39.4493 14.9769C39.4493 14.9769 39.5007 15.2362 39.6806 15.3399C39.8605 15.4437 40.3745 15.7808 40.4516 15.8586C40.5287 15.9364 40.6058 15.9623 40.6315 15.9882C40.6829 15.9882 40.7343 16.3253 40.7857 16.455C40.9142 16.818 40.8885 16.9217 40.8885 16.9217C40.8885 16.9217 40.7857 16.9477 40.6829 16.9217C40.8371 16.9995 40.4516 16.0401 40.1689 15.7548C39.9376 15.4955 39.3208 15.1325 38.704 14.925C38.0872 14.7435 36.9307 14.7176 36.6737 14.7694C36.4167 14.8472 35.1317 14.925 34.9775 16.2994C34.7976 17.6737 35.5429 17.4922 35.5429 17.4922C35.5429 17.4922 36.1083 17.5441 36.0312 16.5846C35.9541 15.6252 35.6457 15.3659 35.6457 15.3659C35.6457 15.3659 35.7228 15.2362 35.9027 15.2103C36.0569 15.1843 36.1597 15.2103 36.1597 15.2103C36.1597 15.2103 36.391 15.703 36.4167 16.2735C36.4167 16.8699 36.5452 16.9217 36.648 16.9217C36.7508 16.9217 37.0592 16.6884 36.8793 15.6511C36.7765 15.1066 36.7508 14.9769 36.7508 14.9769C36.7508 14.9769 36.9564 14.925 37.1363 14.951C37.2905 14.951 37.419 14.951 37.419 14.951C37.419 14.951 37.4704 15.9104 37.3933 16.2475C37.3162 16.5846 37.0849 17.4922 36.9307 17.8034C36.7765 18.1146 36.4938 18.8147 36.5966 19.074C36.6994 19.3333 36.8536 20.0335 36.8793 20.3706C36.8793 21.4338 36.4681 21.7709 36.4424 22.2376C36.4424 22.6785 36.4424 24.0528 36.4424 24.0528L36.5195 25.7383C36.5195 25.7383 36.6223 27.6054 36.6737 27.735C36.7251 27.8647 37.0335 28.3574 37.5732 28.7204C38.1129 29.0575 38.9353 29.3428 40.0404 29.3687C40.5287 29.3687 40.76 29.3168 40.76 29.3168C40.76 29.3168 40.9656 29.2131 40.76 29.5243C40.5287 29.8355 40.2717 30.1466 40.0147 30.1726C39.7577 30.1726 39.1666 29.8873 38.961 29.8873C38.7297 29.8873 38.2671 29.7836 38.2671 30.4059C38.2671 31.0283 38.5241 31.5728 38.1129 32.3767C37.9587 32.5842 38.0615 32.0915 37.933 31.6766C37.8045 31.2617 37.6246 31.1839 37.7274 31.0542C37.8045 30.9246 38.0615 29.991 37.3419 29.8355C36.8022 29.8355 36.7251 30.5097 36.7765 30.5875C36.8536 30.6653 37.1877 31.2357 37.2648 31.4173C37.3162 31.6247 37.4961 32.5842 37.0849 33.414C37.0849 32.4545 36.9564 32.4286 36.7251 31.9618C36.5195 31.495 36.2625 31.7025 36.2625 31.132C36.2625 30.5615 36.5452 29.5502 35.7999 29.4983C35.2345 29.5761 35.4915 30.8468 35.4915 31.0802C35.4915 31.3135 35.363 31.9877 35.0546 32.1952C34.7719 32.4026 34.9261 32.9472 34.9261 33.1806C34.9261 33.414 34.7462 34.2956 34.6434 34.4512C34.5406 34.6068 34.6434 33.4918 34.335 32.6879C34.2322 32.273 34.4635 31.8581 34.5149 31.7025C34.5406 31.5728 34.6434 30.3541 34.6177 30.0429C34.6177 29.7317 34.5406 29.5243 34.4121 29.5761C34.3093 29.6539 34.3864 29.8873 34.3607 29.991C34.3607 30.0948 34.2322 30.1985 34.0009 30.3541C33.7696 30.5097 32.5617 31.3135 32.3047 31.4173C32.022 31.521 30.6856 31.9618 30.48 32.1174C30.2744 32.273 29.7604 32.662 29.6833 32.9213C29.4006 33.4399 29.5291 33.7511 29.452 33.388L29.3749 33.4399ZM29.1436 17.4144C29.1436 17.0773 29.452 16.5328 29.7604 16.1438C29.7604 16.0141 29.709 15.8845 29.709 15.8845C29.709 15.8845 29.7604 15.8067 29.8632 15.7808C29.966 15.7548 30.1202 15.7808 30.1716 15.7548C30.223 15.703 30.5571 15.1584 31.4566 14.8213C31.9706 14.5879 32.3818 14.3805 32.3818 14.3546C32.3818 14.3546 32.3304 14.0693 32.5874 14.199C32.8444 14.3286 32.9215 14.199 33.1271 14.2249C33.307 14.2249 34.5663 14.3286 35.3373 14.6917C35.2602 14.7694 35.0803 14.8732 35.0803 14.8732C35.0803 14.8732 34.1037 14.562 33.2042 14.4842C32.3047 14.4323 31.765 14.8213 31.5337 14.9769C31.3024 15.1325 31.1225 15.3399 31.1482 15.5474C31.1739 15.7548 31.0711 15.677 30.994 15.4955C30.9169 15.314 30.5057 15.3659 30.3772 15.5733C30.2487 15.8067 30.0431 15.9882 30.0688 16.2216C30.0688 16.455 30.0174 16.4809 29.9917 16.3253C29.9403 16.1697 29.8632 16.1438 29.8118 16.3253C29.5548 16.5587 29.2721 17.1292 29.2464 17.4144C29.195 17.4144 29.195 17.4144 29.1693 17.4144H29.1436ZM40.246 17.2329C40.246 17.2329 40.2974 17.1551 40.3745 17.2329C40.4516 17.2848 40.5544 17.4144 40.503 17.4663C40.4516 17.5182 40.2974 17.5182 40.246 17.4663C40.1432 17.3366 40.246 17.2329 40.246 17.2329ZM41.017 16.1438C41.017 16.1438 40.9142 16.0401 41.017 15.8845C41.1455 15.7289 41.2483 15.7808 41.274 15.7548C41.2997 15.7548 41.3511 15.7548 41.2483 15.9104C41.1455 16.066 41.1198 16.2735 41.0941 16.2216C41.0684 16.1697 41.017 16.1438 41.017 16.1438ZM41.6081 16.066C41.6081 16.066 41.5567 16.1957 41.4796 16.2475C41.4025 16.2994 41.3254 16.3513 41.274 16.2475C41.2226 16.1438 41.274 16.0401 41.3511 15.9623C41.4539 15.8845 41.6081 15.8586 41.6081 16.066ZM34.2579 14.2249C34.2579 14.2249 34.2065 14.1471 34.8233 13.9397C35.4401 13.7322 36.1597 13.3951 36.4167 13.1617C36.9307 12.8765 37.0078 12.695 37.162 12.3838C37.3162 12.0467 37.2648 12.2801 37.3676 12.3319C37.4704 12.3838 37.7274 12.1245 37.8816 11.917C38.0358 11.6836 38.2414 11.3465 38.3699 11.0613C38.4984 10.776 38.7297 10.024 38.7297 9.60915C38.7297 9.47949 38.8325 9.50542 38.8325 9.50542C38.8325 9.50542 39.0381 9.34984 39.0381 9.14239C39.0381 8.93494 39.1409 8.36445 39.2437 8.23479C39.3208 8.10514 39.3979 8.07921 39.3208 8.33852C39.2437 8.62376 39.0638 9.27204 39.1923 9.4017C39.2951 9.53135 39.2694 9.53135 39.1409 9.55728C38.9867 9.55728 38.8839 9.76473 38.8582 9.99812C38.8325 10.2315 38.5755 11.3465 37.933 12.1245C37.2648 12.9024 35.7228 14.0434 34.5406 14.3546C34.4378 14.3027 34.2579 14.2768 34.2579 14.2768V14.2249ZM35.62 14.0952L36.2625 14.4583L36.9821 14.4064L36.1083 13.81L35.62 14.0693V14.0952ZM38.0101 14.2508C38.0101 14.2508 38.0101 14.0693 38.1643 14.0434C38.3442 14.0434 38.3699 14.1471 38.4213 14.199C38.447 14.2508 38.3185 14.3286 38.2157 14.3286C38.1129 14.3286 38.0101 14.3286 38.0101 14.2249V14.2508ZM38.0358 14.4583C38.0358 14.4583 38.1643 14.5361 38.2671 14.4583C38.3699 14.4064 38.447 14.3545 38.4727 14.3805C38.5241 14.4064 38.4984 14.5879 38.3442 14.6139C38.19 14.6139 37.9587 14.5879 38.0358 14.4323V14.4583ZM30.8141 8.77935C30.8141 8.77935 31.3538 8.88307 31.5337 9.16832C31.7136 9.45356 31.9706 10.7501 31.9706 10.7501C31.9706 10.7501 32.2019 11.917 32.8444 12.3319C33.5126 12.9802 34.8233 13.6803 34.8233 13.6803L35.4401 13.447C35.4401 13.447 34.1294 12.9802 33.8981 12.7987C33.6668 12.6172 33.6154 12.3579 33.6154 12.3319C33.6154 12.306 33.5383 12.3319 33.3327 12.3319C33.1014 12.2801 32.5617 11.7355 32.4332 11.2428C32.3047 10.7761 31.6365 9.29797 31.5851 8.77935C31.5337 8.28666 31.6365 8.28666 31.6365 8.28666H31.508C31.508 8.28666 31.5851 8.44224 31.508 8.49411C31.4052 8.54597 31.3024 8.52004 31.3024 8.52004C31.3024 8.52004 31.3281 8.70156 31.1739 8.70156C30.994 8.70156 30.8141 8.70156 30.8141 8.70156V8.77935ZM30.2744 32.5323C30.2744 32.5323 30.1202 33.3102 30.2744 33.7251C30.4029 34.14 30.5828 34.6327 30.5571 34.166C30.5571 33.6992 30.5828 33.3621 30.737 33.0769C30.8912 32.7916 30.9683 32.3767 30.9683 32.1693C30.9683 32.1174 30.2744 32.5323 30.2744 32.5323ZM31.8164 31.9359C31.8164 31.9359 31.7393 32.6101 31.8678 32.9472C31.9963 33.2843 32.4332 34.3734 32.4846 34.2956C32.536 34.2178 32.1762 32.4545 32.6388 31.4951C32.5874 31.4432 31.7907 31.9359 31.7907 31.9359H31.8164ZM38.8839 8.157C38.8839 8.157 38.8839 8.36445 38.8839 8.44224C38.8839 8.52004 38.961 8.54597 38.961 8.44224C38.961 8.33852 39.0381 8.18293 39.0895 8.10514C39.1409 8.05328 39.0895 8.02735 39.0381 8.07921C38.9867 8.13107 38.8582 8.157 38.8582 8.157H38.8839ZM39.4493 8.70156C39.4493 8.70156 39.3465 8.75342 39.3465 8.85714C39.3465 8.96087 39.4493 8.90901 39.5007 8.85714C39.5521 8.80528 39.5521 8.72749 39.5264 8.70156C39.5264 8.64969 39.4236 8.70156 39.4236 8.70156H39.4493ZM40.6058 17.4922C40.6058 17.4922 40.6572 17.4144 40.6829 17.3626C40.7086 17.3107 40.7857 17.2588 40.7857 17.3366C40.7857 17.4144 40.7857 17.5182 40.7857 17.5182C40.7857 17.5182 40.7857 17.57 40.7343 17.57C40.6829 17.57 40.5544 17.5959 40.6058 17.5182V17.4922Z" fill="#725244"/>
<path fill-rule="evenodd" clip-rule="evenodd" d="M38.9353 7.09382C38.9353 7.09382 39.0381 7.19755 39.0124 7.24941L38.8839 7.405C38.8839 7.405 39.1409 7.405 39.1923 7.50872C39.2437 7.61245 39.2694 7.61245 39.2694 7.61245C39.2694 7.61245 39.475 7.48279 39.5521 7.35314C39.6549 7.19755 40.1946 6.54927 40.2974 6.44554C40.4259 6.34182 41.1198 5.66761 41.1969 5.61575C41.274 5.56389 40.3231 6.54927 40.3231 6.5752C40.3231 6.60113 39.5778 7.35314 39.732 7.56058C39.8605 7.76803 39.8091 7.87176 39.8091 7.87176C39.8091 7.87176 39.6035 7.7421 39.5007 7.71617C39.3979 7.71617 39.2951 7.71617 39.2951 7.71617C39.2951 7.71617 39.2437 7.8199 39.2951 7.84583C39.3465 7.84583 39.5007 7.87176 39.5264 7.92362C39.5778 7.97548 39.7063 8.18293 39.8605 8.10514C40.0147 8.05328 40.0404 7.94955 40.0404 7.94955C40.0404 7.94955 40.4002 7.94955 40.4516 7.92362C40.5287 7.89769 40.4773 7.89769 40.3745 7.87176C40.246 7.87176 40.246 7.7421 40.246 7.7421C40.246 7.7421 40.6829 7.7421 40.76 7.71617C40.8371 7.69024 40.7857 7.69024 40.7086 7.69024C40.6058 7.69024 40.5544 7.61245 40.5544 7.56058C40.5544 7.50872 41.0427 7.48279 41.1455 7.405C41.2483 7.3272 41.1455 7.35314 40.9913 7.35314C40.8371 7.35314 40.8114 7.3272 40.8114 7.3272C40.8114 7.3272 41.2997 7.17162 41.3511 7.06789C41.4025 6.9901 41.3254 7.01603 41.2483 7.06789C41.1969 7.11975 40.9913 7.06789 40.9913 7.01603C40.9913 6.96417 41.4796 6.75672 41.5053 6.67893C41.5053 6.60113 41.4539 6.67893 41.4025 6.67893C41.3511 6.67893 41.2997 6.52334 41.4025 6.41961C41.5053 6.34182 41.6595 6.2381 41.6852 6.13437C41.7366 6.03065 41.7623 6.00471 41.7623 6.00471C41.7623 6.00471 41.6338 6.13437 41.6081 6.10844C41.5824 6.08251 41.5824 5.97878 41.7366 5.8232C41.8908 5.66761 41.7366 5.7454 41.6338 5.7454C41.531 5.7454 41.5053 5.69354 41.6081 5.58982C41.7109 5.48609 41.8137 5.3305 41.8137 5.3305C41.8137 5.3305 41.6081 5.3305 41.3768 5.38237C41.1712 5.43423 41.1198 5.3305 41.1455 5.27864C41.1455 5.22678 40.9913 5.35644 40.8885 5.46016C40.7857 5.56389 40.5801 5.61575 40.5801 5.46016C40.5801 5.30457 40.5801 5.30457 40.5801 5.30457C40.5801 5.30457 40.5801 5.27864 40.4259 5.43423C40.2974 5.58982 40.1689 5.79727 40.1175 5.7454C40.0661 5.69354 40.0147 5.64168 40.0147 5.61575C40.0147 5.56389 39.9633 5.61575 39.9633 5.71947C39.9633 5.79727 39.8348 6.03065 39.7834 5.97878C39.732 5.92692 39.6806 5.92692 39.6806 5.8232C39.6806 5.71947 39.6292 5.8232 39.6292 5.8232C39.6292 5.84913 39.475 6.08251 39.475 6.26403C39.475 6.44554 39.3465 6.26403 39.3208 6.18623C39.3208 6.08251 39.2694 6.13437 39.2437 6.18623C39.218 6.2381 39.1409 6.47148 39.1923 6.62706C39.2437 6.75672 39.0638 6.93824 38.961 6.83451C38.8325 6.75672 38.8068 6.70486 38.8068 6.75672C38.8068 6.80858 38.7811 7.04196 38.8839 7.14569L38.9353 7.09382ZM41.7366 12.5134C41.7366 12.5134 41.7366 12.4356 41.6595 12.4616C41.6081 12.4875 41.6595 12.3579 41.6595 12.2541C41.6595 12.1763 41.5567 12.2023 41.5053 12.2541C41.4282 12.3319 41.274 12.4616 41.274 12.4616C41.274 12.4616 41.2226 12.3579 41.274 12.2801C41.3254 12.2023 41.1712 12.306 41.1198 12.4097C41.0427 12.5134 40.9142 12.6431 40.8885 12.5912C40.8371 12.5394 40.8628 12.4875 40.8885 12.4356C40.8885 12.3838 40.8371 12.4097 40.7343 12.5653C40.6572 12.7209 40.4259 12.9024 40.4259 12.7727C40.4259 12.6431 40.4773 12.5394 40.2974 12.7209C40.1175 12.9024 40.0147 13.058 39.989 13.0839C39.989 13.0839 39.9119 13.1099 39.9119 13.0321C39.9119 12.9543 39.9376 12.8765 39.8862 12.9543C39.8348 13.0061 39.7063 13.1358 39.6806 13.2136C39.6806 13.2914 39.5778 13.2654 39.5521 13.2136C39.5521 13.1358 39.5007 13.2136 39.5007 13.2654C39.5007 13.3173 39.5264 13.4988 39.4493 13.4729C39.3722 13.4729 39.2951 13.421 39.2951 13.421C39.2951 13.421 39.218 13.421 39.3208 13.6025C39.4236 13.81 39.3208 13.7841 39.2694 13.8359C39.218 13.8878 39.1923 13.9397 39.2694 14.0174C39.3208 14.0693 39.3465 14.173 39.2951 14.199C39.2437 14.199 39.1152 14.0952 39.1152 14.173C39.1152 14.173 39.0895 14.2768 39.1666 14.3805C39.2437 14.4842 39.3465 14.6139 39.3979 14.6398C39.4493 14.6657 39.6292 14.6657 39.6806 14.7694C39.732 14.8472 39.8348 15.0288 40.0661 15.0547C40.2974 15.0547 40.3231 14.951 40.2974 14.8732C40.2974 14.7954 40.3745 14.7176 40.4773 14.7694C40.5544 14.8213 40.8628 14.8472 40.9913 14.7694C41.0941 14.6917 40.9399 14.7435 40.8628 14.7176C40.8114 14.7176 40.7343 14.4583 40.9399 14.3805C41.1455 14.3027 41.3511 14.2508 41.4796 14.0693C41.5824 13.8878 41.4796 13.9915 41.4025 14.0434C41.3511 14.0693 41.2226 13.9656 41.2997 13.9137C41.3768 13.8619 41.6081 13.81 41.6338 13.7063C41.6595 13.6285 41.5824 13.7063 41.5053 13.7063C41.4282 13.7063 41.4025 13.6544 41.5053 13.5507C41.6081 13.447 41.6338 13.421 41.6595 13.3432C41.6595 13.2654 41.6338 13.3432 41.531 13.3432C41.4282 13.3432 41.4539 13.2914 41.531 13.2136C41.6081 13.1358 41.6852 13.1099 41.6852 13.0321C41.6852 12.9543 41.6852 13.0061 41.6081 13.0321C41.5567 13.0321 41.4796 12.9543 41.6081 12.7987C41.7109 12.6431 41.788 12.6172 41.8137 12.4875L41.7366 12.5134ZM40.4773 13.447C40.4773 13.447 39.8862 14.173 39.9633 14.4323C40.0147 14.6917 40.0661 14.7435 40.0661 14.7435C40.0661 14.7435 40.0147 14.7954 39.9119 14.6139C39.8091 14.4323 39.7834 14.5361 39.732 14.5361C39.6806 14.5361 39.475 14.5361 39.5778 14.5101C39.5778 14.5101 39.6806 14.5101 39.7577 14.4323C39.8348 14.3545 39.9376 14.1212 39.989 14.0174C40.0404 13.9137 40.246 13.6025 40.503 13.2914C40.76 12.9802 41.1969 12.6172 41.1969 12.6172C41.1969 12.6172 40.5544 13.3173 40.503 13.421L40.4773 13.447ZM31.3024 9.58322C31.3024 9.58322 31.4309 9.79067 31.4309 9.84253C31.4309 9.89439 31.3795 9.92032 31.1482 9.84253C30.8912 9.7388 30.7884 9.92032 30.7884 9.92032C30.7884 9.92032 29.8889 10.3352 29.7604 10.413C29.6319 10.4908 29.2464 10.8538 29.195 10.9316C29.1436 11.0094 29.3235 10.6464 29.6576 10.3352C29.9917 10.05 30.48 9.94625 30.5828 9.84253C30.6856 9.7388 31.1225 9.68694 31.1739 9.27204C31.1739 9.27204 31.0454 8.9868 30.8655 8.93494C30.7113 8.88307 30.6085 8.88307 30.6342 9.03866C30.6599 9.19425 30.3258 8.93494 30.223 8.93494C30.1202 8.93494 30.0945 8.93494 30.1202 9.06459C30.1202 9.16832 29.6576 9.16832 29.5548 9.27204C29.452 9.34984 29.5548 9.3239 29.6319 9.37577C29.6833 9.42763 29.3749 9.47949 29.3492 9.55728C29.3235 9.60915 29.3492 9.63508 29.3492 9.66101C29.3235 9.68694 29.1436 9.84253 29.1179 9.86846C29.0922 9.89439 29.0665 9.92032 29.1179 9.94625C29.195 9.94625 29.2207 10.024 29.1693 10.0759C29.1179 10.1278 28.938 10.2315 28.938 10.2315C28.938 10.2315 28.8609 10.3093 29.0922 10.2315C29.3235 10.1537 29.1693 10.3612 29.0922 10.413C29.0151 10.4649 28.8609 10.6205 28.8352 10.6983C28.8352 10.776 28.8352 10.6983 28.9123 10.6983C28.9894 10.6983 29.0151 10.6723 28.9894 10.802C28.9894 10.9576 28.9894 11.165 29.0151 11.2169C29.0408 11.2428 29.0151 11.2947 29.1693 11.165C29.2464 11.0872 29.2978 11.1132 29.3749 11.165C29.452 11.165 29.5034 11.1132 29.5291 11.0613C29.5548 11.0094 29.6576 10.9316 29.6576 10.9316C29.6576 10.9316 29.6576 10.8538 29.7347 10.9316C29.8118 10.9835 29.8632 11.0354 29.8118 11.1132C29.7604 11.165 30.1459 10.9057 30.2487 10.9316C30.3515 10.9316 30.3258 11.1391 30.3258 11.1391C30.3258 11.1391 30.5828 10.9835 30.6342 11.0094C30.6856 11.0354 30.7113 11.1909 30.7113 11.1909C30.7113 11.1909 30.8141 11.0354 30.8655 11.0613C30.9426 11.0613 30.9169 11.165 30.994 10.9835C31.0711 10.802 31.1482 10.8538 31.1996 10.9576C31.251 11.0613 31.3024 10.6983 31.2767 10.6723C31.2767 10.6723 31.3281 10.4649 31.4052 10.5427C31.4823 10.6205 31.4309 10.5427 31.4566 10.3612C31.4566 10.1796 31.4566 10.1278 31.5337 10.1537C31.6108 10.1796 31.6365 9.94625 31.508 9.79067C31.3795 9.63508 31.1482 9.60915 31.251 9.71287L31.3024 9.58322ZM31.4823 12.5134C31.4823 12.5134 31.4052 12.5394 31.3281 12.5912C31.251 12.6431 31.1739 12.3838 31.1482 12.2282C31.1225 12.0726 31.0968 12.1763 31.0968 12.2282C31.0968 12.306 30.994 12.3838 30.9169 12.2023C30.8398 12.0207 30.6856 11.7874 30.6342 11.8392C30.5828 11.8911 30.737 11.8911 30.6342 12.0207C30.5571 12.1504 30.1716 11.9689 30.1202 11.8392C30.0688 11.7096 30.0688 11.8392 30.0688 11.917C30.0688 11.9948 29.6319 11.917 29.6319 11.7614C29.6319 11.6058 29.5548 11.7096 29.5034 11.8133C29.4263 11.9948 28.8095 11.7355 28.938 11.8392C28.938 11.8392 29.1179 11.9689 29.1693 12.0726C29.195 12.1763 29.1693 12.306 29.0665 12.2801C28.9637 12.2801 28.9637 12.4097 29.1436 12.6172C29.2978 12.8246 29.1436 12.8246 28.9894 12.7468C28.8609 12.669 29.3492 13.2914 29.4006 13.3692C29.452 13.421 29.3492 13.447 29.2464 13.421C29.1693 13.3951 29.2464 13.5248 29.5291 13.7581C29.6319 13.8359 29.4006 13.8359 29.4006 13.8359C29.4006 13.8359 29.3492 13.9137 29.7347 14.0174C29.8632 14.0434 29.6319 14.1212 29.6319 14.1212C29.6319 14.1212 29.7861 14.199 29.8375 14.2508C29.8889 14.2768 29.7347 14.4583 29.7347 14.4583C29.7347 14.4583 29.9917 14.4583 30.0688 14.4583C30.1459 14.4583 30.1459 14.562 30.0688 14.6398C29.9917 14.7176 30.1202 14.7176 30.3001 14.6917C30.48 14.6917 30.48 14.6917 30.48 14.7954C30.48 14.8991 30.5057 14.9769 30.7113 14.8732C30.9169 14.7694 30.8912 14.6139 31.0197 14.5879C31.1482 14.562 31.508 14.5101 31.5594 14.3546C31.6108 14.199 31.7907 14.0693 31.5594 13.9915C31.4566 13.9397 31.508 13.8619 31.5594 13.7322C31.6365 13.6025 31.7136 13.2395 31.6879 13.1099C31.6622 12.9802 31.5594 13.1617 31.4566 13.2136C31.3281 13.2654 31.4566 12.6431 31.4052 12.5653L31.4823 12.5134ZM31.508 14.2768C31.508 14.2768 31.251 14.2768 31.1225 14.3805C30.994 14.5101 30.9426 14.5101 30.994 14.4583C31.0454 14.4064 31.1996 14.2508 31.0711 13.9137C30.9426 13.5766 29.5291 12.0985 29.5291 12.0985C30.0945 12.6431 30.48 13.0061 30.737 13.2914C31.0711 13.6803 31.1482 13.9656 31.3795 14.1471C31.4052 14.173 31.5594 14.2768 31.508 14.2768ZM29.1436 5.38237C29.1436 5.53795 29.0151 5.48609 29.0151 5.48609C29.0151 5.48609 29.1436 5.7454 29.0408 5.84913C28.9637 5.95285 29.2464 6.08251 29.2464 6.26403C29.2464 6.44554 29.0408 6.39368 29.0922 6.47148C29.1436 6.54927 29.3749 6.73079 29.3749 6.73079C29.3749 6.73079 29.4006 6.80858 29.2721 6.88637C29.1436 6.93824 29.4263 7.04196 29.452 7.11975C29.452 7.19755 29.3235 7.14569 29.3235 7.19755C29.3235 7.24941 29.6062 7.405 29.6062 7.405C29.6062 7.405 29.709 7.48279 29.6062 7.50872C29.5034 7.53465 29.6062 7.58652 29.6576 7.63838C29.7347 7.69024 29.7604 7.69024 29.7347 7.79396C29.7347 7.89769 29.7861 7.89769 29.8632 7.97548C29.9146 8.02735 29.9146 8.10514 29.9146 8.13107C29.9146 8.157 30.1716 8.2348 30.3001 8.10514C30.4286 7.97548 30.5057 7.89769 30.5828 7.84583C30.6599 7.8199 30.6856 7.8199 30.737 7.7421C30.8141 7.66431 30.6856 7.7421 30.737 7.66431C30.7884 7.58652 30.7627 7.56058 30.8398 7.56058C30.9169 7.56058 31.0711 7.58652 31.1225 7.61245C31.1739 7.63838 31.3281 7.53465 31.3281 7.405C31.3281 7.27534 31.5337 6.80858 31.3281 6.34182C31.3024 6.44554 31.1482 6.49741 31.1482 6.49741C31.1482 6.49741 31.1482 6.03065 30.9683 5.77133C30.994 5.8232 30.8655 5.92692 30.8655 5.92692L30.6599 5.56389C30.6599 5.56389 30.6599 5.64168 30.6085 5.64168C30.5571 5.64168 30.3001 5.17492 30.3001 5.17492C30.3001 5.17492 30.2487 5.4083 30.2744 5.46016C30.2744 5.51202 29.966 5.17492 29.9146 5.09712C29.8632 5.04526 29.8889 5.22678 29.8889 5.22678C29.8889 5.22678 29.6319 4.9934 29.4263 4.96747C29.2207 4.96747 29.3749 5.04526 29.3749 5.04526C29.3749 5.04526 29.0665 4.91561 28.7838 4.91561C28.7838 4.91561 29.0922 5.20085 29.1179 5.3305L29.1436 5.38237ZM30.5314 6.75672C30.8912 7.30127 31.0197 7.17162 31.2253 7.27534C31.0711 7.27534 30.8912 7.405 30.8398 7.45686C30.7627 7.48279 30.6342 7.66431 30.6342 7.66431C30.6342 7.66431 30.6856 7.48279 30.6085 7.19755C30.5314 6.88637 29.4263 5.43423 29.4263 5.43423C29.7861 5.61575 30.5057 6.67893 30.5571 6.75672H30.5314ZM39.989 17.5441C40.0404 17.3107 39.989 17.3366 39.989 17.207C39.9633 17.0773 40.0661 16.9477 40.1689 17.0255C40.2717 17.1033 40.246 16.9217 40.1689 16.7661C40.1175 16.6106 39.9119 16.455 40.0661 16.4031C40.1946 16.3513 40.3231 16.4031 40.3231 16.4031C40.3231 16.4031 40.3488 16.3513 40.1432 16.2475C39.9376 16.1697 39.8862 16.0141 39.8605 15.9104C39.8605 15.8067 39.6035 15.9104 39.5264 15.8586C39.4493 15.7808 39.3722 15.5733 39.1666 15.4437C38.961 15.314 38.8582 15.3918 38.8839 15.3918C38.8839 15.3918 38.9096 15.4437 38.8582 15.5215C38.7811 15.5992 38.5241 15.5474 38.4213 15.5992C38.3185 15.6511 38.3956 15.5992 38.4727 15.6511C38.5755 15.703 38.5498 15.7289 38.5498 15.7289C38.5498 15.7289 38.1643 15.7808 38.0615 15.9104C37.9844 16.066 38.0615 15.9623 38.1386 15.9623C38.2157 15.9623 38.1386 16.1438 38.0615 16.1957C37.9844 16.2475 37.7788 16.3513 37.7788 16.4809C37.7788 16.6106 37.7788 16.4809 37.933 16.429C38.0872 16.3772 38.0101 16.6365 37.8816 16.7143C37.7531 16.7921 37.7017 16.8439 37.7017 16.9217C37.7017 16.9995 37.7017 16.9217 37.8045 16.8699C37.933 16.818 37.9073 16.8699 37.8045 16.9736C37.7017 17.0773 37.5475 17.3107 37.5732 17.4663C37.5732 17.6219 37.5732 17.4663 37.676 17.3885C37.7531 17.3107 37.8816 17.207 37.8045 17.3885C37.7017 17.57 37.5475 17.8293 37.5989 17.9849C37.6503 18.1146 37.6246 18.0368 37.7017 17.9849C37.7788 17.959 37.8302 18.0108 37.8045 18.1664C37.7788 18.322 37.676 18.4776 37.7274 18.5554C37.7788 18.6591 37.7017 18.5295 37.8045 18.4776C37.933 18.4517 37.8816 18.5554 37.8816 18.711C37.8816 18.8666 37.8816 18.9444 37.8816 18.9444C37.8816 18.9444 37.8302 19.1259 38.0872 18.5554C38.1386 18.4517 38.2157 18.711 38.2157 18.711C38.2157 18.711 38.2157 18.8406 38.2928 18.6332C38.3699 18.4257 38.6783 18.2442 38.7554 18.348C38.8325 18.4257 38.8068 18.4776 38.8068 18.4776C38.8068 18.4776 38.8325 18.5554 38.8582 18.2961C38.8582 18.0627 39.0381 18.0627 39.1409 18.1405C39.2437 18.2183 39.1409 18.0886 39.218 18.0368C39.2951 17.9849 39.3979 17.7515 39.475 17.8293C39.5521 17.9071 39.5264 18.0108 39.5521 17.9331C39.5521 17.8553 39.6806 17.57 39.8091 17.57C39.9376 17.57 39.8605 17.6737 39.9376 17.4663L39.989 17.5441ZM39.7063 16.2735C39.7063 16.2735 39.475 16.2735 39.3465 16.429C39.218 16.5846 39.1152 17.0255 39.0638 17.1551C39.0124 17.2848 38.9096 17.3885 38.8068 17.4404C38.7297 17.5182 38.447 17.8812 38.3699 17.9331C38.2928 18.0108 38.2157 18.1664 38.1643 18.2961C38.1129 18.4517 38.1129 18.5813 38.0615 18.5295C38.0101 18.4776 38.0615 18.2183 38.0872 18.0886C38.0872 17.959 38.4213 17.6997 38.4984 17.5959C38.5755 17.4922 38.7297 17.2848 38.8839 17.1551C39.0124 17.0514 39.0638 16.6365 39.0638 16.5068C39.0638 16.3772 39.2437 16.2994 39.2951 16.1697C39.3465 16.0401 39.218 15.8845 39.218 15.8845C39.1666 15.7289 39.3722 15.9104 39.4493 16.0141C39.5264 16.0919 39.6035 16.1179 39.6806 16.1697C39.7834 16.2216 39.6806 16.2475 39.6806 16.2475L39.7063 16.2735ZM30.6599 18.711C30.6599 18.711 30.8141 18.6591 30.7113 18.6073C30.6085 18.5554 30.4543 18.4257 30.5571 18.3998C30.6599 18.3739 30.7113 18.2702 30.5571 18.2442C30.4286 18.1924 30.3258 18.1405 30.2744 18.0368C30.223 17.9331 30.0945 17.8812 30.0431 17.8812C29.9917 17.8812 30.0431 17.8034 30.0688 17.7775C30.0945 17.7775 30.1973 17.6478 30.0688 17.6219C29.3492 17.5182 29.5291 17.6478 29.3749 17.6997C29.2721 17.7256 29.0408 17.7256 28.9637 17.6997C28.8609 17.6997 28.7581 17.8812 28.7324 17.9331C28.7067 17.9849 28.6296 18.1146 28.7324 18.1924C28.8352 18.2702 28.9123 18.322 28.8095 18.3998C28.7067 18.4776 28.5011 18.6591 28.5268 18.8147C28.5268 18.9703 28.6039 18.8147 28.7067 18.7628C28.8095 18.711 28.9123 18.9962 28.8609 19.074C28.8095 19.1518 28.7581 19.463 28.7838 19.5667C28.7838 19.6704 28.7838 19.852 28.8352 19.7223C28.8866 19.5926 28.9123 19.5408 28.9637 19.5667C29.0151 19.5926 29.0665 19.7482 29.0408 19.852C29.0408 19.9557 29.0408 20.1113 29.0922 19.9816C29.1436 19.852 29.1693 19.852 29.2464 20.1631C29.3235 20.4484 29.3749 20.2928 29.4006 20.1631C29.4263 20.0594 29.4777 20.1631 29.4777 20.2928C29.4777 20.4224 29.4777 20.578 29.5291 20.578C29.5805 20.578 29.5548 20.4484 29.6319 20.4484C29.7861 20.4484 29.8375 20.7855 29.8889 20.967C29.9403 21.1485 30.0431 21.1485 30.0431 21.0189C30.0431 20.8892 30.1716 21.0967 30.1973 21.2004C30.2487 21.3041 30.2744 21.1485 30.2487 20.967C30.2487 20.7855 30.223 20.6558 30.2744 20.6818C30.3258 20.7336 30.3515 20.6818 30.3772 20.8114C30.3772 20.9151 30.4543 20.8114 30.4286 20.7077C30.4286 20.578 30.3772 20.2928 30.4029 20.2409C30.4029 20.1891 30.48 20.2409 30.5314 20.3706C30.5828 20.4743 30.6342 20.3706 30.5828 20.2669C30.5314 20.1372 30.3772 19.826 30.5057 19.7742C30.6599 19.7223 30.6599 19.852 30.6856 19.9038C30.7113 19.9557 30.7627 19.852 30.6856 19.5926C30.6085 19.3333 30.48 19.1 30.5571 19.1C30.6342 19.1 30.7113 19.1777 30.7113 19.2296C30.7113 19.2815 30.8398 19.1518 30.7113 18.9444C30.6085 18.7369 30.5314 18.6591 30.6342 18.6851L30.6599 18.711ZM29.9403 20.5521C29.9403 20.5521 29.3492 18.5554 29.3235 18.2702C29.2721 17.9849 28.8609 17.9849 28.8609 17.9849C28.7067 17.9071 29.1179 17.9071 29.1693 17.9331C29.2464 17.959 29.3235 17.8812 29.4263 17.7775C29.5548 17.6737 29.6319 17.6478 29.5805 17.7256C29.5291 17.7775 29.452 18.0368 29.4263 18.0886C29.4263 18.1405 29.9146 20.3187 29.966 20.4743C30.0174 20.6299 29.9146 20.604 29.9146 20.5521H29.9403ZM38.0358 9.79067V9.97218C38.0358 9.97218 38.0101 10.0759 38.2157 9.86846C38.4213 9.68694 38.3699 9.58322 38.447 9.47949C38.5241 9.37577 38.6783 9.34984 38.7554 9.27204C38.8325 9.19425 38.9353 8.93494 38.8839 8.67563C38.8839 8.59783 38.7811 8.80528 38.7554 8.67563C38.7297 8.52004 38.7554 8.2348 38.7554 8.157C38.7554 8.10514 38.6526 8.157 38.6012 8.05328C38.5498 7.94955 38.6012 7.87176 38.5498 7.87176C38.5498 7.87176 38.5241 8.10514 38.4213 7.84583C38.3699 7.69024 38.3185 7.53465 38.2671 7.45686C38.2157 7.37907 38.2157 7.43093 38.2157 7.50872C38.2157 7.58652 37.9844 7.48279 37.9073 7.30127C37.8559 7.11976 37.8045 7.17162 37.8302 7.19755C37.8302 7.22348 37.8302 7.37907 37.6246 7.24941C37.4447 7.11976 37.4704 7.09382 37.3162 7.04196C37.162 6.9901 37.3676 7.17162 37.2391 7.19755C37.1106 7.24941 37.0849 7.24941 36.8279 7.11975C36.5709 6.9901 36.6737 7.06789 36.7251 7.11975C36.7765 7.17162 36.7765 7.27534 36.648 7.27534C36.5195 7.27534 36.3396 7.11976 36.2625 7.17162C36.2625 7.17162 36.3653 7.35314 36.2625 7.37907C36.1597 7.405 35.6714 7.43093 35.6714 7.43093C35.6714 7.43093 35.62 7.43093 35.6714 7.45686C35.7228 7.48279 36.0569 7.61245 36.0826 7.7421C36.1083 7.84583 35.8513 7.89769 35.8513 7.89769C35.8513 7.89769 35.7485 7.89769 36.0312 8.02735C36.3396 8.18293 36.2882 8.26073 36.2882 8.26073C36.2882 8.26073 36.0826 8.36445 36.0569 8.33852C36.0312 8.33852 36.0055 8.33852 36.1597 8.39038C36.3396 8.41631 36.5966 8.70156 36.648 8.75342C36.6737 8.80528 36.3396 8.83121 36.3396 8.83121C36.3396 8.83121 36.4167 8.88307 36.4938 8.90901C36.5709 8.93494 36.7251 9.03866 36.7765 9.06459C36.8279 9.09052 36.8536 9.16832 36.7765 9.19425C36.7251 9.19425 36.7251 9.24611 36.7765 9.24611C36.8279 9.24611 37.0078 9.24611 37.1106 9.24611C37.2134 9.24611 37.162 9.29797 37.1106 9.34984C37.0335 9.4017 37.0592 9.42763 37.162 9.4017C37.2905 9.4017 37.2905 9.34984 37.2905 9.4017C37.2905 9.45356 37.1877 9.60915 37.2391 9.63508C37.2905 9.63508 37.5218 9.53135 37.5989 9.55728C37.676 9.55728 37.6503 9.68694 37.5989 9.71287C37.5218 9.76473 37.5989 9.79066 37.8045 9.71287C37.9844 9.66101 38.0358 9.60915 38.0615 9.71287L38.0358 9.79067ZM36.7251 7.94955C36.0055 7.69024 36.391 7.79397 36.8536 7.94955C37.3162 8.13107 37.8559 8.36445 38.1643 8.70156C38.3185 8.88307 38.447 8.9868 38.5498 9.01273C38.6526 9.01273 38.5755 9.06459 38.5241 9.11646C38.4727 9.14239 38.3956 9.27204 38.3699 9.4017C38.3442 9.53135 38.2671 9.45356 38.2671 9.4017C38.2671 9.34984 38.3185 9.06459 37.933 8.75342C37.5475 8.28666 37.0078 8.07921 36.6994 7.97548L36.7251 7.94955ZM42.3277 19.0481C42.3277 19.0481 42.4305 19.1 42.3791 18.9703C42.3277 18.8406 42.2249 18.7628 42.1992 18.6591C42.1478 18.5813 42.1478 18.4257 42.2249 18.4517C42.3277 18.4517 42.2763 18.4517 42.2249 18.348C42.1992 18.2442 42.045 18.1664 41.9422 18.1146C41.8394 18.0627 41.788 17.959 41.8137 17.9071C41.8394 17.8553 41.8137 17.8034 41.7109 17.7256C41.6081 17.6478 41.4539 17.6219 41.4539 17.6219C41.4539 17.6219 41.4025 17.9331 41.4282 18.1146C41.4282 18.2961 41.5824 18.7369 41.5824 18.9184C41.5824 19.1 41.4796 19.3074 41.5053 19.4371C41.5567 19.5408 41.6081 19.9038 41.5053 20.1113C41.4539 20.2928 41.3768 20.5002 41.3511 20.604C41.3511 20.6558 41.3511 20.6818 41.3511 20.6558C41.3511 20.6558 41.3511 20.6299 41.3511 20.604C41.3511 20.5002 41.3511 20.215 41.4539 19.8779C41.531 19.7482 41.3511 19.4111 41.3768 19.3593C41.3768 19.2815 41.4796 18.9703 41.4282 18.7888C41.3768 18.6073 41.2997 18.3998 41.1969 18.2183C41.0941 18.0368 40.8371 17.9849 40.7857 17.959C40.76 17.9331 40.7343 17.8553 40.8628 17.8812C40.9656 17.8812 41.1712 17.9331 41.2483 17.8293C41.3254 17.7256 41.4025 17.6219 41.4025 17.6219C41.4025 17.6219 41.274 17.57 41.1455 17.6219C41.017 17.6737 40.9656 17.6997 40.9656 17.6997C40.9656 17.6997 40.8371 17.7515 40.7086 17.6478C40.5801 17.5441 40.2974 17.7256 40.2717 17.7775C40.246 17.8553 40.3488 17.8293 40.3488 17.8812C40.3488 17.9331 40.2203 18.1405 40.1689 18.2183C40.1175 18.2961 40.1175 18.348 40.1689 18.322C40.1946 18.322 40.1946 18.3998 40.1432 18.4776C40.0918 18.5554 39.8348 18.7888 39.9119 18.7888C39.989 18.7888 40.0918 18.7628 40.1175 18.7888C40.1175 18.8406 39.989 19.0481 40.0147 19.1259C40.0147 19.2037 40.0147 19.2037 40.0918 19.1777C40.1689 19.1518 40.1432 19.3593 40.1689 19.4111C40.1689 19.463 40.1946 19.4111 40.2974 19.3852C40.3745 19.3593 40.3745 19.5926 40.4516 19.6704C40.5287 19.7482 40.503 19.6704 40.5801 19.6704C40.6572 19.6186 40.76 19.6704 40.7857 19.7742C40.7857 19.9038 40.8885 20.1113 40.8885 20.1631C40.8885 20.215 40.8885 20.215 40.9913 20.1631C41.0941 20.0853 41.1198 20.1631 41.1455 20.2409C41.1455 20.3446 41.1969 20.6558 41.1712 20.7077C41.1712 20.7595 41.1712 20.7077 41.2483 20.7077C41.3254 20.6818 41.3511 20.8114 41.3254 20.9411C41.2997 21.0707 41.3254 21.1485 41.4539 21.0189C41.5824 20.8633 41.7366 20.7336 41.7623 20.7077C41.7623 20.6818 41.8394 20.7077 41.8651 20.7336C41.8908 20.7595 41.9165 20.7336 41.9165 20.6558C41.9165 20.5521 41.9165 20.2928 41.9936 20.2409C42.0707 20.1891 42.0964 20.1891 42.1221 20.2409C42.1735 20.2928 42.2249 20.3446 42.1992 20.2409C42.1992 20.1631 42.1478 19.9038 42.1992 19.9298C42.2763 19.9298 42.302 20.0075 42.302 20.0075C42.302 20.0075 42.3534 20.0594 42.302 19.8779C42.2763 19.6964 42.2763 19.4889 42.3277 19.4889C42.3791 19.4889 42.4305 19.463 42.3534 19.3333C42.302 19.2037 42.2763 19.0481 42.3277 19.074V19.0481ZM32.9215 17.3885C32.9215 17.3885 32.9215 17.3107 33.0243 17.3626C33.1014 17.4144 33.1271 17.2848 33.0243 17.207C32.9215 17.1292 32.6902 16.8958 32.8187 16.8958C32.9472 16.8958 33.0243 16.9477 32.8701 16.7402C32.7159 16.5328 32.7159 16.4809 32.8187 16.5068C32.9215 16.5328 32.9472 16.429 32.8187 16.429C32.7159 16.429 32.4589 16.1179 32.536 16.066C32.5874 16.0401 32.6645 15.9104 32.5874 15.9104C32.5103 15.9104 32.1505 15.8067 32.2533 15.703C32.3304 15.6252 32.2533 15.5733 32.1762 15.5992C32.0734 15.5992 31.8421 15.5992 31.8935 15.4696C31.9449 15.3659 31.8935 15.3399 31.765 15.3918C31.6365 15.4437 31.4823 15.5992 31.4309 15.677C31.3795 15.7548 31.2767 15.8326 31.0711 15.8586C30.8912 15.9104 30.8398 16.0141 30.7884 16.1438C30.737 16.2735 30.4029 16.3513 30.5571 16.3772C30.5571 16.3772 30.7113 16.3772 30.737 16.455C30.737 16.5587 30.5828 16.818 30.5571 16.9217C30.5314 17.0255 30.5314 17.0255 30.6085 16.9995C30.6856 16.9995 30.8141 16.9995 30.7884 17.1551C30.7884 17.3366 30.7884 17.6997 30.8141 17.6997C30.8655 17.6997 30.8655 17.6219 30.9426 17.6219C31.0197 17.6219 31.1482 17.8034 31.1739 17.9071C31.1739 18.0108 31.2767 17.8812 31.3281 17.9071C31.3795 17.9071 31.508 18.0886 31.5594 18.1664C31.6108 18.2442 31.6108 18.1664 31.6622 18.1664C31.7393 18.1664 31.8164 18.2961 31.9192 18.4257C32.022 18.5554 31.9963 18.3998 32.0734 18.3739C32.1248 18.3739 32.2019 18.3739 32.2533 18.4257C32.3047 18.4776 32.4846 18.6591 32.4846 18.711C32.4846 18.7628 32.5617 18.7888 32.5103 18.5813C32.4589 18.3739 32.6388 18.5295 32.6902 18.6332C32.7159 18.711 32.8187 18.9703 32.8187 18.9703C32.8187 18.9703 32.8187 18.5554 32.8444 18.5035C32.8958 18.4517 32.8958 18.5295 32.9472 18.5554C32.9986 18.5554 33.0243 18.4776 32.9729 18.348C32.9215 18.1924 32.8444 17.9331 32.9729 18.0108C33.1014 18.0627 33.1271 18.1405 33.1014 17.8553C33.1014 17.5959 32.8701 17.4144 32.8958 17.3626L32.9215 17.3885ZM32.6645 18.4517C32.6645 18.4517 32.4846 18.0108 32.3304 17.6737C32.1762 17.3366 31.6365 16.5846 31.4309 16.455C31.2253 16.3253 31.1482 16.4031 31.1482 16.4031C31.0454 16.455 30.994 16.4031 31.1225 16.3772C31.1996 16.3513 31.3281 16.3513 31.4052 16.2994C31.5337 16.1957 31.5851 15.9364 31.5594 16.1179C31.5594 16.1957 31.4566 16.2994 31.5594 16.429C31.6879 16.5587 32.4075 17.5441 32.5874 18.0627C32.7673 18.5813 32.6388 18.4517 32.6388 18.4517H32.6645ZM34.4378 7.7421L34.6691 7.66431C34.6691 7.66431 34.592 7.56058 34.5149 7.53465C34.4378 7.53465 34.2836 7.45686 34.2322 7.405C34.1808 7.35314 34.2322 7.30127 34.2322 7.30127C34.2322 7.30127 34.2065 7.30127 33.9752 7.37907C33.7439 7.45686 33.6668 7.37907 33.6668 7.27534C33.6668 7.19755 33.7439 7.14569 33.6668 7.14569C33.5897 7.14569 33.5383 7.19755 33.4355 7.24941C33.3327 7.3272 33.2299 7.30127 33.2042 7.24941C33.2042 7.19755 33.2813 7.09382 33.2042 7.11975C33.1528 7.11975 33.05 7.19755 32.9986 7.27534C32.9215 7.35314 32.793 7.405 32.793 7.3272C32.793 7.24941 32.8444 7.17162 32.793 7.17162C32.7416 7.17162 32.6645 7.3272 32.5617 7.48279C32.4589 7.63838 32.3561 7.53465 32.3304 7.48279C32.3304 7.405 32.3818 7.30127 32.3047 7.37907C32.2276 7.45686 32.1762 7.58652 32.1248 7.71617C32.0734 7.8199 31.9449 7.92362 31.8935 8.05328C31.8421 8.18293 31.8678 8.46818 31.8678 8.46818C31.8678 8.46818 31.9192 8.52004 31.9706 8.54597C32.0477 8.5719 32.1762 8.49411 32.3047 8.39038C32.4332 8.28666 32.8187 8.02735 33.2299 7.8199C33.6411 7.61245 34.2065 7.50872 34.2065 7.50872L34.0523 7.56058C34.0523 7.56058 33.6668 7.69024 33.564 7.7421C33.4612 7.76803 32.7673 8.20886 32.7673 8.20886C32.7673 8.20886 32.536 8.36445 32.3047 8.52004C32.0734 8.67563 31.9963 9.03866 32.022 9.19425C32.0477 9.3239 32.2533 9.42763 32.2533 9.42763C32.2533 9.42763 32.279 9.37577 32.2533 9.29797C32.2276 9.22018 32.3047 9.16832 32.4332 9.24611C32.5617 9.3239 32.6388 9.29797 32.6388 9.29797C32.6388 9.29797 32.6388 9.24611 32.5874 9.19425C32.536 9.11645 32.5874 9.11645 32.7416 9.19425C32.8958 9.27204 32.9472 9.22018 32.9472 9.22018C32.9472 9.22018 32.9215 9.19425 32.8444 9.11646C32.7673 9.03866 32.8444 9.01273 32.9729 9.01273C33.1014 9.01273 33.2556 9.01273 33.2556 9.01273C33.2556 9.01273 33.2042 8.93494 33.1528 8.93494C33.1014 8.93494 32.9215 8.83121 33.2299 8.88307C33.5383 8.93494 33.7696 8.85714 33.6411 8.85714C33.5126 8.85714 33.3841 8.72749 33.3841 8.72749C33.3841 8.72749 33.4869 8.70156 33.5897 8.72749C33.6925 8.72749 33.8981 8.62376 33.8981 8.62376C33.8981 8.62376 33.8467 8.62376 33.7953 8.49411C33.7439 8.36445 34.2579 8.23479 34.2579 8.23479C34.2579 8.23479 34.1808 8.157 34.2065 8.07921C34.2065 8.00141 34.4378 7.92362 34.4378 7.92362C34.4378 7.92362 34.335 7.92362 34.2322 7.87176C34.1294 7.8199 34.2322 7.79397 34.335 7.76803L34.4378 7.7421ZM39.9119 9.8166L39.7834 9.68694C39.7834 9.68694 39.6806 9.60915 39.4493 9.66101C39.3465 9.66101 39.218 9.66101 39.1666 9.7388C39.1409 9.76473 39.0638 10.024 39.1666 10.1018C39.3208 10.2315 39.0638 10.5167 39.1409 10.5945C39.218 10.6723 39.218 10.5167 39.3208 10.5686C39.4236 10.6205 39.4236 10.8538 39.5007 10.9316C39.5778 11.0094 39.5264 10.8798 39.7063 10.9316C39.8862 10.9835 39.9119 11.1391 39.9376 11.1132C39.9633 11.1132 39.8862 10.9835 40.0147 11.0094C40.1432 11.0354 40.2974 11.1132 40.3488 11.1909C40.4002 11.2428 40.3488 11.0872 40.4516 11.1391C40.5801 11.1909 40.7343 11.3465 40.7343 11.3465C40.7343 11.3465 40.6829 11.1909 40.7857 11.1909C40.8885 11.1909 41.0941 11.2687 41.2226 11.5021C41.3768 11.7096 41.1712 11.3465 41.2997 11.2428C41.4282 11.1391 41.5824 11.4503 41.6081 11.5281C41.6338 11.6058 41.6081 11.3465 41.5824 11.1132C41.531 10.9057 41.7109 11.1132 41.7109 11.1132C41.7109 11.1132 41.8137 11.165 41.6338 10.9057C41.4539 10.6464 41.4025 10.5945 41.531 10.6205C41.6595 10.6464 41.6852 10.7242 41.6852 10.7242C41.6852 10.7242 41.788 10.7501 41.5824 10.5167C41.3768 10.2574 41.1969 10.0759 41.2483 10.0759C41.3254 10.0759 41.3768 10.0759 41.4282 10.1278C41.4796 10.1796 41.5053 10.1278 41.4282 10.024C41.3254 9.94625 41.0427 9.84253 41.0941 9.76473C41.1455 9.68694 41.2226 9.68694 41.2226 9.68694C41.2226 9.68694 41.3254 9.68694 41.1712 9.63508C41.017 9.58322 40.8371 9.50542 40.9399 9.47949C41.0427 9.47949 41.1198 9.42763 41.1198 9.42763C41.1198 9.42763 41.1198 9.4017 40.9913 9.37577C40.8371 9.37577 40.6829 9.22018 40.6829 9.14239C40.6829 9.03866 40.7343 9.03866 40.7086 8.9868C40.7086 8.96087 40.6829 8.96087 40.503 8.9868C40.3488 9.03866 40.2717 8.9868 40.2717 8.90901C40.2717 8.83121 40.2203 8.77935 40.1432 8.83121C40.0661 8.88307 40.0404 8.93494 39.989 8.93494C39.9376 8.93494 39.8862 8.85714 39.732 8.90901C39.732 8.90901 39.5521 9.11645 39.5521 9.19425C39.5521 9.29797 39.8091 9.53135 39.9633 9.66101C40.1432 9.79066 41.0941 10.2315 41.274 10.9057C40.5544 9.94625 40.0404 9.89439 39.9376 9.79067L39.9119 9.8166Z" fill="#124734"/>
<path d="M7.19596 43.0344C7.45296 43.0344 7.60716 43.1122 7.70996 43.2159C7.81276 43.3197 7.83846 43.553 7.83846 43.942V45.7572C7.83846 46.198 7.78706 46.5351 7.68426 46.7426C7.47866 47.1315 7.11886 47.3131 6.55346 47.3131C6.03947 47.3131 5.67967 47.1315 5.49977 46.7426C5.39697 46.5351 5.34557 46.2499 5.34557 45.8868V43.6568C5.34557 43.3975 5.39697 43.2419 5.47407 43.1641C5.55117 43.0863 5.73107 43.0603 5.98807 43.0344V42.9048H4.03488V43.0344C4.29188 43.0344 4.47178 43.1122 4.54888 43.1641C4.62597 43.2419 4.67737 43.3975 4.67737 43.6568V45.835C4.67737 46.2758 4.75447 46.6129 4.90867 46.8722C5.19137 47.3649 5.67967 47.5983 6.42497 47.5983C7.17026 47.5983 7.68426 47.339 7.96696 46.8463C8.12116 46.587 8.19826 46.198 8.19826 45.7313V43.9161C8.19826 43.553 8.24966 43.3197 8.32676 43.2159C8.40385 43.1122 8.58375 43.0604 8.84075 43.0085V42.8788H7.24736V43.0085L7.19596 43.0344ZM12.2845 43.0344C12.5415 43.0344 12.6957 43.1122 12.7728 43.19C12.8756 43.2937 12.9527 43.553 12.9527 43.942V46.2499L10.2799 42.9048H9.09775V43.0344C9.25195 43.0344 9.35475 43.0344 9.40615 43.0863C9.48325 43.1122 9.56035 43.19 9.66315 43.3197L9.76595 43.4234V46.5092C9.76595 46.8722 9.71455 47.1056 9.63745 47.2093C9.56035 47.3131 9.38045 47.3649 9.09775 47.4168V47.5464H10.7168V47.4168C10.4598 47.3909 10.3056 47.339 10.2285 47.2612C10.1257 47.1575 10.0743 46.8982 10.0743 46.5092V43.7864L13.1326 47.6242H13.2611V43.942C13.2611 43.579 13.3125 43.3456 13.3896 43.2419C13.4667 43.1381 13.6466 43.0863 13.9293 43.0603V42.9307H12.3102V43.0603L12.2845 43.0344ZM14.2377 43.0344C14.5204 43.0344 14.7003 43.0863 14.7774 43.1641C14.8545 43.2419 14.9059 43.3975 14.9059 43.6568V46.7685C14.9059 47.0278 14.8545 47.2093 14.7774 47.2612C14.7003 47.3131 14.5204 47.3649 14.2377 47.3909V47.5205H16.2937V47.3909C16.011 47.3909 15.8311 47.339 15.754 47.2612C15.6769 47.2093 15.6255 47.0278 15.6255 46.7685V43.6568C15.6255 43.3975 15.6769 43.2419 15.754 43.1641C15.8311 43.0863 16.011 43.0344 16.2937 43.0344V42.9048H14.2377V43.0344ZM19.9431 43.0344C20.0973 43.0344 20.2001 43.0344 20.2772 43.0863C20.38 43.1381 20.4571 43.2159 20.4571 43.3715C20.4571 43.4234 20.4571 43.4752 20.4314 43.579C20.4314 43.6568 20.38 43.7605 20.3286 43.8642L19.352 46.4833L18.2726 44.0457C18.1698 43.8124 18.0927 43.6308 18.0413 43.5271C17.9899 43.4234 17.9899 43.3456 17.9899 43.2937C17.9899 43.19 18.0413 43.1122 18.1441 43.0603C18.1955 43.0603 18.324 43.0344 18.5039 43.0344V42.9048H16.6535V43.0344C16.8077 43.0344 16.9362 43.0863 17.039 43.1641C17.1161 43.2419 17.2446 43.4493 17.3731 43.7605L19.0693 47.5983H19.1721L20.7141 43.6827C20.8169 43.4234 20.9197 43.2419 21.0225 43.1381C21.0996 43.0863 21.2024 43.0344 21.3566 43.0085V42.8788H19.9431V43.0344ZM24.9546 47.1056C24.7233 47.2093 24.3892 47.2612 23.9266 47.2612C23.4897 47.2612 23.2327 47.2612 23.1556 47.2353C23.0785 47.2353 23.0271 47.1315 23.0271 47.0019V45.2645H24.0808C24.3635 45.2645 24.5691 45.3164 24.6462 45.3942C24.7233 45.472 24.8004 45.6535 24.8518 45.9387H25.006V44.331H24.8518C24.8004 44.5903 24.749 44.7718 24.6462 44.8755C24.5691 44.9533 24.3892 45.0052 24.0808 45.0052H23.0271V43.4493C23.0271 43.4493 23.0271 43.2937 23.0528 43.2678C23.0528 43.2419 23.1299 43.2159 23.2327 43.2159H24.1579C24.5691 43.2159 24.8261 43.2678 24.9546 43.3456C25.0831 43.4234 25.1602 43.6308 25.2116 43.942H25.3915V42.9307H21.6907V43.0603C21.9477 43.0603 22.1019 43.1381 22.179 43.19C22.2561 43.2678 22.2818 43.4234 22.2818 43.6827V46.7944C22.2818 47.0537 22.2561 47.2093 22.179 47.2871C22.1019 47.339 21.9477 47.3909 21.6907 47.4168V47.5464H25.4172L25.7256 46.3795H25.52C25.3401 46.7685 25.1345 47.0278 24.9289 47.1315L24.9546 47.1056ZM29.8632 47.0797L28.4497 45.3164C28.8352 45.2645 29.1436 45.1348 29.3492 44.9533C29.5805 44.7718 29.6833 44.5125 29.6833 44.1495C29.6833 43.6308 29.4263 43.2678 28.938 43.0863C28.681 42.9826 28.3469 42.9307 27.9357 42.9307H26.034V43.0603C26.291 43.0603 26.4452 43.1381 26.5223 43.2159C26.5994 43.2937 26.6251 43.4493 26.6251 43.7086V46.7426C26.6251 47.0278 26.5994 47.2093 26.5223 47.2871C26.4452 47.3649 26.291 47.4168 26.034 47.4427V47.5724H27.9614V47.4427C27.7045 47.4427 27.5246 47.3649 27.4475 47.3131C27.3704 47.2353 27.319 47.0797 27.319 46.8204V45.446H27.6274L29.3492 47.5724H30.4543V47.4427C30.3258 47.4427 30.1973 47.3909 30.1202 47.339C30.0431 47.2871 29.9403 47.2093 29.8632 47.1056V47.0797ZM27.3447 45.1348V43.4234C27.3447 43.4234 27.3447 43.2419 27.4218 43.2159C27.4732 43.19 27.576 43.1641 27.7816 43.1641C28.0642 43.1641 28.2955 43.2159 28.4754 43.2937C28.8095 43.4493 28.9637 43.7086 28.9637 44.1235C28.9637 44.5384 28.7838 44.8237 28.424 44.9793C28.2184 45.057 27.8586 45.1089 27.3704 45.1348H27.3447ZM33.0243 44.9793L32.4075 44.5903C32.1762 44.4606 32.022 44.305 31.8935 44.1754C31.7907 44.0457 31.7393 43.8901 31.7393 43.7086C31.7393 43.5012 31.8164 43.3456 31.9449 43.2419C32.0734 43.1381 32.2533 43.0603 32.4332 43.0603C32.6645 43.0603 32.9215 43.1381 33.1785 43.3197C33.4355 43.5012 33.6154 43.8124 33.7182 44.2532H33.8724L33.7182 42.7751H33.564C33.564 42.7751 33.5126 42.9048 33.4869 42.9566C33.4612 43.0085 33.3841 43.0085 33.307 43.0085C33.2813 43.0085 33.1528 42.9566 32.9215 42.8788C32.6902 42.801 32.5103 42.7492 32.3561 42.7492C31.9706 42.7492 31.6622 42.8788 31.4309 43.1122C31.1996 43.3456 31.0968 43.6308 31.0968 43.9939C31.0968 44.2532 31.1996 44.5125 31.3795 44.7199C31.4823 44.8237 31.6365 44.9533 31.8164 45.057L32.4075 45.4201C32.7416 45.6275 32.9729 45.7831 33.0757 45.9128C33.2299 46.0684 33.307 46.2758 33.307 46.5092C33.307 46.7685 33.2299 46.95 33.0757 47.1056C32.9215 47.2353 32.7159 47.3131 32.5103 47.3131C32.0991 47.3131 31.765 47.1575 31.4823 46.8204C31.3281 46.6389 31.1996 46.3795 31.0711 46.0684H30.9169L31.1225 47.5464H31.2767C31.2767 47.5464 31.3024 47.4427 31.3281 47.3909C31.3538 47.339 31.4052 47.3131 31.4823 47.3131C31.508 47.3131 31.6365 47.3649 31.8935 47.4427C32.1248 47.5205 32.3561 47.5724 32.5617 47.5724C32.9986 47.5724 33.3327 47.4427 33.6154 47.2093C33.8981 46.976 34.0266 46.6648 34.0266 46.3017C34.0266 46.0165 33.9495 45.7831 33.7953 45.6016C33.6411 45.3942 33.3841 45.1867 32.9986 44.9533L33.0243 44.9793ZM34.7205 43.0344C35.0032 43.0344 35.1831 43.0863 35.2602 43.1641C35.3373 43.2419 35.3887 43.3975 35.3887 43.6568V46.7685C35.3887 47.0278 35.3373 47.2093 35.2602 47.2612C35.1831 47.3131 35.0032 47.3649 34.7205 47.3909V47.5205H36.7765V47.3909C36.4938 47.3909 36.3139 47.339 36.2368 47.2612C36.1597 47.2093 36.1083 47.0278 36.1083 46.7685V43.6568C36.1083 43.3975 36.1597 43.2419 36.2368 43.1641C36.3139 43.0863 36.4938 43.0344 36.7765 43.0344V42.9048H34.7205V43.0344ZM40.6058 43.2419C40.1689 43.0344 39.6292 42.9307 39.0124 42.9307H37.1363V43.0603C37.3933 43.0603 37.5475 43.1122 37.6246 43.19C37.7017 43.2678 37.7274 43.4234 37.7274 43.6827V46.7944C37.7274 47.0537 37.7017 47.2093 37.6246 47.2871C37.5475 47.339 37.3933 47.3909 37.1363 47.4168V47.5464H39.0638C39.5778 47.5464 40.0147 47.4687 40.3745 47.339C40.5801 47.2612 40.76 47.1575 40.9399 47.0278C41.2226 46.8204 41.4282 46.5351 41.5824 46.224C41.7109 45.9128 41.788 45.5757 41.788 45.2386C41.788 44.2791 41.4025 43.6049 40.6058 43.2159V43.2419ZM40.2203 46.95C39.8605 47.1575 39.4236 47.2612 38.8839 47.2612C38.704 47.2612 38.6012 47.2612 38.5498 47.2093C38.4984 47.1834 38.4727 47.1056 38.4727 46.976V43.4234C38.4727 43.4234 38.4984 43.2419 38.5498 43.19C38.6012 43.1641 38.704 43.1381 38.8582 43.1381C39.475 43.1381 39.989 43.2937 40.3488 43.6049C40.7857 43.9679 41.017 44.5125 41.017 45.2126C41.017 46.0165 40.76 46.587 40.2203 46.9241V46.95ZM46.3882 46.7944L44.6664 42.827H44.5379L43.0987 46.2499C42.8931 46.7685 42.7389 47.0797 42.6361 47.1834C42.559 47.2871 42.4048 47.3649 42.2249 47.3909V47.5205H43.587V47.3909C43.4328 47.3909 43.3043 47.3649 43.2529 47.339C43.1501 47.2871 43.0987 47.2093 43.0987 47.1056C43.0987 47.0538 43.0987 46.976 43.1501 46.8722C43.1758 46.7685 43.3043 46.4833 43.4842 46.0424H45.3089L45.5916 46.7166C45.5916 46.7166 45.6687 46.8982 45.6944 46.976C45.6944 47.0537 45.7201 47.1315 45.7201 47.1575C45.7201 47.2612 45.6944 47.3131 45.643 47.339C45.5916 47.3649 45.4631 47.3909 45.2575 47.4168V47.5464H47.005V47.4168C46.8508 47.4168 46.7223 47.3649 46.6709 47.2871C46.5938 47.2353 46.5167 47.0537 46.3882 46.7944ZM43.6127 45.7313L44.4094 43.8124L45.2061 45.7313H43.6127ZM50.7829 43.2419C50.346 43.0344 49.8063 42.9307 49.1895 42.9307H47.3134V43.0603C47.5704 43.0603 47.7246 43.1122 47.8017 43.19C47.8788 43.2678 47.9045 43.4234 47.9045 43.6827V46.7944C47.9045 47.0537 47.8788 47.2093 47.8017 47.2871C47.7246 47.339 47.5704 47.3909 47.3134 47.4168V47.5464H49.2409C49.7549 47.5464 50.1918 47.4687 50.5516 47.339C50.7572 47.2612 50.9371 47.1575 51.117 47.0278C51.3997 46.8204 51.6053 46.5351 51.7595 46.224C51.888 45.9128 51.9651 45.5757 51.9651 45.2386C51.9651 44.2791 51.5796 43.6049 50.7829 43.2159V43.2419ZM50.3974 46.95C50.0376 47.1575 49.6007 47.2612 49.061 47.2612C48.8811 47.2612 48.7783 47.2612 48.7269 47.2093C48.6755 47.1834 48.6498 47.1056 48.6498 46.976V43.4234C48.6498 43.4234 48.6755 43.2419 48.7269 43.19C48.7783 43.1641 48.8811 43.1381 49.0353 43.1381C49.6521 43.1381 50.1661 43.2937 50.5259 43.6049C50.9628 43.9679 51.1941 44.5125 51.1941 45.2126C51.1941 46.0165 50.9371 46.587 50.3974 46.9241V46.95Z" fill="#231F20"/>
<path d="M0 55.7666C0.256999 55.7666 0.436898 55.6888 0.488297 55.611C0.565397 55.5332 0.591097 55.3517 0.591097 55.0665V52.0325C0.591097 51.7992 0.565397 51.6176 0.488297 51.5658C0.411198 51.488 0.256999 51.4361 0 51.4102V51.2805H1.82469C2.41579 51.2805 2.85268 51.3843 3.16108 51.6176C3.46948 51.851 3.62368 52.1622 3.62368 52.5252C3.62368 52.992 3.44378 53.355 3.10968 53.5625C2.77559 53.7699 2.33869 53.8736 1.82469 53.8736C1.74759 53.8736 1.64479 53.8736 1.54199 53.8736C1.41349 53.8736 1.33639 53.8736 1.28499 53.8736V55.1443C1.28499 55.4036 1.33639 55.5592 1.41349 55.637C1.49059 55.7148 1.67049 55.7407 1.95319 55.7666V55.8963H0.0256999V55.7666H0ZM2.33869 51.6695C2.13309 51.5917 1.90179 51.5398 1.59339 51.5398C1.43919 51.5398 1.36209 51.5398 1.33639 51.5917C1.31069 51.6176 1.28499 51.6954 1.28499 51.7732V53.5884C1.28499 53.5884 1.49059 53.5884 1.51629 53.5884C1.54199 53.5884 1.59339 53.5884 1.61909 53.5884C1.92749 53.5884 2.18449 53.5365 2.36439 53.4587C2.69849 53.3032 2.85268 52.992 2.85268 52.5252C2.85268 52.1103 2.67279 51.7992 2.31299 51.6436L2.33869 51.6695Z" fill="#231F20"/>
<path d="M3.31528 55.8963V55.7666C3.49518 55.7666 3.62368 55.6888 3.72648 55.5592C3.80358 55.4554 3.95778 55.1183 4.18908 54.6257L5.62827 51.2027H5.75677L7.47866 55.1702C7.58146 55.4295 7.68426 55.5851 7.76136 55.6629C7.83846 55.7148 7.94126 55.7666 8.09546 55.7925V55.9222H6.34787V55.7925C6.55346 55.7925 6.68196 55.7407 6.73336 55.7148C6.78476 55.7148 6.81046 55.637 6.81046 55.5332C6.81046 55.5073 6.81046 55.4295 6.78476 55.3517C6.78476 55.2739 6.73336 55.1702 6.68196 55.0924L6.39927 54.4182H4.57458C4.39468 54.885 4.29188 55.1443 4.24048 55.248C4.21478 55.3517 4.18908 55.4295 4.18908 55.4814C4.18908 55.611 4.24048 55.6888 4.34328 55.7148C4.39468 55.7407 4.52318 55.7666 4.67737 55.7666V55.8963H3.31528ZM6.27077 54.107L5.47407 52.1881L4.67737 54.107H6.27077Z" fill="#231F20"/>
<path d="M8.37815 55.7666C8.66085 55.7407 8.84075 55.6629 8.91785 55.5592C8.99495 55.4554 9.04635 55.2221 9.04635 54.859V51.7732L8.94355 51.6695C8.94355 51.6695 8.76365 51.462 8.68655 51.4361C8.60945 51.4102 8.50665 51.3843 8.37815 51.3843V51.2546H9.56035L12.2331 54.5997V52.2918C12.2331 51.9029 12.1817 51.6695 12.0532 51.5398C11.9761 51.462 11.8219 51.4102 11.5649 51.3843V51.2546H13.184V51.3843C12.927 51.4102 12.7471 51.488 12.6443 51.5658C12.5672 51.6695 12.5158 51.9029 12.5158 52.2659V55.9481H12.3873L9.32905 52.1103V54.8331C9.32905 55.2221 9.38045 55.4554 9.48325 55.5851C9.56035 55.6629 9.71455 55.7148 9.97155 55.7407V55.8703H8.35245V55.7407L8.37815 55.7666Z" fill="#231F20"/>
<path d="M13.4924 55.8963V55.7666C13.6723 55.7666 13.8008 55.6888 13.9036 55.5592C13.9807 55.4554 14.1349 55.1183 14.3662 54.6257L15.8054 51.2027H15.9339L17.6558 55.1702C17.7586 55.4295 17.8614 55.5851 17.9385 55.6629C18.0156 55.7148 18.1184 55.7666 18.2726 55.7925V55.9222H16.525V55.7925C16.7306 55.7925 16.8591 55.7407 16.9105 55.7148C16.9619 55.7148 16.9876 55.637 16.9876 55.5332C16.9876 55.5073 16.9876 55.4295 16.9619 55.3517C16.9619 55.2739 16.9105 55.1702 16.8591 55.0924L16.5764 54.4182H14.7517C14.5718 54.885 14.469 55.1443 14.4176 55.248C14.3919 55.3517 14.3662 55.4295 14.3662 55.4814C14.3662 55.611 14.4176 55.6888 14.5204 55.7148C14.5718 55.7407 14.7003 55.7666 14.8545 55.7666V55.8963H13.4924ZM16.4736 54.107L15.6769 52.1881L14.8802 54.107H16.4736Z" fill="#231F20"/>
<path d="M18.581 55.7666C18.8637 55.7407 19.0436 55.6629 19.1207 55.5592C19.1978 55.4554 19.2492 55.2221 19.2492 54.859V52.0325C19.2492 51.7732 19.1978 51.6176 19.1207 51.5398C19.0436 51.462 18.8637 51.4102 18.581 51.4102V51.2805H19.9431L21.5365 54.7553L23.0785 51.2805H24.4406V51.4102C24.1836 51.4102 24.0294 51.488 23.9523 51.5398C23.8752 51.6176 23.8495 51.7732 23.8495 52.0325V55.1443C23.8495 55.4036 23.8752 55.5592 23.9523 55.637C24.0294 55.7148 24.1836 55.7666 24.4406 55.7666V55.8963H22.5131V55.7666C22.7958 55.7666 22.9757 55.6888 23.0271 55.611C23.1042 55.5332 23.1299 55.3517 23.1299 55.0405V51.9029L21.3566 55.8703H21.2538L19.5062 52.0585V54.8331C19.5062 55.2221 19.5576 55.4554 19.6604 55.5851C19.7375 55.6629 19.8917 55.7148 20.1487 55.7407V55.8703H18.5296V55.7407L18.581 55.7666Z" fill="#231F20"/>
<path d="M24.8261 55.7666C25.0831 55.7407 25.2373 55.6888 25.3144 55.637C25.3915 55.5851 25.4172 55.4036 25.4172 55.1443V52.0325C25.4172 51.7732 25.3915 51.6176 25.3144 51.5398C25.2373 51.462 25.0831 51.4102 24.8261 51.4102V51.2805H28.5011V52.2918H28.3469C28.2955 51.9807 28.1927 51.7732 28.0899 51.6954C27.9614 51.6176 27.7044 51.5658 27.2933 51.5658H26.3681C26.3681 51.5658 26.2139 51.5658 26.1882 51.6176C26.1882 51.6436 26.1625 51.7214 26.1625 51.7992V53.355H27.2162C27.4989 53.355 27.7045 53.3032 27.7816 53.2254C27.8587 53.1476 27.9357 52.9661 27.9871 52.6808H28.1413V54.2885H27.9871C27.9357 54.0292 27.8587 53.8477 27.7816 53.744C27.7045 53.6662 27.5246 53.6143 27.2162 53.6143H26.1625V55.3517C26.1625 55.4814 26.2139 55.5592 26.291 55.5851C26.3681 55.5851 26.6251 55.611 27.062 55.611C27.5246 55.611 27.8844 55.5592 28.0899 55.4554C28.3212 55.3517 28.5011 55.0924 28.681 54.7034H28.8866L28.5782 55.8703H24.8518V55.7407L24.8261 55.7666Z" fill="#231F20"/>
<path d="M29.1436 55.7666C29.4006 55.7666 29.5805 55.6888 29.6319 55.611C29.709 55.5332 29.7347 55.3517 29.7347 55.0665V52.0325C29.7347 51.7992 29.709 51.6176 29.6319 51.5398C29.5548 51.462 29.4006 51.4102 29.1436 51.3843V51.2546H31.0454C31.4309 51.2546 31.765 51.3065 32.0477 51.4102C32.5617 51.5917 32.793 51.9547 32.793 52.4734C32.793 52.8105 32.6902 53.0957 32.4589 53.2772C32.2276 53.4587 31.9192 53.5884 31.5594 53.6403L32.9729 55.4036C32.9729 55.4036 33.1528 55.5851 33.2299 55.637C33.307 55.6888 33.4355 55.7148 33.564 55.7407V55.8703H32.4589L30.737 53.7181H30.4286V55.1183C30.4286 55.3777 30.48 55.5332 30.5571 55.611C30.6342 55.6888 30.8141 55.7148 31.0711 55.7407V55.8703H29.1436V55.7407V55.7666ZM31.508 53.355C31.8678 53.1994 32.0477 52.9142 32.0477 52.4993C32.0477 52.0844 31.8935 51.8251 31.5594 51.6695C31.3795 51.5917 31.1482 51.5398 30.8655 51.5398C30.6599 51.5398 30.5571 51.5398 30.5057 51.5917C30.4543 51.6176 30.4286 51.6954 30.4286 51.7992V53.5106C30.9169 53.5106 31.2767 53.4328 31.4823 53.355H31.508Z" fill="#231F20"/>
<path d="M33.8981 55.7666C34.1808 55.7666 34.3607 55.7148 34.4378 55.637C34.5149 55.5851 34.5663 55.4036 34.5663 55.1443V52.0325C34.5663 51.7732 34.5149 51.6176 34.4378 51.5398C34.3607 51.462 34.1808 51.4102 33.8981 51.4102V51.2805H35.9541V51.4102C35.6714 51.4102 35.4915 51.462 35.4144 51.5398C35.3373 51.6176 35.2859 51.7732 35.2859 52.0325V55.1443C35.2859 55.4036 35.3373 55.5851 35.4144 55.637C35.4915 55.6888 35.6714 55.7407 35.9541 55.7666V55.8963H33.8981V55.7666Z" fill="#231F20"/>
<path d="M39.5264 51.3324C39.7834 51.4102 39.9376 51.4361 39.9633 51.4361C40.0404 51.4361 40.0918 51.4361 40.1432 51.3843C40.1946 51.3583 40.246 51.2805 40.2717 51.2027H40.4259L40.4773 52.7586H40.3231C40.2203 52.4474 40.1175 52.1881 39.9633 52.0066C39.6806 51.6436 39.2951 51.462 38.8068 51.462C38.3185 51.462 37.933 51.6436 37.6246 52.0325C37.3162 52.4215 37.162 52.9401 37.162 53.6403C37.162 54.2626 37.3162 54.7553 37.6503 55.1443C37.9844 55.5073 38.3699 55.6888 38.8839 55.6888C39.2437 55.6888 39.5778 55.611 39.8605 55.4295C40.0404 55.3258 40.2203 55.1961 40.4259 54.9887L40.5544 55.1183C40.4002 55.3258 40.2203 55.4814 39.989 55.637C39.6035 55.8963 39.1923 56 38.7297 56C37.9844 56 37.3933 55.7666 36.9564 55.2739C36.5452 54.8331 36.3396 54.2885 36.3396 53.6143C36.3396 52.9401 36.5452 52.3696 36.9821 51.9029C37.419 51.4102 38.0101 51.1768 38.7297 51.1768C38.9867 51.1768 39.2437 51.2027 39.5007 51.2805L39.5264 51.3324Z" fill="#231F20"/>
<path d="M41.017 55.8963V55.7666C41.1969 55.7666 41.3254 55.6888 41.4282 55.5592C41.5053 55.4554 41.6595 55.1183 41.8908 54.6257L43.33 51.2027H43.4585L45.1804 55.1702C45.2832 55.4295 45.386 55.5851 45.4631 55.6629C45.5402 55.7148 45.643 55.7666 45.7972 55.7925V55.9222H44.0496V55.7925C44.2552 55.7925 44.3837 55.7407 44.4351 55.7148C44.4865 55.7148 44.5122 55.637 44.5122 55.5332C44.5122 55.5073 44.5122 55.4295 44.4865 55.3517C44.4865 55.2739 44.4351 55.1702 44.3837 55.0924L44.101 54.4182H42.2763C42.0964 54.885 41.9936 55.1443 41.9422 55.248C41.9165 55.3517 41.8908 55.4295 41.8908 55.4814C41.8908 55.611 41.9422 55.6888 42.045 55.7148C42.0964 55.7407 42.2249 55.7666 42.3791 55.7666V55.8963H41.017ZM43.9982 54.107L43.2015 52.1881L42.4048 54.107H43.9982Z" fill="#231F20"/>
<path d="M46.0799 55.7666C46.3626 55.7407 46.5424 55.6629 46.6195 55.5592C46.6966 55.4554 46.748 55.2221 46.748 54.859V51.7732L46.6452 51.6695C46.6452 51.6695 46.4653 51.462 46.3882 51.4361C46.3111 51.4102 46.2084 51.3843 46.0799 51.3843V51.2546H47.262L49.9348 54.5997V52.2918C49.9348 51.9029 49.8834 51.6695 49.7549 51.5398C49.6778 51.462 49.5236 51.4102 49.2666 51.3843V51.2546H50.8857V51.3843C50.6287 51.4102 50.4488 51.488 50.346 51.5658C50.2689 51.6695 50.2175 51.9029 50.2175 52.2659V55.9481H50.089L47.0307 52.1103V54.8331C47.0307 55.2221 47.0821 55.4554 47.1849 55.5851C47.262 55.6629 47.4162 55.7148 47.6732 55.7407V55.8703H46.0542V55.7407L46.0799 55.7666Z" fill="#231F20"/>
<path d="M51.2198 55.8963V55.7666C51.3997 55.7666 51.5282 55.6888 51.631 55.5592C51.7081 55.4554 51.8623 55.1183 52.0936 54.6257L53.5328 51.2027H53.6613L55.3832 55.1702C55.486 55.4295 55.5888 55.5851 55.6659 55.6629C55.743 55.7148 55.8458 55.7666 56 55.7925V55.9222H54.2524V55.7925C54.458 55.7925 54.5865 55.7407 54.6379 55.7148C54.6893 55.7148 54.715 55.637 54.715 55.5332C54.715 55.5073 54.715 55.4295 54.6893 55.3517C54.6893 55.2739 54.6379 55.1702 54.5865 55.0924L54.3038 54.4182H52.4791C52.2992 54.885 52.1964 55.1443 52.145 55.248C52.1193 55.3517 52.0936 55.4295 52.0936 55.4814C52.0936 55.611 52.145 55.6888 52.2478 55.7148C52.2992 55.7407 52.4277 55.7666 52.5819 55.7666V55.8963H51.2198ZM54.201 54.107L53.4043 52.1881L52.6076 54.107H54.201Z" fill="#231F20"/>
</svg>
